M48
; DRILL file {KiCad 8.0.3} date 2024-09-27T00:45:04-0400
; FORMAT={-:-/ absolute / inch / decimal}
; #@! TF.CreationDate,2024-09-27T00:45:04-04:00
; #@! TF.GenerationSoftware,Kicad,Pcbnew,8.0.3
; #@! TF.FileFunction,Plated,1,2,PTH
FMAT,2
INCH
; #@! TA.AperFunction,Plated,PTH,ViaDrill
T1C0.0118
; #@! TA.AperFunction,Plated,PTH,ComponentDrill
T2C0.0315
; #@! TA.AperFunction,Plated,PTH,ComponentDrill
T3C0.0394
; #@! TA.AperFunction,Plated,PTH,ComponentDrill
T4C0.0402
%
G90
G05
T1
X6.1024Y-2.7953
X6.2205Y-2.874
X6.2795Y-2.7165
X6.2992Y-2.9134
X6.378Y-3.5728
X6.7913Y-2.815
X6.8504Y-2.8543
X6.9409Y-2.7334
X6.9488Y-2.874
X7.4803Y-2.815
X7.5984Y-2.8543
X7.6414Y-2.9367
X7.65Y-2.7132
T2
X6.3285Y-2.1654
X6.3285Y-2.2441
X7.0274Y-2.1555
X7.0274Y-2.2343
X7.7065Y-2.1531
X7.7065Y-2.2319
T3
X4.7087Y-2.1531
X4.7087Y-2.2531
X4.7087Y-2.3531
X4.7087Y-2.4531
X4.7087Y-2.5531
X4.7087Y-2.6531
X4.7087Y-2.7531
X4.7087Y-2.8531
X4.7087Y-2.9531
X4.7087Y-3.0531
X4.7087Y-3.1531
X4.7087Y-3.2531
X4.7087Y-3.3531
X4.7087Y-3.4531
X4.7087Y-3.5531
X5.7087Y-2.1531
X5.7087Y-2.2531
X5.7087Y-2.3531
X5.7087Y-2.4531
X5.7087Y-2.5531
X5.7087Y-2.6531
X5.7087Y-2.7531
X5.7087Y-2.8531
X5.7087Y-2.9531
X5.7087Y-3.0531
X5.7087Y-3.1531
X5.7087Y-3.2531
X5.7087Y-3.3531
X5.7087Y-3.4531
X5.7087Y-3.5531
X6.3479Y-3.4526
X6.3484Y-3.3047
X6.4479Y-3.4526
X6.4484Y-3.3047
X6.5479Y-3.4526
X6.5484Y-3.3047
X6.6484Y-3.3047
X6.8108Y-3.3047
X6.9108Y-3.3047
X7.0108Y-3.3047
X7.1108Y-3.3047
X7.272Y-3.3071
X7.372Y-3.3071
X7.472Y-3.3071
X7.572Y-3.3071
T4
X5.872Y-2.3764
X5.872Y-2.4764
X5.872Y-2.5764
X5.872Y-2.6764
X5.872Y-2.7764
X5.872Y-2.8764
X5.872Y-2.9764
X5.872Y-3.0764
X6.372Y-2.3764
X6.372Y-2.4764
X6.372Y-2.5764
X6.372Y-2.6764
X6.372Y-2.7764
X6.372Y-2.8764
X6.372Y-2.9764
X6.372Y-3.0764
X6.5608Y-2.3764
X6.5608Y-2.4764
X6.5608Y-2.5764
X6.5608Y-2.6764
X6.5608Y-2.7764
X6.5608Y-2.8764
X6.5608Y-2.9764
X6.5608Y-3.0764
X7.0608Y-2.3764
X7.0608Y-2.4764
X7.0608Y-2.5764
X7.0608Y-2.6764
X7.0608Y-2.7764
X7.0608Y-2.8764
X7.0608Y-2.9764
X7.0608Y-3.0764
X7.2496Y-2.3764
X7.2496Y-2.4764
X7.2496Y-2.5764
X7.2496Y-2.6764
X7.2496Y-2.7764
X7.2496Y-2.8764
X7.2496Y-2.9764
X7.2496Y-3.0764
X7.7496Y-2.3764
X7.7496Y-2.4764
X7.7496Y-2.5764
X7.7496Y-2.6764
X7.7496Y-2.7764
X7.7496Y-2.8764
X7.7496Y-2.9764
X7.7496Y-3.0764
T3
G00X5.9624Y-3.224
M15
G01X6.0648Y-3.224
M16
G05
G00X5.9703Y-3.472
M15
G01X6.0569Y-3.472
M16
G05
G00X6.2026Y-3.2949
M15
G01X6.2026Y-3.3815
M16
G05
M30
