%TF.GenerationSoftware,KiCad,Pcbnew,8.0.3*%
%TF.CreationDate,2024-09-27T00:44:58-04:00*%
%TF.ProjectId,BF_FluidNC,42465f46-6c75-4696-944e-432e6b696361,rev?*%
%TF.SameCoordinates,Original*%
%TF.FileFunction,Legend,Top*%
%TF.FilePolarity,Positive*%
%FSLAX46Y46*%
G04 Gerber Fmt 4.6, Leading zero omitted, Abs format (unit mm)*
G04 Created by KiCad (PCBNEW 8.0.3) date 2024-09-27 00:44:58*
%MOMM*%
%LPD*%
G01*
G04 APERTURE LIST*
%ADD10C,0.100000*%
%ADD11C,0.200000*%
%ADD12C,0.150000*%
%ADD13C,0.000000*%
%ADD14C,0.127000*%
%ADD15C,0.120000*%
G04 APERTURE END LIST*
D10*
G36*
X161229532Y-90532505D02*
G01*
X161275417Y-90530217D01*
X161319479Y-90523414D01*
X161361129Y-90512187D01*
X161399781Y-90496626D01*
X161434848Y-90476823D01*
X161465741Y-90452868D01*
X161499425Y-90414626D01*
X161523254Y-90369380D01*
X161533821Y-90330978D01*
X161537473Y-90288848D01*
X161532644Y-90240936D01*
X161518819Y-90199024D01*
X161496990Y-90163070D01*
X161468150Y-90133034D01*
X161433293Y-90108877D01*
X161393411Y-90090558D01*
X161376273Y-90084856D01*
X161376273Y-90079190D01*
X161414957Y-90060383D01*
X161447107Y-90037662D01*
X161477048Y-90005600D01*
X161497550Y-89968736D01*
X161508598Y-89927526D01*
X161510704Y-89897864D01*
X161507766Y-89858147D01*
X161495026Y-89810791D01*
X161472782Y-89769984D01*
X161441664Y-89735889D01*
X161402300Y-89708668D01*
X161355321Y-89688485D01*
X161315469Y-89678063D01*
X161271952Y-89671760D01*
X161225038Y-89669644D01*
X161179905Y-89672392D01*
X161136858Y-89680466D01*
X161095664Y-89693612D01*
X161056091Y-89711575D01*
X161017906Y-89734099D01*
X160980876Y-89760931D01*
X160966336Y-89772812D01*
X161067159Y-89893565D01*
X161099319Y-89868064D01*
X161135004Y-89845678D01*
X161171497Y-89831222D01*
X161210832Y-89825447D01*
X161216050Y-89825373D01*
X161256884Y-89831070D01*
X161292383Y-89853634D01*
X161309642Y-89892356D01*
X161311207Y-89912128D01*
X161304231Y-89951313D01*
X161281095Y-89982858D01*
X161245891Y-90002830D01*
X161204119Y-90013864D01*
X161161694Y-90018679D01*
X161124214Y-90019790D01*
X161124214Y-90159888D01*
X161169824Y-90161010D01*
X161220274Y-90165916D01*
X161259939Y-90174571D01*
X161296113Y-90190418D01*
X161325766Y-90221430D01*
X161336528Y-90261962D01*
X161336999Y-90275170D01*
X161327916Y-90316899D01*
X161302145Y-90346978D01*
X161261903Y-90365186D01*
X161216563Y-90371208D01*
X161209406Y-90371304D01*
X161167699Y-90366770D01*
X161128016Y-90353879D01*
X161090419Y-90333698D01*
X161054970Y-90307295D01*
X161035701Y-90289825D01*
X160943866Y-90416050D01*
X160974648Y-90447230D01*
X161010318Y-90474316D01*
X161051042Y-90496820D01*
X161096985Y-90514256D01*
X161137608Y-90524228D01*
X161181762Y-90530394D01*
X161229532Y-90532505D01*
G37*
G36*
X161838185Y-90520000D02*
G01*
X162077934Y-90520000D01*
X162328820Y-89682149D01*
X162125024Y-89682149D01*
X162030844Y-90063949D01*
X162020212Y-90106284D01*
X162010131Y-90148235D01*
X162000350Y-90189988D01*
X161990620Y-90231733D01*
X161980689Y-90273656D01*
X161970308Y-90315946D01*
X161965973Y-90333007D01*
X161960307Y-90333007D01*
X161949356Y-90290520D01*
X161939310Y-90248488D01*
X161929758Y-90206737D01*
X161920289Y-90165092D01*
X161910490Y-90123379D01*
X161899951Y-90081424D01*
X161895436Y-90064535D01*
X161800083Y-89682149D01*
X161588471Y-89682149D01*
X161838185Y-90520000D01*
G37*
G36*
X162630900Y-90532505D02*
G01*
X162676785Y-90530217D01*
X162720847Y-90523414D01*
X162762497Y-90512187D01*
X162801149Y-90496626D01*
X162836215Y-90476823D01*
X162867108Y-90452868D01*
X162900793Y-90414626D01*
X162924622Y-90369380D01*
X162935188Y-90330978D01*
X162938841Y-90288848D01*
X162934012Y-90240936D01*
X162920187Y-90199024D01*
X162898358Y-90163070D01*
X162869518Y-90133034D01*
X162834661Y-90108877D01*
X162794778Y-90090558D01*
X162777641Y-90084856D01*
X162777641Y-90079190D01*
X162816325Y-90060383D01*
X162848475Y-90037662D01*
X162878415Y-90005600D01*
X162898918Y-89968736D01*
X162909966Y-89927526D01*
X162912072Y-89897864D01*
X162909133Y-89858147D01*
X162896394Y-89810791D01*
X162874150Y-89769984D01*
X162843031Y-89735889D01*
X162803668Y-89708668D01*
X162756689Y-89688485D01*
X162716837Y-89678063D01*
X162673320Y-89671760D01*
X162626406Y-89669644D01*
X162581273Y-89672392D01*
X162538225Y-89680466D01*
X162497031Y-89693612D01*
X162457458Y-89711575D01*
X162419273Y-89734099D01*
X162382244Y-89760931D01*
X162367704Y-89772812D01*
X162468527Y-89893565D01*
X162500687Y-89868064D01*
X162536372Y-89845678D01*
X162572865Y-89831222D01*
X162612200Y-89825447D01*
X162617418Y-89825373D01*
X162658252Y-89831070D01*
X162693751Y-89853634D01*
X162711010Y-89892356D01*
X162712575Y-89912128D01*
X162705599Y-89951313D01*
X162682463Y-89982858D01*
X162647259Y-90002830D01*
X162605487Y-90013864D01*
X162563062Y-90018679D01*
X162525582Y-90019790D01*
X162525582Y-90159888D01*
X162571192Y-90161010D01*
X162621642Y-90165916D01*
X162661307Y-90174571D01*
X162697480Y-90190418D01*
X162727134Y-90221430D01*
X162737896Y-90261962D01*
X162738367Y-90275170D01*
X162729284Y-90316899D01*
X162703513Y-90346978D01*
X162663271Y-90365186D01*
X162617931Y-90371208D01*
X162610774Y-90371304D01*
X162569066Y-90366770D01*
X162529383Y-90353879D01*
X162491787Y-90333698D01*
X162456337Y-90307295D01*
X162437069Y-90289825D01*
X162345233Y-90416050D01*
X162376015Y-90447230D01*
X162411686Y-90474316D01*
X162452410Y-90496820D01*
X162498353Y-90514256D01*
X162538976Y-90524228D01*
X162583130Y-90530394D01*
X162630900Y-90532505D01*
G37*
G36*
X160355534Y-91501348D02*
G01*
X160448541Y-91501348D01*
X160448541Y-91652583D01*
X160355534Y-91652583D01*
X160355534Y-91864000D01*
X160169518Y-91864000D01*
X160169518Y-91652583D01*
X159820153Y-91652583D01*
X159820153Y-91514830D01*
X159828153Y-91501348D01*
X160010467Y-91501348D01*
X160169518Y-91501348D01*
X160169518Y-91378836D01*
X160169660Y-91363276D01*
X160170898Y-91322945D01*
X160172939Y-91279728D01*
X160175206Y-91237025D01*
X160177334Y-91193211D01*
X160172840Y-91193211D01*
X160156677Y-91228745D01*
X160140111Y-91264554D01*
X160123106Y-91300400D01*
X160105624Y-91336044D01*
X160010467Y-91501348D01*
X159828153Y-91501348D01*
X160110118Y-91026149D01*
X160355534Y-91026149D01*
X160355534Y-91501348D01*
G37*
G36*
X160833766Y-91014064D02*
G01*
X160880646Y-91020360D01*
X160924157Y-91034199D01*
X160963982Y-91055566D01*
X160999803Y-91084443D01*
X161031305Y-91120817D01*
X161058169Y-91164672D01*
X161080080Y-91215992D01*
X161091779Y-91254345D01*
X161101042Y-91296004D01*
X161107774Y-91340966D01*
X161111882Y-91389224D01*
X161113273Y-91440775D01*
X161112923Y-91467159D01*
X161110162Y-91517532D01*
X161104730Y-91564695D01*
X161096721Y-91608626D01*
X161086228Y-91649305D01*
X161073347Y-91686711D01*
X161049749Y-91736636D01*
X161021304Y-91779076D01*
X160988327Y-91813959D01*
X160951136Y-91841216D01*
X160910048Y-91860773D01*
X160865378Y-91872560D01*
X160817446Y-91876505D01*
X160801129Y-91876066D01*
X160754303Y-91869499D01*
X160710902Y-91855114D01*
X160671227Y-91832982D01*
X160635582Y-91803176D01*
X160604270Y-91765765D01*
X160577596Y-91720822D01*
X160555861Y-91668419D01*
X160544266Y-91629374D01*
X160535091Y-91587066D01*
X160528426Y-91541516D01*
X160524361Y-91492745D01*
X160522986Y-91440775D01*
X160711151Y-91440775D01*
X160711692Y-91481446D01*
X160714455Y-91535188D01*
X160719406Y-91580742D01*
X160729121Y-91629775D01*
X160745700Y-91674240D01*
X160775778Y-91710026D01*
X160817446Y-91721948D01*
X160833823Y-91720437D01*
X160868692Y-91702584D01*
X160893454Y-91666725D01*
X160906571Y-91629775D01*
X160916474Y-91580742D01*
X160921532Y-91535188D01*
X160924358Y-91481446D01*
X160924912Y-91440775D01*
X160924358Y-91400351D01*
X160921532Y-91347189D01*
X160916474Y-91302412D01*
X160906571Y-91254617D01*
X160889723Y-91211820D01*
X160859297Y-91178092D01*
X160817446Y-91167224D01*
X160811915Y-91167365D01*
X160771060Y-91181308D01*
X160745700Y-91211820D01*
X160729121Y-91254617D01*
X160719406Y-91302412D01*
X160714455Y-91347189D01*
X160711692Y-91400351D01*
X160711151Y-91440775D01*
X160522986Y-91440775D01*
X160524361Y-91388870D01*
X160528426Y-91340349D01*
X160535091Y-91295206D01*
X160544266Y-91253438D01*
X160562539Y-91197102D01*
X160585953Y-91148331D01*
X160614207Y-91107108D01*
X160646997Y-91073417D01*
X160684019Y-91047242D01*
X160724970Y-91028565D01*
X160769546Y-91017371D01*
X160817446Y-91013644D01*
X160833766Y-91014064D01*
G37*
G36*
X161239106Y-91864000D02*
G01*
X161437432Y-91864000D01*
X161437432Y-91440775D01*
X161468706Y-91412901D01*
X161504322Y-91391788D01*
X161539427Y-91384111D01*
X161578538Y-91392695D01*
X161603934Y-91427232D01*
X161611050Y-91466727D01*
X161612114Y-91496463D01*
X161612114Y-91864000D01*
X161812589Y-91864000D01*
X161812589Y-91440775D01*
X161843897Y-91412901D01*
X161879565Y-91391788D01*
X161914584Y-91384111D01*
X161953781Y-91392695D01*
X161979137Y-91427232D01*
X161986216Y-91466727D01*
X161987271Y-91496463D01*
X161987271Y-91864000D01*
X162186769Y-91864000D01*
X162186769Y-91472039D01*
X162185157Y-91429050D01*
X162180263Y-91389356D01*
X162168480Y-91341909D01*
X162150498Y-91301166D01*
X162126108Y-91267609D01*
X162095101Y-91241721D01*
X162057270Y-91223986D01*
X162012406Y-91214887D01*
X161987271Y-91213727D01*
X161942021Y-91218658D01*
X161901336Y-91232316D01*
X161864381Y-91253001D01*
X161830321Y-91279013D01*
X161798322Y-91308653D01*
X161787969Y-91319045D01*
X161767389Y-91284003D01*
X161736989Y-91251723D01*
X161698902Y-91229070D01*
X161659496Y-91217603D01*
X161613286Y-91213727D01*
X161567849Y-91218113D01*
X161527914Y-91230348D01*
X161492307Y-91249048D01*
X161459853Y-91272831D01*
X161429377Y-91300313D01*
X161419455Y-91310057D01*
X161414961Y-91310057D01*
X161401479Y-91226233D01*
X161239106Y-91226233D01*
X161239106Y-91864000D01*
G37*
G36*
X163009574Y-91864000D02*
G01*
X162798939Y-91864000D01*
X162750872Y-91668605D01*
X162504284Y-91668605D01*
X162456217Y-91864000D01*
X162252421Y-91864000D01*
X162360535Y-91513853D01*
X162542386Y-91513853D01*
X162712770Y-91513853D01*
X162694794Y-91443316D01*
X162690594Y-91427556D01*
X162680193Y-91386736D01*
X162669896Y-91344463D01*
X162659652Y-91301456D01*
X162649413Y-91258435D01*
X162639129Y-91216122D01*
X162628751Y-91175235D01*
X162624256Y-91175235D01*
X162620456Y-91191759D01*
X162610749Y-91233855D01*
X162600811Y-91276629D01*
X162590723Y-91319521D01*
X162580566Y-91361972D01*
X162570418Y-91403424D01*
X162560363Y-91443316D01*
X162542386Y-91513853D01*
X162360535Y-91513853D01*
X162511123Y-91026149D01*
X162750872Y-91026149D01*
X163009574Y-91864000D01*
G37*
G36*
X188275548Y-69997000D02*
G01*
X187801619Y-69997000D01*
X187693468Y-69557362D01*
X187138646Y-69557362D01*
X187030496Y-69997000D01*
X186571954Y-69997000D01*
X186815211Y-69209170D01*
X187224376Y-69209170D01*
X187607739Y-69209170D01*
X187567293Y-69050461D01*
X187557843Y-69015001D01*
X187534442Y-68923157D01*
X187511272Y-68828041D01*
X187488224Y-68731276D01*
X187465185Y-68634480D01*
X187442046Y-68539274D01*
X187418695Y-68447279D01*
X187408584Y-68447279D01*
X187400033Y-68484457D01*
X187378192Y-68579175D01*
X187355832Y-68675417D01*
X187333134Y-68771924D01*
X187310279Y-68867439D01*
X187287448Y-68960704D01*
X187264822Y-69050461D01*
X187224376Y-69209170D01*
X186815211Y-69209170D01*
X187154034Y-68111836D01*
X187693468Y-68111836D01*
X188275548Y-69997000D01*
G37*
G36*
X189514006Y-69181033D02*
G01*
X189723273Y-69181033D01*
X189723273Y-69521312D01*
X189514006Y-69521312D01*
X189514006Y-69997000D01*
X189095471Y-69997000D01*
X189095471Y-69521312D01*
X188309400Y-69521312D01*
X188309400Y-69211368D01*
X188327400Y-69181033D01*
X188737607Y-69181033D01*
X189095471Y-69181033D01*
X189095471Y-68905381D01*
X189095790Y-68870373D01*
X189098576Y-68779627D01*
X189103168Y-68682389D01*
X189108269Y-68586307D01*
X189113057Y-68487725D01*
X189102945Y-68487725D01*
X189066579Y-68567677D01*
X189029306Y-68648248D01*
X188991044Y-68728901D01*
X188951710Y-68809100D01*
X188737607Y-69181033D01*
X188327400Y-69181033D01*
X188961822Y-68111836D01*
X189514006Y-68111836D01*
X189514006Y-69181033D01*
G37*
G36*
X190533814Y-68084494D02*
G01*
X190632633Y-68096608D01*
X190728711Y-68123821D01*
X190820391Y-68166780D01*
X190906017Y-68226133D01*
X190983933Y-68302528D01*
X191052482Y-68396612D01*
X191110009Y-68509034D01*
X191141419Y-68594488D01*
X191166703Y-68688573D01*
X191185371Y-68791478D01*
X191196931Y-68903398D01*
X191200893Y-69024522D01*
X191199855Y-69087734D01*
X191191732Y-69207676D01*
X191175952Y-69319045D01*
X191153004Y-69421923D01*
X191123375Y-69516394D01*
X191087551Y-69602539D01*
X191023270Y-69716326D01*
X190947795Y-69811844D01*
X190862772Y-69889371D01*
X190769846Y-69949186D01*
X190670663Y-69991566D01*
X190566867Y-70016790D01*
X190460105Y-70025136D01*
X190436694Y-70024830D01*
X190347146Y-70017760D01*
X190244331Y-69997042D01*
X190151497Y-69965093D01*
X190068484Y-69924028D01*
X189981606Y-69865692D01*
X189908360Y-69800921D01*
X190142687Y-69531863D01*
X190175819Y-69563464D01*
X190250630Y-69613636D01*
X190337999Y-69649033D01*
X190429770Y-69662436D01*
X190447619Y-69662027D01*
X190548779Y-69641173D01*
X190637107Y-69584831D01*
X190698252Y-69506831D01*
X190737475Y-69421832D01*
X190766899Y-69314995D01*
X190781879Y-69219562D01*
X190790272Y-69110251D01*
X190763091Y-69142851D01*
X190688924Y-69207670D01*
X190605795Y-69255961D01*
X190521214Y-69286759D01*
X190432408Y-69299295D01*
X190346012Y-69294359D01*
X190238763Y-69272264D01*
X190142246Y-69232162D01*
X190058256Y-69173749D01*
X189988593Y-69096720D01*
X189935055Y-69000771D01*
X189906564Y-68916211D01*
X189888913Y-68820709D01*
X189882861Y-68714138D01*
X190291284Y-68714138D01*
X190291577Y-68732358D01*
X190304950Y-68826656D01*
X190349905Y-68915162D01*
X190429461Y-68969780D01*
X190518137Y-68984076D01*
X190569938Y-68978903D01*
X190657062Y-68944783D01*
X190731271Y-68882637D01*
X190782799Y-68810859D01*
X190779020Y-68782891D01*
X190759471Y-68683339D01*
X190726216Y-68584808D01*
X190675912Y-68500585D01*
X190607084Y-68442629D01*
X190510663Y-68419142D01*
X190467156Y-68423072D01*
X190380461Y-68462960D01*
X190323616Y-68538832D01*
X190298343Y-68623628D01*
X190291284Y-68714138D01*
X189882861Y-68714138D01*
X189890115Y-68607667D01*
X189911120Y-68509846D01*
X189944744Y-68421074D01*
X189989855Y-68341749D01*
X190045321Y-68272269D01*
X190133426Y-68195630D01*
X190235241Y-68138142D01*
X190318985Y-68108161D01*
X190407800Y-68089881D01*
X190500552Y-68083699D01*
X190533814Y-68084494D01*
G37*
G36*
X192130830Y-68084273D02*
G01*
X192220594Y-68092756D01*
X192329744Y-68119227D01*
X192425664Y-68162061D01*
X192507055Y-68220206D01*
X192572620Y-68292612D01*
X192621059Y-68378228D01*
X192651074Y-68476003D01*
X192661368Y-68584885D01*
X192660122Y-68617917D01*
X192642457Y-68712414D01*
X192606592Y-68799052D01*
X192555988Y-68876595D01*
X192494105Y-68943811D01*
X192424404Y-68999463D01*
X192424404Y-69011773D01*
X192473527Y-69039664D01*
X192549144Y-69093978D01*
X192615085Y-69158838D01*
X192669206Y-69235119D01*
X192709365Y-69323696D01*
X192733418Y-69425445D01*
X192739623Y-69516916D01*
X192727596Y-69621809D01*
X192692534Y-69718366D01*
X192635968Y-69804845D01*
X192559427Y-69879506D01*
X192464442Y-69940607D01*
X192382020Y-69976487D01*
X192290730Y-70003025D01*
X192191216Y-70019486D01*
X192084124Y-70025136D01*
X192016270Y-70022773D01*
X191919183Y-70010620D01*
X191828524Y-69988626D01*
X191719185Y-69944943D01*
X191624978Y-69886046D01*
X191548020Y-69813239D01*
X191490429Y-69727825D01*
X191454321Y-69631107D01*
X191441815Y-69524390D01*
X191443353Y-69481635D01*
X191445045Y-69471633D01*
X191824739Y-69471633D01*
X191826162Y-69499629D01*
X191851805Y-69585049D01*
X191914175Y-69657343D01*
X192002727Y-69700606D01*
X192094236Y-69712994D01*
X192163248Y-69705972D01*
X192249362Y-69668048D01*
X192305983Y-69595219D01*
X192323727Y-69499330D01*
X192319984Y-69455691D01*
X192283394Y-69369636D01*
X192210774Y-69299533D01*
X192122636Y-69246405D01*
X192032696Y-69203401D01*
X191950914Y-69167844D01*
X191917401Y-69204675D01*
X191868191Y-69283333D01*
X191836169Y-69373884D01*
X191824739Y-69471633D01*
X191445045Y-69471633D01*
X191459971Y-69383390D01*
X191493144Y-69296862D01*
X191540758Y-69221266D01*
X191600702Y-69155816D01*
X191670860Y-69099729D01*
X191749121Y-69052219D01*
X191749121Y-69039470D01*
X191709364Y-69008119D01*
X191638370Y-68939506D01*
X191580416Y-68862315D01*
X191537521Y-68775711D01*
X191511701Y-68678860D01*
X191504683Y-68589721D01*
X191897718Y-68589721D01*
X191909641Y-68666316D01*
X191960315Y-68750345D01*
X192034005Y-68810956D01*
X192116553Y-68856326D01*
X192197551Y-68891312D01*
X192210351Y-68875199D01*
X192260650Y-68791490D01*
X192289472Y-68704012D01*
X192298667Y-68614780D01*
X192290565Y-68544131D01*
X192249438Y-68461022D01*
X192176256Y-68409525D01*
X192086762Y-68394083D01*
X192049734Y-68397025D01*
X191968061Y-68430630D01*
X191913099Y-68502955D01*
X191897718Y-68589721D01*
X191504683Y-68589721D01*
X191507542Y-68532671D01*
X191529777Y-68427276D01*
X191572601Y-68334237D01*
X191634299Y-68254458D01*
X191713156Y-68188838D01*
X191807456Y-68138280D01*
X191915484Y-68103686D01*
X192004481Y-68088759D01*
X192099512Y-68083699D01*
X192130830Y-68084273D01*
G37*
G36*
X193664284Y-68084273D02*
G01*
X193754048Y-68092756D01*
X193863199Y-68119227D01*
X193959118Y-68162061D01*
X194040510Y-68220206D01*
X194106074Y-68292612D01*
X194154513Y-68378228D01*
X194184529Y-68476003D01*
X194194822Y-68584885D01*
X194193576Y-68617917D01*
X194175911Y-68712414D01*
X194140046Y-68799052D01*
X194089442Y-68876595D01*
X194027560Y-68943811D01*
X193957858Y-68999463D01*
X193957858Y-69011773D01*
X194006981Y-69039664D01*
X194082598Y-69093978D01*
X194148539Y-69158838D01*
X194202661Y-69235119D01*
X194242819Y-69323696D01*
X194266872Y-69425445D01*
X194273078Y-69516916D01*
X194261050Y-69621809D01*
X194225988Y-69718366D01*
X194169422Y-69804845D01*
X194092881Y-69879506D01*
X193997897Y-69940607D01*
X193915475Y-69976487D01*
X193824184Y-70003025D01*
X193724670Y-70019486D01*
X193617579Y-70025136D01*
X193549725Y-70022773D01*
X193452638Y-70010620D01*
X193361978Y-69988626D01*
X193252640Y-69944943D01*
X193158433Y-69886046D01*
X193081475Y-69813239D01*
X193023883Y-69727825D01*
X192987775Y-69631107D01*
X192975269Y-69524390D01*
X192976807Y-69481635D01*
X192978499Y-69471633D01*
X193358193Y-69471633D01*
X193359616Y-69499629D01*
X193385259Y-69585049D01*
X193447629Y-69657343D01*
X193536182Y-69700606D01*
X193627690Y-69712994D01*
X193696702Y-69705972D01*
X193782816Y-69668048D01*
X193839438Y-69595219D01*
X193857181Y-69499330D01*
X193853439Y-69455691D01*
X193816848Y-69369636D01*
X193744228Y-69299533D01*
X193656090Y-69246405D01*
X193566151Y-69203401D01*
X193484369Y-69167844D01*
X193450856Y-69204675D01*
X193401645Y-69283333D01*
X193369623Y-69373884D01*
X193358193Y-69471633D01*
X192978499Y-69471633D01*
X192993425Y-69383390D01*
X193026598Y-69296862D01*
X193074213Y-69221266D01*
X193134156Y-69155816D01*
X193204314Y-69099729D01*
X193282575Y-69052219D01*
X193282575Y-69039470D01*
X193242818Y-69008119D01*
X193171824Y-68939506D01*
X193113871Y-68862315D01*
X193070975Y-68775711D01*
X193045155Y-68678860D01*
X193038137Y-68589721D01*
X193431173Y-68589721D01*
X193443095Y-68666316D01*
X193493769Y-68750345D01*
X193567459Y-68810956D01*
X193650007Y-68856326D01*
X193731005Y-68891312D01*
X193743805Y-68875199D01*
X193794104Y-68791490D01*
X193822926Y-68704012D01*
X193832122Y-68614780D01*
X193824019Y-68544131D01*
X193782892Y-68461022D01*
X193709710Y-68409525D01*
X193620217Y-68394083D01*
X193583188Y-68397025D01*
X193501516Y-68430630D01*
X193446553Y-68502955D01*
X193431173Y-68589721D01*
X193038137Y-68589721D01*
X193040997Y-68532671D01*
X193063231Y-68427276D01*
X193106055Y-68334237D01*
X193167753Y-68254458D01*
X193246610Y-68188838D01*
X193340911Y-68138280D01*
X193448938Y-68103686D01*
X193537936Y-68088759D01*
X193632966Y-68083699D01*
X193664284Y-68084273D01*
G37*
G36*
X170780548Y-69997000D02*
G01*
X170306619Y-69997000D01*
X170198468Y-69557362D01*
X169643646Y-69557362D01*
X169535496Y-69997000D01*
X169076954Y-69997000D01*
X169320211Y-69209170D01*
X169729376Y-69209170D01*
X170112739Y-69209170D01*
X170072293Y-69050461D01*
X170062843Y-69015001D01*
X170039442Y-68923157D01*
X170016272Y-68828041D01*
X169993224Y-68731276D01*
X169970185Y-68634480D01*
X169947046Y-68539274D01*
X169923695Y-68447279D01*
X169913584Y-68447279D01*
X169905033Y-68484457D01*
X169883192Y-68579175D01*
X169860832Y-68675417D01*
X169838134Y-68771924D01*
X169815279Y-68867439D01*
X169792448Y-68960704D01*
X169769822Y-69050461D01*
X169729376Y-69209170D01*
X169320211Y-69209170D01*
X169659034Y-68111836D01*
X170198468Y-68111836D01*
X170780548Y-69997000D01*
G37*
G36*
X172019006Y-69181033D02*
G01*
X172228273Y-69181033D01*
X172228273Y-69521312D01*
X172019006Y-69521312D01*
X172019006Y-69997000D01*
X171600471Y-69997000D01*
X171600471Y-69521312D01*
X170814400Y-69521312D01*
X170814400Y-69211368D01*
X170832400Y-69181033D01*
X171242607Y-69181033D01*
X171600471Y-69181033D01*
X171600471Y-68905381D01*
X171600790Y-68870373D01*
X171603576Y-68779627D01*
X171608168Y-68682389D01*
X171613269Y-68586307D01*
X171618057Y-68487725D01*
X171607945Y-68487725D01*
X171571579Y-68567677D01*
X171534306Y-68648248D01*
X171496044Y-68728901D01*
X171456710Y-68809100D01*
X171242607Y-69181033D01*
X170832400Y-69181033D01*
X171466822Y-68111836D01*
X172019006Y-68111836D01*
X172019006Y-69181033D01*
G37*
G36*
X173038814Y-68084494D02*
G01*
X173137633Y-68096608D01*
X173233711Y-68123821D01*
X173325391Y-68166780D01*
X173411017Y-68226133D01*
X173488933Y-68302528D01*
X173557482Y-68396612D01*
X173615009Y-68509034D01*
X173646419Y-68594488D01*
X173671703Y-68688573D01*
X173690371Y-68791478D01*
X173701931Y-68903398D01*
X173705893Y-69024522D01*
X173704855Y-69087734D01*
X173696732Y-69207676D01*
X173680952Y-69319045D01*
X173658004Y-69421923D01*
X173628375Y-69516394D01*
X173592551Y-69602539D01*
X173528270Y-69716326D01*
X173452795Y-69811844D01*
X173367772Y-69889371D01*
X173274846Y-69949186D01*
X173175663Y-69991566D01*
X173071867Y-70016790D01*
X172965105Y-70025136D01*
X172941694Y-70024830D01*
X172852146Y-70017760D01*
X172749331Y-69997042D01*
X172656497Y-69965093D01*
X172573484Y-69924028D01*
X172486606Y-69865692D01*
X172413360Y-69800921D01*
X172647687Y-69531863D01*
X172680819Y-69563464D01*
X172755630Y-69613636D01*
X172842999Y-69649033D01*
X172934770Y-69662436D01*
X172952619Y-69662027D01*
X173053779Y-69641173D01*
X173142107Y-69584831D01*
X173203252Y-69506831D01*
X173242475Y-69421832D01*
X173271899Y-69314995D01*
X173286879Y-69219562D01*
X173295272Y-69110251D01*
X173268091Y-69142851D01*
X173193924Y-69207670D01*
X173110795Y-69255961D01*
X173026214Y-69286759D01*
X172937408Y-69299295D01*
X172851012Y-69294359D01*
X172743763Y-69272264D01*
X172647246Y-69232162D01*
X172563256Y-69173749D01*
X172493593Y-69096720D01*
X172440055Y-69000771D01*
X172411564Y-68916211D01*
X172393913Y-68820709D01*
X172387861Y-68714138D01*
X172796284Y-68714138D01*
X172796577Y-68732358D01*
X172809950Y-68826656D01*
X172854905Y-68915162D01*
X172934461Y-68969780D01*
X173023137Y-68984076D01*
X173074938Y-68978903D01*
X173162062Y-68944783D01*
X173236271Y-68882637D01*
X173287799Y-68810859D01*
X173284020Y-68782891D01*
X173264471Y-68683339D01*
X173231216Y-68584808D01*
X173180912Y-68500585D01*
X173112084Y-68442629D01*
X173015663Y-68419142D01*
X172972156Y-68423072D01*
X172885461Y-68462960D01*
X172828616Y-68538832D01*
X172803343Y-68623628D01*
X172796284Y-68714138D01*
X172387861Y-68714138D01*
X172395115Y-68607667D01*
X172416120Y-68509846D01*
X172449744Y-68421074D01*
X172494855Y-68341749D01*
X172550321Y-68272269D01*
X172638426Y-68195630D01*
X172740241Y-68138142D01*
X172823985Y-68108161D01*
X172912800Y-68089881D01*
X173005552Y-68083699D01*
X173038814Y-68084494D01*
G37*
G36*
X174635830Y-68084273D02*
G01*
X174725594Y-68092756D01*
X174834744Y-68119227D01*
X174930664Y-68162061D01*
X175012055Y-68220206D01*
X175077620Y-68292612D01*
X175126059Y-68378228D01*
X175156074Y-68476003D01*
X175166368Y-68584885D01*
X175165122Y-68617917D01*
X175147457Y-68712414D01*
X175111592Y-68799052D01*
X175060988Y-68876595D01*
X174999105Y-68943811D01*
X174929404Y-68999463D01*
X174929404Y-69011773D01*
X174978527Y-69039664D01*
X175054144Y-69093978D01*
X175120085Y-69158838D01*
X175174206Y-69235119D01*
X175214365Y-69323696D01*
X175238418Y-69425445D01*
X175244623Y-69516916D01*
X175232596Y-69621809D01*
X175197534Y-69718366D01*
X175140968Y-69804845D01*
X175064427Y-69879506D01*
X174969442Y-69940607D01*
X174887020Y-69976487D01*
X174795730Y-70003025D01*
X174696216Y-70019486D01*
X174589124Y-70025136D01*
X174521270Y-70022773D01*
X174424183Y-70010620D01*
X174333524Y-69988626D01*
X174224185Y-69944943D01*
X174129978Y-69886046D01*
X174053020Y-69813239D01*
X173995429Y-69727825D01*
X173959321Y-69631107D01*
X173946815Y-69524390D01*
X173948353Y-69481635D01*
X173950045Y-69471633D01*
X174329739Y-69471633D01*
X174331162Y-69499629D01*
X174356805Y-69585049D01*
X174419175Y-69657343D01*
X174507727Y-69700606D01*
X174599236Y-69712994D01*
X174668248Y-69705972D01*
X174754362Y-69668048D01*
X174810983Y-69595219D01*
X174828727Y-69499330D01*
X174824984Y-69455691D01*
X174788394Y-69369636D01*
X174715774Y-69299533D01*
X174627636Y-69246405D01*
X174537696Y-69203401D01*
X174455914Y-69167844D01*
X174422401Y-69204675D01*
X174373191Y-69283333D01*
X174341169Y-69373884D01*
X174329739Y-69471633D01*
X173950045Y-69471633D01*
X173964971Y-69383390D01*
X173998144Y-69296862D01*
X174045758Y-69221266D01*
X174105702Y-69155816D01*
X174175860Y-69099729D01*
X174254121Y-69052219D01*
X174254121Y-69039470D01*
X174214364Y-69008119D01*
X174143370Y-68939506D01*
X174085416Y-68862315D01*
X174042521Y-68775711D01*
X174016701Y-68678860D01*
X174009683Y-68589721D01*
X174402718Y-68589721D01*
X174414641Y-68666316D01*
X174465315Y-68750345D01*
X174539005Y-68810956D01*
X174621553Y-68856326D01*
X174702551Y-68891312D01*
X174715351Y-68875199D01*
X174765650Y-68791490D01*
X174794472Y-68704012D01*
X174803667Y-68614780D01*
X174795565Y-68544131D01*
X174754438Y-68461022D01*
X174681256Y-68409525D01*
X174591762Y-68394083D01*
X174554734Y-68397025D01*
X174473061Y-68430630D01*
X174418099Y-68502955D01*
X174402718Y-68589721D01*
X174009683Y-68589721D01*
X174012542Y-68532671D01*
X174034777Y-68427276D01*
X174077601Y-68334237D01*
X174139299Y-68254458D01*
X174218156Y-68188838D01*
X174312456Y-68138280D01*
X174420484Y-68103686D01*
X174509481Y-68088759D01*
X174604512Y-68083699D01*
X174635830Y-68084273D01*
G37*
G36*
X176169284Y-68084273D02*
G01*
X176259048Y-68092756D01*
X176368199Y-68119227D01*
X176464118Y-68162061D01*
X176545510Y-68220206D01*
X176611074Y-68292612D01*
X176659513Y-68378228D01*
X176689529Y-68476003D01*
X176699822Y-68584885D01*
X176698576Y-68617917D01*
X176680911Y-68712414D01*
X176645046Y-68799052D01*
X176594442Y-68876595D01*
X176532560Y-68943811D01*
X176462858Y-68999463D01*
X176462858Y-69011773D01*
X176511981Y-69039664D01*
X176587598Y-69093978D01*
X176653539Y-69158838D01*
X176707661Y-69235119D01*
X176747819Y-69323696D01*
X176771872Y-69425445D01*
X176778078Y-69516916D01*
X176766050Y-69621809D01*
X176730988Y-69718366D01*
X176674422Y-69804845D01*
X176597881Y-69879506D01*
X176502897Y-69940607D01*
X176420475Y-69976487D01*
X176329184Y-70003025D01*
X176229670Y-70019486D01*
X176122579Y-70025136D01*
X176054725Y-70022773D01*
X175957638Y-70010620D01*
X175866978Y-69988626D01*
X175757640Y-69944943D01*
X175663433Y-69886046D01*
X175586475Y-69813239D01*
X175528883Y-69727825D01*
X175492775Y-69631107D01*
X175480269Y-69524390D01*
X175481807Y-69481635D01*
X175483499Y-69471633D01*
X175863193Y-69471633D01*
X175864616Y-69499629D01*
X175890259Y-69585049D01*
X175952629Y-69657343D01*
X176041182Y-69700606D01*
X176132690Y-69712994D01*
X176201702Y-69705972D01*
X176287816Y-69668048D01*
X176344438Y-69595219D01*
X176362181Y-69499330D01*
X176358439Y-69455691D01*
X176321848Y-69369636D01*
X176249228Y-69299533D01*
X176161090Y-69246405D01*
X176071151Y-69203401D01*
X175989369Y-69167844D01*
X175955856Y-69204675D01*
X175906645Y-69283333D01*
X175874623Y-69373884D01*
X175863193Y-69471633D01*
X175483499Y-69471633D01*
X175498425Y-69383390D01*
X175531598Y-69296862D01*
X175579213Y-69221266D01*
X175639156Y-69155816D01*
X175709314Y-69099729D01*
X175787575Y-69052219D01*
X175787575Y-69039470D01*
X175747818Y-69008119D01*
X175676824Y-68939506D01*
X175618871Y-68862315D01*
X175575975Y-68775711D01*
X175550155Y-68678860D01*
X175543137Y-68589721D01*
X175936173Y-68589721D01*
X175948095Y-68666316D01*
X175998769Y-68750345D01*
X176072459Y-68810956D01*
X176155007Y-68856326D01*
X176236005Y-68891312D01*
X176248805Y-68875199D01*
X176299104Y-68791490D01*
X176327926Y-68704012D01*
X176337122Y-68614780D01*
X176329019Y-68544131D01*
X176287892Y-68461022D01*
X176214710Y-68409525D01*
X176125217Y-68394083D01*
X176088188Y-68397025D01*
X176006516Y-68430630D01*
X175951553Y-68502955D01*
X175936173Y-68589721D01*
X175543137Y-68589721D01*
X175545997Y-68532671D01*
X175568231Y-68427276D01*
X175611055Y-68334237D01*
X175672753Y-68254458D01*
X175751610Y-68188838D01*
X175845911Y-68138280D01*
X175953938Y-68103686D01*
X176042936Y-68088759D01*
X176137966Y-68083699D01*
X176169284Y-68084273D01*
G37*
G36*
X153285548Y-69997000D02*
G01*
X152811619Y-69997000D01*
X152703468Y-69557362D01*
X152148646Y-69557362D01*
X152040496Y-69997000D01*
X151581954Y-69997000D01*
X151825211Y-69209170D01*
X152234376Y-69209170D01*
X152617739Y-69209170D01*
X152577293Y-69050461D01*
X152567843Y-69015001D01*
X152544442Y-68923157D01*
X152521272Y-68828041D01*
X152498224Y-68731276D01*
X152475185Y-68634480D01*
X152452046Y-68539274D01*
X152428695Y-68447279D01*
X152418584Y-68447279D01*
X152410033Y-68484457D01*
X152388192Y-68579175D01*
X152365832Y-68675417D01*
X152343134Y-68771924D01*
X152320279Y-68867439D01*
X152297448Y-68960704D01*
X152274822Y-69050461D01*
X152234376Y-69209170D01*
X151825211Y-69209170D01*
X152164034Y-68111836D01*
X152703468Y-68111836D01*
X153285548Y-69997000D01*
G37*
G36*
X154524006Y-69181033D02*
G01*
X154733273Y-69181033D01*
X154733273Y-69521312D01*
X154524006Y-69521312D01*
X154524006Y-69997000D01*
X154105471Y-69997000D01*
X154105471Y-69521312D01*
X153319400Y-69521312D01*
X153319400Y-69211368D01*
X153337400Y-69181033D01*
X153747607Y-69181033D01*
X154105471Y-69181033D01*
X154105471Y-68905381D01*
X154105790Y-68870373D01*
X154108576Y-68779627D01*
X154113168Y-68682389D01*
X154118269Y-68586307D01*
X154123057Y-68487725D01*
X154112945Y-68487725D01*
X154076579Y-68567677D01*
X154039306Y-68648248D01*
X154001044Y-68728901D01*
X153961710Y-68809100D01*
X153747607Y-69181033D01*
X153337400Y-69181033D01*
X153971822Y-68111836D01*
X154524006Y-68111836D01*
X154524006Y-69181033D01*
G37*
G36*
X155543814Y-68084494D02*
G01*
X155642633Y-68096608D01*
X155738711Y-68123821D01*
X155830391Y-68166780D01*
X155916017Y-68226133D01*
X155993933Y-68302528D01*
X156062482Y-68396612D01*
X156120009Y-68509034D01*
X156151419Y-68594488D01*
X156176703Y-68688573D01*
X156195371Y-68791478D01*
X156206931Y-68903398D01*
X156210893Y-69024522D01*
X156209855Y-69087734D01*
X156201732Y-69207676D01*
X156185952Y-69319045D01*
X156163004Y-69421923D01*
X156133375Y-69516394D01*
X156097551Y-69602539D01*
X156033270Y-69716326D01*
X155957795Y-69811844D01*
X155872772Y-69889371D01*
X155779846Y-69949186D01*
X155680663Y-69991566D01*
X155576867Y-70016790D01*
X155470105Y-70025136D01*
X155446694Y-70024830D01*
X155357146Y-70017760D01*
X155254331Y-69997042D01*
X155161497Y-69965093D01*
X155078484Y-69924028D01*
X154991606Y-69865692D01*
X154918360Y-69800921D01*
X155152687Y-69531863D01*
X155185819Y-69563464D01*
X155260630Y-69613636D01*
X155347999Y-69649033D01*
X155439770Y-69662436D01*
X155457619Y-69662027D01*
X155558779Y-69641173D01*
X155647107Y-69584831D01*
X155708252Y-69506831D01*
X155747475Y-69421832D01*
X155776899Y-69314995D01*
X155791879Y-69219562D01*
X155800272Y-69110251D01*
X155773091Y-69142851D01*
X155698924Y-69207670D01*
X155615795Y-69255961D01*
X155531214Y-69286759D01*
X155442408Y-69299295D01*
X155356012Y-69294359D01*
X155248763Y-69272264D01*
X155152246Y-69232162D01*
X155068256Y-69173749D01*
X154998593Y-69096720D01*
X154945055Y-69000771D01*
X154916564Y-68916211D01*
X154898913Y-68820709D01*
X154892861Y-68714138D01*
X155301284Y-68714138D01*
X155301577Y-68732358D01*
X155314950Y-68826656D01*
X155359905Y-68915162D01*
X155439461Y-68969780D01*
X155528137Y-68984076D01*
X155579938Y-68978903D01*
X155667062Y-68944783D01*
X155741271Y-68882637D01*
X155792799Y-68810859D01*
X155789020Y-68782891D01*
X155769471Y-68683339D01*
X155736216Y-68584808D01*
X155685912Y-68500585D01*
X155617084Y-68442629D01*
X155520663Y-68419142D01*
X155477156Y-68423072D01*
X155390461Y-68462960D01*
X155333616Y-68538832D01*
X155308343Y-68623628D01*
X155301284Y-68714138D01*
X154892861Y-68714138D01*
X154900115Y-68607667D01*
X154921120Y-68509846D01*
X154954744Y-68421074D01*
X154999855Y-68341749D01*
X155055321Y-68272269D01*
X155143426Y-68195630D01*
X155245241Y-68138142D01*
X155328985Y-68108161D01*
X155417800Y-68089881D01*
X155510552Y-68083699D01*
X155543814Y-68084494D01*
G37*
G36*
X157140830Y-68084273D02*
G01*
X157230594Y-68092756D01*
X157339744Y-68119227D01*
X157435664Y-68162061D01*
X157517055Y-68220206D01*
X157582620Y-68292612D01*
X157631059Y-68378228D01*
X157661074Y-68476003D01*
X157671368Y-68584885D01*
X157670122Y-68617917D01*
X157652457Y-68712414D01*
X157616592Y-68799052D01*
X157565988Y-68876595D01*
X157504105Y-68943811D01*
X157434404Y-68999463D01*
X157434404Y-69011773D01*
X157483527Y-69039664D01*
X157559144Y-69093978D01*
X157625085Y-69158838D01*
X157679206Y-69235119D01*
X157719365Y-69323696D01*
X157743418Y-69425445D01*
X157749623Y-69516916D01*
X157737596Y-69621809D01*
X157702534Y-69718366D01*
X157645968Y-69804845D01*
X157569427Y-69879506D01*
X157474442Y-69940607D01*
X157392020Y-69976487D01*
X157300730Y-70003025D01*
X157201216Y-70019486D01*
X157094124Y-70025136D01*
X157026270Y-70022773D01*
X156929183Y-70010620D01*
X156838524Y-69988626D01*
X156729185Y-69944943D01*
X156634978Y-69886046D01*
X156558020Y-69813239D01*
X156500429Y-69727825D01*
X156464321Y-69631107D01*
X156451815Y-69524390D01*
X156453353Y-69481635D01*
X156455045Y-69471633D01*
X156834739Y-69471633D01*
X156836162Y-69499629D01*
X156861805Y-69585049D01*
X156924175Y-69657343D01*
X157012727Y-69700606D01*
X157104236Y-69712994D01*
X157173248Y-69705972D01*
X157259362Y-69668048D01*
X157315983Y-69595219D01*
X157333727Y-69499330D01*
X157329984Y-69455691D01*
X157293394Y-69369636D01*
X157220774Y-69299533D01*
X157132636Y-69246405D01*
X157042696Y-69203401D01*
X156960914Y-69167844D01*
X156927401Y-69204675D01*
X156878191Y-69283333D01*
X156846169Y-69373884D01*
X156834739Y-69471633D01*
X156455045Y-69471633D01*
X156469971Y-69383390D01*
X156503144Y-69296862D01*
X156550758Y-69221266D01*
X156610702Y-69155816D01*
X156680860Y-69099729D01*
X156759121Y-69052219D01*
X156759121Y-69039470D01*
X156719364Y-69008119D01*
X156648370Y-68939506D01*
X156590416Y-68862315D01*
X156547521Y-68775711D01*
X156521701Y-68678860D01*
X156514683Y-68589721D01*
X156907718Y-68589721D01*
X156919641Y-68666316D01*
X156970315Y-68750345D01*
X157044005Y-68810956D01*
X157126553Y-68856326D01*
X157207551Y-68891312D01*
X157220351Y-68875199D01*
X157270650Y-68791490D01*
X157299472Y-68704012D01*
X157308667Y-68614780D01*
X157300565Y-68544131D01*
X157259438Y-68461022D01*
X157186256Y-68409525D01*
X157096762Y-68394083D01*
X157059734Y-68397025D01*
X156978061Y-68430630D01*
X156923099Y-68502955D01*
X156907718Y-68589721D01*
X156514683Y-68589721D01*
X156517542Y-68532671D01*
X156539777Y-68427276D01*
X156582601Y-68334237D01*
X156644299Y-68254458D01*
X156723156Y-68188838D01*
X156817456Y-68138280D01*
X156925484Y-68103686D01*
X157014481Y-68088759D01*
X157109512Y-68083699D01*
X157140830Y-68084273D01*
G37*
G36*
X158674284Y-68084273D02*
G01*
X158764048Y-68092756D01*
X158873199Y-68119227D01*
X158969118Y-68162061D01*
X159050510Y-68220206D01*
X159116074Y-68292612D01*
X159164513Y-68378228D01*
X159194529Y-68476003D01*
X159204822Y-68584885D01*
X159203576Y-68617917D01*
X159185911Y-68712414D01*
X159150046Y-68799052D01*
X159099442Y-68876595D01*
X159037560Y-68943811D01*
X158967858Y-68999463D01*
X158967858Y-69011773D01*
X159016981Y-69039664D01*
X159092598Y-69093978D01*
X159158539Y-69158838D01*
X159212661Y-69235119D01*
X159252819Y-69323696D01*
X159276872Y-69425445D01*
X159283078Y-69516916D01*
X159271050Y-69621809D01*
X159235988Y-69718366D01*
X159179422Y-69804845D01*
X159102881Y-69879506D01*
X159007897Y-69940607D01*
X158925475Y-69976487D01*
X158834184Y-70003025D01*
X158734670Y-70019486D01*
X158627579Y-70025136D01*
X158559725Y-70022773D01*
X158462638Y-70010620D01*
X158371978Y-69988626D01*
X158262640Y-69944943D01*
X158168433Y-69886046D01*
X158091475Y-69813239D01*
X158033883Y-69727825D01*
X157997775Y-69631107D01*
X157985269Y-69524390D01*
X157986807Y-69481635D01*
X157988499Y-69471633D01*
X158368193Y-69471633D01*
X158369616Y-69499629D01*
X158395259Y-69585049D01*
X158457629Y-69657343D01*
X158546182Y-69700606D01*
X158637690Y-69712994D01*
X158706702Y-69705972D01*
X158792816Y-69668048D01*
X158849438Y-69595219D01*
X158867181Y-69499330D01*
X158863439Y-69455691D01*
X158826848Y-69369636D01*
X158754228Y-69299533D01*
X158666090Y-69246405D01*
X158576151Y-69203401D01*
X158494369Y-69167844D01*
X158460856Y-69204675D01*
X158411645Y-69283333D01*
X158379623Y-69373884D01*
X158368193Y-69471633D01*
X157988499Y-69471633D01*
X158003425Y-69383390D01*
X158036598Y-69296862D01*
X158084213Y-69221266D01*
X158144156Y-69155816D01*
X158214314Y-69099729D01*
X158292575Y-69052219D01*
X158292575Y-69039470D01*
X158252818Y-69008119D01*
X158181824Y-68939506D01*
X158123871Y-68862315D01*
X158080975Y-68775711D01*
X158055155Y-68678860D01*
X158048137Y-68589721D01*
X158441173Y-68589721D01*
X158453095Y-68666316D01*
X158503769Y-68750345D01*
X158577459Y-68810956D01*
X158660007Y-68856326D01*
X158741005Y-68891312D01*
X158753805Y-68875199D01*
X158804104Y-68791490D01*
X158832926Y-68704012D01*
X158842122Y-68614780D01*
X158834019Y-68544131D01*
X158792892Y-68461022D01*
X158719710Y-68409525D01*
X158630217Y-68394083D01*
X158593188Y-68397025D01*
X158511516Y-68430630D01*
X158456553Y-68502955D01*
X158441173Y-68589721D01*
X158048137Y-68589721D01*
X158050997Y-68532671D01*
X158073231Y-68427276D01*
X158116055Y-68334237D01*
X158177753Y-68254458D01*
X158256610Y-68188838D01*
X158350911Y-68138280D01*
X158458938Y-68103686D01*
X158547936Y-68088759D01*
X158642966Y-68083699D01*
X158674284Y-68084273D01*
G37*
D11*
G36*
X173833174Y-86037701D02*
G01*
X173930663Y-86046816D01*
X174020436Y-86062958D01*
X174125912Y-86096759D01*
X174212341Y-86146280D01*
X174276680Y-86213367D01*
X174315884Y-86299865D01*
X174326907Y-86407617D01*
X174314850Y-86503489D01*
X174297065Y-86568768D01*
X174255550Y-86665322D01*
X174208947Y-86740989D01*
X174152974Y-86808865D01*
X174075478Y-86875496D01*
X173989079Y-86920704D01*
X173986881Y-86930816D01*
X174063651Y-86961204D01*
X174140291Y-87015648D01*
X174196374Y-87090248D01*
X174228025Y-87185578D01*
X174232939Y-87281268D01*
X174221207Y-87368695D01*
X174203210Y-87437555D01*
X174164890Y-87531772D01*
X174113984Y-87615269D01*
X174051618Y-87688235D01*
X173978923Y-87750858D01*
X173897024Y-87803328D01*
X173807051Y-87845834D01*
X173710131Y-87878565D01*
X173607393Y-87901710D01*
X173499965Y-87915459D01*
X173388974Y-87920000D01*
X172696106Y-87920000D01*
X172767817Y-87574884D01*
X173209602Y-87574884D01*
X173428981Y-87574884D01*
X173521889Y-87569229D01*
X173616334Y-87547397D01*
X173702822Y-87500916D01*
X173763552Y-87431494D01*
X173798276Y-87338799D01*
X173804283Y-87286166D01*
X173775142Y-87197287D01*
X173700079Y-87149833D01*
X173613704Y-87131835D01*
X173522184Y-87127334D01*
X173302805Y-87127334D01*
X173209602Y-87574884D01*
X172767817Y-87574884D01*
X172929967Y-86794528D01*
X173371828Y-86794528D01*
X173554278Y-86794528D01*
X173604599Y-86792288D01*
X173692028Y-86774931D01*
X173772228Y-86734683D01*
X173835948Y-86665255D01*
X173870816Y-86574270D01*
X173873097Y-86484955D01*
X173820461Y-86412811D01*
X173733158Y-86383983D01*
X173640886Y-86377752D01*
X173458437Y-86377752D01*
X173371828Y-86794528D01*
X172929967Y-86794528D01*
X173087823Y-86034836D01*
X173729253Y-86034836D01*
X173833174Y-86037701D01*
G37*
G36*
X175403328Y-86462374D02*
G01*
X175515236Y-86486953D01*
X175607185Y-86531613D01*
X175678557Y-86596734D01*
X175728733Y-86682697D01*
X175757097Y-86789884D01*
X175763682Y-86884431D01*
X175757388Y-86991292D01*
X175737955Y-87110628D01*
X175569574Y-87920000D01*
X175212149Y-87920000D01*
X175211270Y-87769204D01*
X175201598Y-87769204D01*
X175123144Y-87825061D01*
X175043027Y-87872380D01*
X174961160Y-87909580D01*
X174863319Y-87938078D01*
X174762840Y-87948136D01*
X174715957Y-87945873D01*
X174613526Y-87921633D01*
X174532615Y-87873832D01*
X174473737Y-87806204D01*
X174437405Y-87722481D01*
X174424132Y-87626399D01*
X174434431Y-87521688D01*
X174439805Y-87500931D01*
X174857380Y-87500931D01*
X174895798Y-87580616D01*
X174984857Y-87600383D01*
X175070577Y-87586149D01*
X175148953Y-87545733D01*
X175220502Y-87489155D01*
X175267104Y-87263621D01*
X175192542Y-87275113D01*
X175087704Y-87298950D01*
X174991383Y-87334627D01*
X174907048Y-87392686D01*
X174860440Y-87479043D01*
X174857380Y-87500931D01*
X174439805Y-87500931D01*
X174448611Y-87466914D01*
X174491735Y-87366863D01*
X174555449Y-87279127D01*
X174640840Y-87203291D01*
X174719762Y-87153970D01*
X174811948Y-87110932D01*
X174917856Y-87074000D01*
X175037945Y-87042998D01*
X175126108Y-87025538D01*
X175220914Y-87010583D01*
X175322498Y-86998080D01*
X175324359Y-86977045D01*
X175307475Y-86882563D01*
X175237614Y-86827570D01*
X175147962Y-86815191D01*
X175105721Y-86817275D01*
X175016416Y-86833623D01*
X174931876Y-86860686D01*
X174840149Y-86899050D01*
X174754927Y-86940488D01*
X174663482Y-86645931D01*
X174702637Y-86625116D01*
X174801214Y-86577318D01*
X174900724Y-86536271D01*
X175001095Y-86502839D01*
X175102257Y-86477887D01*
X175204139Y-86462281D01*
X175306671Y-86456887D01*
X175403328Y-86462374D01*
G37*
G36*
X176692847Y-86396657D02*
G01*
X176638332Y-86610760D01*
X176673559Y-86584818D01*
X176758783Y-86532603D01*
X176846523Y-86493058D01*
X176934654Y-86467452D01*
X177033126Y-86456887D01*
X177150178Y-86470086D01*
X177249579Y-86508565D01*
X177330577Y-86570651D01*
X177392420Y-86654669D01*
X177434355Y-86758944D01*
X177452290Y-86849438D01*
X177458287Y-86949678D01*
X177452028Y-87058959D01*
X177433196Y-87176573D01*
X177411273Y-87265875D01*
X177384037Y-87350213D01*
X177334154Y-87467174D01*
X177274715Y-87572348D01*
X177207159Y-87665363D01*
X177132924Y-87745848D01*
X177053449Y-87813431D01*
X176970174Y-87867741D01*
X176884537Y-87908405D01*
X176797977Y-87935053D01*
X176683615Y-87948136D01*
X176672058Y-87947952D01*
X176581851Y-87933217D01*
X176497094Y-87894907D01*
X176419849Y-87833021D01*
X176360042Y-87759532D01*
X176350370Y-87759532D01*
X176282666Y-87920000D01*
X175939749Y-87920000D01*
X176027286Y-87498827D01*
X176463796Y-87498827D01*
X176490932Y-87524732D01*
X176568240Y-87567220D01*
X176655918Y-87580600D01*
X176730237Y-87568434D01*
X176812810Y-87521361D01*
X176876803Y-87450166D01*
X176923183Y-87367307D01*
X176954557Y-87284647D01*
X176979930Y-87186685D01*
X176994565Y-87099853D01*
X176999661Y-87008419D01*
X176981799Y-86911692D01*
X176915169Y-86839492D01*
X176828695Y-86822665D01*
X176738795Y-86838662D01*
X176654591Y-86882837D01*
X176579860Y-86941367D01*
X176463796Y-87498827D01*
X176027286Y-87498827D01*
X176356964Y-85912616D01*
X176793524Y-85912616D01*
X176692847Y-86396657D01*
G37*
G36*
X177598060Y-87920000D02*
G01*
X178034620Y-87920000D01*
X178333133Y-86485024D01*
X177896574Y-86485024D01*
X177598060Y-87920000D01*
G37*
G36*
X178156839Y-86288066D02*
G01*
X178248353Y-86274969D01*
X178328847Y-86238071D01*
X178401466Y-86171362D01*
X178446861Y-86083613D01*
X178453154Y-86059016D01*
X178454164Y-85965249D01*
X178411139Y-85884358D01*
X178327629Y-85836630D01*
X178252680Y-85826887D01*
X178159780Y-85840066D01*
X178078466Y-85877282D01*
X178005352Y-85944786D01*
X177959658Y-86033949D01*
X177953287Y-86059016D01*
X177952572Y-86151188D01*
X177996092Y-86231066D01*
X178080664Y-86278381D01*
X178156839Y-86288066D01*
G37*
G36*
X179370824Y-86460355D02*
G01*
X179468166Y-86478083D01*
X179551718Y-86509925D01*
X179642133Y-86572552D01*
X179709142Y-86655988D01*
X179753380Y-86757785D01*
X179771995Y-86844711D01*
X179778426Y-86939556D01*
X179772938Y-87041289D01*
X179755799Y-87148876D01*
X179752630Y-87163562D01*
X179728097Y-87255210D01*
X179696008Y-87340118D01*
X178872568Y-87340118D01*
X178877978Y-87405552D01*
X178911978Y-87496246D01*
X178985032Y-87565108D01*
X179074785Y-87597278D01*
X179168004Y-87605659D01*
X179215187Y-87603534D01*
X179310496Y-87586532D01*
X179399164Y-87556694D01*
X179481905Y-87518611D01*
X179571591Y-87784591D01*
X179490835Y-87830679D01*
X179406357Y-87869472D01*
X179319906Y-87900758D01*
X179233234Y-87924326D01*
X179131400Y-87942123D01*
X179034794Y-87948136D01*
X178961246Y-87944913D01*
X178858114Y-87928201D01*
X178764486Y-87897640D01*
X178681348Y-87853684D01*
X178609688Y-87796789D01*
X178550493Y-87727407D01*
X178504748Y-87645993D01*
X178473441Y-87553002D01*
X178457559Y-87448888D01*
X178458088Y-87334104D01*
X178476015Y-87209106D01*
X178497444Y-87124079D01*
X178525398Y-87047759D01*
X178926204Y-87047759D01*
X179404089Y-87047759D01*
X179413203Y-86960301D01*
X179390460Y-86870366D01*
X179322649Y-86814233D01*
X179234389Y-86799804D01*
X179189086Y-86803480D01*
X179100788Y-86833398D01*
X179029691Y-86885140D01*
X178968283Y-86961698D01*
X178926204Y-87047759D01*
X178525398Y-87047759D01*
X178541178Y-87004677D01*
X178597362Y-86895528D01*
X178664356Y-86797177D01*
X178740518Y-86710169D01*
X178824208Y-86635051D01*
X178913785Y-86572367D01*
X179007607Y-86522663D01*
X179104034Y-86486484D01*
X179201424Y-86464377D01*
X179298137Y-86456887D01*
X179370824Y-86460355D01*
G37*
G36*
X180322491Y-87948136D02*
G01*
X180426157Y-87942877D01*
X180522329Y-87927581D01*
X180610746Y-87902966D01*
X180716121Y-87856893D01*
X180806628Y-87797239D01*
X180881647Y-87725708D01*
X180940562Y-87644006D01*
X180982753Y-87553837D01*
X181003049Y-87481681D01*
X181012832Y-87392875D01*
X180999431Y-87300017D01*
X180952998Y-87211597D01*
X180882404Y-87143811D01*
X180797127Y-87091929D01*
X180721682Y-87057431D01*
X180636430Y-87025423D01*
X180553970Y-86989940D01*
X180487292Y-86931325D01*
X180483398Y-86889050D01*
X180535990Y-86812828D01*
X180625624Y-86787969D01*
X180652219Y-86787055D01*
X180746851Y-86803451D01*
X180829815Y-86842790D01*
X180902331Y-86893411D01*
X180918199Y-86906196D01*
X181170551Y-86641095D01*
X181097142Y-86581176D01*
X181010526Y-86527465D01*
X180923513Y-86490597D01*
X180822728Y-86465900D01*
X180726866Y-86457151D01*
X180706294Y-86456887D01*
X180616643Y-86461663D01*
X180504007Y-86482300D01*
X180400631Y-86518187D01*
X180308013Y-86568170D01*
X180227654Y-86631095D01*
X180161051Y-86705808D01*
X180109705Y-86791154D01*
X180075114Y-86885980D01*
X180069260Y-86911032D01*
X180061901Y-87011981D01*
X180088150Y-87112349D01*
X180143669Y-87192784D01*
X180218929Y-87256173D01*
X180304402Y-87305403D01*
X180347990Y-87325610D01*
X180431980Y-87361246D01*
X180515327Y-87400819D01*
X180584435Y-87463578D01*
X180588911Y-87506741D01*
X180538545Y-87584915D01*
X180450808Y-87615374D01*
X180400747Y-87618408D01*
X180308270Y-87606619D01*
X180217208Y-87571252D01*
X180136740Y-87520021D01*
X180076294Y-87469371D01*
X179823943Y-87746782D01*
X179897252Y-87810259D01*
X179984391Y-87863622D01*
X180081291Y-87905289D01*
X180166561Y-87929934D01*
X180253429Y-87944443D01*
X180322491Y-87948136D01*
G37*
G36*
X174052826Y-90944000D02*
G01*
X174494661Y-90944000D01*
X174644578Y-90222555D01*
X175270621Y-90222555D01*
X175348876Y-89846665D01*
X174722833Y-89846665D01*
X174809002Y-89432087D01*
X175538360Y-89432087D01*
X175615736Y-89058836D01*
X174444543Y-89058836D01*
X174052826Y-90944000D01*
G37*
G36*
X175539679Y-90944000D02*
G01*
X175976238Y-90944000D01*
X176274752Y-89509024D01*
X175838192Y-89509024D01*
X175539679Y-90944000D01*
G37*
G36*
X176098457Y-89312066D02*
G01*
X176189972Y-89298969D01*
X176270466Y-89262071D01*
X176343084Y-89195362D01*
X176388480Y-89107613D01*
X176394773Y-89083016D01*
X176395783Y-88989249D01*
X176352758Y-88908358D01*
X176269247Y-88860630D01*
X176194298Y-88850887D01*
X176101399Y-88864066D01*
X176020085Y-88901282D01*
X175946971Y-88968786D01*
X175901277Y-89057949D01*
X175894906Y-89083016D01*
X175894191Y-89175188D01*
X175937710Y-89255066D01*
X176022283Y-89302381D01*
X176098457Y-89312066D01*
G37*
G36*
X176348611Y-90944000D02*
G01*
X176785171Y-90944000D01*
X176954871Y-90128473D01*
X177009380Y-90049594D01*
X177078008Y-89976249D01*
X177159322Y-89917510D01*
X177248994Y-89881839D01*
X177310537Y-89874362D01*
X177398961Y-89882552D01*
X177458695Y-89896784D01*
X177613447Y-89509024D01*
X177528443Y-89485733D01*
X177449023Y-89480887D01*
X177352750Y-89494313D01*
X177265514Y-89527328D01*
X177176657Y-89580381D01*
X177103241Y-89640022D01*
X177031999Y-89713799D01*
X176990921Y-89764893D01*
X176980809Y-89764893D01*
X177004550Y-89509024D01*
X176647125Y-89509024D01*
X176348611Y-90944000D01*
G37*
G36*
X177903608Y-90972136D02*
G01*
X178007274Y-90966877D01*
X178103446Y-90951581D01*
X178191863Y-90926966D01*
X178297238Y-90880893D01*
X178387744Y-90821239D01*
X178462764Y-90749708D01*
X178521678Y-90668006D01*
X178563869Y-90577837D01*
X178584166Y-90505681D01*
X178593949Y-90416875D01*
X178580547Y-90324017D01*
X178534114Y-90235597D01*
X178463521Y-90167811D01*
X178378243Y-90115929D01*
X178302798Y-90081431D01*
X178217547Y-90049423D01*
X178135087Y-90013940D01*
X178068409Y-89955325D01*
X178064515Y-89913050D01*
X178117106Y-89836828D01*
X178206741Y-89811969D01*
X178233335Y-89811055D01*
X178327968Y-89827451D01*
X178410932Y-89866790D01*
X178483447Y-89917411D01*
X178499316Y-89930196D01*
X178751668Y-89665095D01*
X178678258Y-89605176D01*
X178591643Y-89551465D01*
X178504629Y-89514597D01*
X178403845Y-89489900D01*
X178307983Y-89481151D01*
X178287411Y-89480887D01*
X178197759Y-89485663D01*
X178085124Y-89506300D01*
X177981747Y-89542187D01*
X177889130Y-89592170D01*
X177808770Y-89655095D01*
X177742167Y-89729808D01*
X177690821Y-89815154D01*
X177656230Y-89909980D01*
X177650377Y-89935032D01*
X177643018Y-90035981D01*
X177669267Y-90136349D01*
X177724786Y-90216784D01*
X177800046Y-90280173D01*
X177885518Y-90329403D01*
X177929106Y-90349610D01*
X178013096Y-90385246D01*
X178096443Y-90424819D01*
X178165551Y-90487578D01*
X178170028Y-90530741D01*
X178119661Y-90608915D01*
X178031925Y-90639374D01*
X177981863Y-90642408D01*
X177889386Y-90630619D01*
X177798324Y-90595252D01*
X177717856Y-90544021D01*
X177657411Y-90493371D01*
X177405059Y-90770782D01*
X177478369Y-90834259D01*
X177565508Y-90887622D01*
X177662407Y-90929289D01*
X177747677Y-90953934D01*
X177834545Y-90968443D01*
X177903608Y-90972136D01*
G37*
G36*
X179262086Y-90972136D02*
G01*
X179350995Y-90968231D01*
X179440485Y-90956234D01*
X179526693Y-90937268D01*
X179591374Y-90919380D01*
X179588737Y-90597126D01*
X179503158Y-90617690D01*
X179455527Y-90622185D01*
X179365839Y-90598715D01*
X179318912Y-90522949D01*
X179318615Y-90430410D01*
X179323635Y-90401927D01*
X179436622Y-89859415D01*
X179767229Y-89859415D01*
X179840209Y-89509024D01*
X179509602Y-89509024D01*
X179587857Y-89131376D01*
X179222959Y-89131376D01*
X179095464Y-89509024D01*
X178877404Y-89527049D01*
X178808381Y-89859415D01*
X178997864Y-89859415D01*
X178883998Y-90407203D01*
X178868682Y-90499361D01*
X178862690Y-90612067D01*
X178874150Y-90711918D01*
X178904106Y-90797575D01*
X178969157Y-90882646D01*
X179044555Y-90931470D01*
X179141850Y-90961746D01*
X179229819Y-90971476D01*
X179262086Y-90972136D01*
G37*
D12*
X131538095Y-74424819D02*
X131538095Y-75234342D01*
X131538095Y-75234342D02*
X131585714Y-75329580D01*
X131585714Y-75329580D02*
X131633333Y-75377200D01*
X131633333Y-75377200D02*
X131728571Y-75424819D01*
X131728571Y-75424819D02*
X131919047Y-75424819D01*
X131919047Y-75424819D02*
X132014285Y-75377200D01*
X132014285Y-75377200D02*
X132061904Y-75329580D01*
X132061904Y-75329580D02*
X132109523Y-75234342D01*
X132109523Y-75234342D02*
X132109523Y-74424819D01*
X133109523Y-75424819D02*
X132538095Y-75424819D01*
X132823809Y-75424819D02*
X132823809Y-74424819D01*
X132823809Y-74424819D02*
X132728571Y-74567676D01*
X132728571Y-74567676D02*
X132633333Y-74662914D01*
X132633333Y-74662914D02*
X132538095Y-74710533D01*
X167658095Y-57569819D02*
X167658095Y-58379342D01*
X167658095Y-58379342D02*
X167705714Y-58474580D01*
X167705714Y-58474580D02*
X167753333Y-58522200D01*
X167753333Y-58522200D02*
X167848571Y-58569819D01*
X167848571Y-58569819D02*
X168039047Y-58569819D01*
X168039047Y-58569819D02*
X168134285Y-58522200D01*
X168134285Y-58522200D02*
X168181904Y-58474580D01*
X168181904Y-58474580D02*
X168229523Y-58379342D01*
X168229523Y-58379342D02*
X168229523Y-57569819D01*
X168610476Y-57569819D02*
X169229523Y-57569819D01*
X169229523Y-57569819D02*
X168896190Y-57950771D01*
X168896190Y-57950771D02*
X169039047Y-57950771D01*
X169039047Y-57950771D02*
X169134285Y-57998390D01*
X169134285Y-57998390D02*
X169181904Y-58046009D01*
X169181904Y-58046009D02*
X169229523Y-58141247D01*
X169229523Y-58141247D02*
X169229523Y-58379342D01*
X169229523Y-58379342D02*
X169181904Y-58474580D01*
X169181904Y-58474580D02*
X169134285Y-58522200D01*
X169134285Y-58522200D02*
X169039047Y-58569819D01*
X169039047Y-58569819D02*
X168753333Y-58569819D01*
X168753333Y-58569819D02*
X168658095Y-58522200D01*
X168658095Y-58522200D02*
X168610476Y-58474580D01*
D11*
X176162707Y-77639838D02*
X176067469Y-77592219D01*
X176067469Y-77592219D02*
X175924612Y-77592219D01*
X175924612Y-77592219D02*
X175781755Y-77639838D01*
X175781755Y-77639838D02*
X175686517Y-77735076D01*
X175686517Y-77735076D02*
X175638898Y-77830314D01*
X175638898Y-77830314D02*
X175591279Y-78020790D01*
X175591279Y-78020790D02*
X175591279Y-78163647D01*
X175591279Y-78163647D02*
X175638898Y-78354123D01*
X175638898Y-78354123D02*
X175686517Y-78449361D01*
X175686517Y-78449361D02*
X175781755Y-78544600D01*
X175781755Y-78544600D02*
X175924612Y-78592219D01*
X175924612Y-78592219D02*
X176019850Y-78592219D01*
X176019850Y-78592219D02*
X176162707Y-78544600D01*
X176162707Y-78544600D02*
X176210326Y-78496980D01*
X176210326Y-78496980D02*
X176210326Y-78163647D01*
X176210326Y-78163647D02*
X176019850Y-78163647D01*
X176638898Y-78592219D02*
X176638898Y-77592219D01*
X176638898Y-77592219D02*
X177210326Y-78592219D01*
X177210326Y-78592219D02*
X177210326Y-77592219D01*
X177686517Y-78592219D02*
X177686517Y-77592219D01*
X177686517Y-77592219D02*
X177924612Y-77592219D01*
X177924612Y-77592219D02*
X178067469Y-77639838D01*
X178067469Y-77639838D02*
X178162707Y-77735076D01*
X178162707Y-77735076D02*
X178210326Y-77830314D01*
X178210326Y-77830314D02*
X178257945Y-78020790D01*
X178257945Y-78020790D02*
X178257945Y-78163647D01*
X178257945Y-78163647D02*
X178210326Y-78354123D01*
X178210326Y-78354123D02*
X178162707Y-78449361D01*
X178162707Y-78449361D02*
X178067469Y-78544600D01*
X178067469Y-78544600D02*
X177924612Y-78592219D01*
X177924612Y-78592219D02*
X177686517Y-78592219D01*
X167732054Y-76004600D02*
X167874911Y-76052219D01*
X167874911Y-76052219D02*
X168113006Y-76052219D01*
X168113006Y-76052219D02*
X168208244Y-76004600D01*
X168208244Y-76004600D02*
X168255863Y-75956980D01*
X168255863Y-75956980D02*
X168303482Y-75861742D01*
X168303482Y-75861742D02*
X168303482Y-75766504D01*
X168303482Y-75766504D02*
X168255863Y-75671266D01*
X168255863Y-75671266D02*
X168208244Y-75623647D01*
X168208244Y-75623647D02*
X168113006Y-75576028D01*
X168113006Y-75576028D02*
X167922530Y-75528409D01*
X167922530Y-75528409D02*
X167827292Y-75480790D01*
X167827292Y-75480790D02*
X167779673Y-75433171D01*
X167779673Y-75433171D02*
X167732054Y-75337933D01*
X167732054Y-75337933D02*
X167732054Y-75242695D01*
X167732054Y-75242695D02*
X167779673Y-75147457D01*
X167779673Y-75147457D02*
X167827292Y-75099838D01*
X167827292Y-75099838D02*
X167922530Y-75052219D01*
X167922530Y-75052219D02*
X168160625Y-75052219D01*
X168160625Y-75052219D02*
X168303482Y-75099838D01*
X168589197Y-75052219D02*
X169160625Y-75052219D01*
X168874911Y-76052219D02*
X168874911Y-75052219D01*
X169493959Y-75528409D02*
X169827292Y-75528409D01*
X169970149Y-76052219D02*
X169493959Y-76052219D01*
X169493959Y-76052219D02*
X169493959Y-75052219D01*
X169493959Y-75052219D02*
X169970149Y-75052219D01*
X170398721Y-76052219D02*
X170398721Y-75052219D01*
X170398721Y-75052219D02*
X170779673Y-75052219D01*
X170779673Y-75052219D02*
X170874911Y-75099838D01*
X170874911Y-75099838D02*
X170922530Y-75147457D01*
X170922530Y-75147457D02*
X170970149Y-75242695D01*
X170970149Y-75242695D02*
X170970149Y-75385552D01*
X170970149Y-75385552D02*
X170922530Y-75480790D01*
X170922530Y-75480790D02*
X170874911Y-75528409D01*
X170874911Y-75528409D02*
X170779673Y-75576028D01*
X170779673Y-75576028D02*
X170398721Y-75576028D01*
X167779673Y-78592219D02*
X167779673Y-77592219D01*
X167779673Y-77592219D02*
X168017768Y-77592219D01*
X168017768Y-77592219D02*
X168160625Y-77639838D01*
X168160625Y-77639838D02*
X168255863Y-77735076D01*
X168255863Y-77735076D02*
X168303482Y-77830314D01*
X168303482Y-77830314D02*
X168351101Y-78020790D01*
X168351101Y-78020790D02*
X168351101Y-78163647D01*
X168351101Y-78163647D02*
X168303482Y-78354123D01*
X168303482Y-78354123D02*
X168255863Y-78449361D01*
X168255863Y-78449361D02*
X168160625Y-78544600D01*
X168160625Y-78544600D02*
X168017768Y-78592219D01*
X168017768Y-78592219D02*
X167779673Y-78592219D01*
X168779673Y-78592219D02*
X168779673Y-77592219D01*
X169827291Y-78592219D02*
X169493958Y-78116028D01*
X169255863Y-78592219D02*
X169255863Y-77592219D01*
X169255863Y-77592219D02*
X169636815Y-77592219D01*
X169636815Y-77592219D02*
X169732053Y-77639838D01*
X169732053Y-77639838D02*
X169779672Y-77687457D01*
X169779672Y-77687457D02*
X169827291Y-77782695D01*
X169827291Y-77782695D02*
X169827291Y-77925552D01*
X169827291Y-77925552D02*
X169779672Y-78020790D01*
X169779672Y-78020790D02*
X169732053Y-78068409D01*
X169732053Y-78068409D02*
X169636815Y-78116028D01*
X169636815Y-78116028D02*
X169255863Y-78116028D01*
X176448421Y-60812219D02*
X175876993Y-60812219D01*
X176162707Y-60812219D02*
X176162707Y-59812219D01*
X176162707Y-59812219D02*
X176067469Y-59955076D01*
X176067469Y-59955076D02*
X175972231Y-60050314D01*
X175972231Y-60050314D02*
X175876993Y-60097933D01*
X176829374Y-59907457D02*
X176876993Y-59859838D01*
X176876993Y-59859838D02*
X176972231Y-59812219D01*
X176972231Y-59812219D02*
X177210326Y-59812219D01*
X177210326Y-59812219D02*
X177305564Y-59859838D01*
X177305564Y-59859838D02*
X177353183Y-59907457D01*
X177353183Y-59907457D02*
X177400802Y-60002695D01*
X177400802Y-60002695D02*
X177400802Y-60097933D01*
X177400802Y-60097933D02*
X177353183Y-60240790D01*
X177353183Y-60240790D02*
X176781755Y-60812219D01*
X176781755Y-60812219D02*
X177400802Y-60812219D01*
X177686517Y-59812219D02*
X178019850Y-60812219D01*
X178019850Y-60812219D02*
X178353183Y-59812219D01*
X175829374Y-75052219D02*
X176448421Y-75052219D01*
X176448421Y-75052219D02*
X176115088Y-75433171D01*
X176115088Y-75433171D02*
X176257945Y-75433171D01*
X176257945Y-75433171D02*
X176353183Y-75480790D01*
X176353183Y-75480790D02*
X176400802Y-75528409D01*
X176400802Y-75528409D02*
X176448421Y-75623647D01*
X176448421Y-75623647D02*
X176448421Y-75861742D01*
X176448421Y-75861742D02*
X176400802Y-75956980D01*
X176400802Y-75956980D02*
X176353183Y-76004600D01*
X176353183Y-76004600D02*
X176257945Y-76052219D01*
X176257945Y-76052219D02*
X175972231Y-76052219D01*
X175972231Y-76052219D02*
X175876993Y-76004600D01*
X175876993Y-76004600D02*
X175829374Y-75956980D01*
X176734136Y-75052219D02*
X177067469Y-76052219D01*
X177067469Y-76052219D02*
X177400802Y-75052219D01*
X177638898Y-75052219D02*
X178257945Y-75052219D01*
X178257945Y-75052219D02*
X177924612Y-75433171D01*
X177924612Y-75433171D02*
X178067469Y-75433171D01*
X178067469Y-75433171D02*
X178162707Y-75480790D01*
X178162707Y-75480790D02*
X178210326Y-75528409D01*
X178210326Y-75528409D02*
X178257945Y-75623647D01*
X178257945Y-75623647D02*
X178257945Y-75861742D01*
X178257945Y-75861742D02*
X178210326Y-75956980D01*
X178210326Y-75956980D02*
X178162707Y-76004600D01*
X178162707Y-76004600D02*
X178067469Y-76052219D01*
X178067469Y-76052219D02*
X177781755Y-76052219D01*
X177781755Y-76052219D02*
X177686517Y-76004600D01*
X177686517Y-76004600D02*
X177638898Y-75956980D01*
D12*
X185153095Y-57569819D02*
X185153095Y-58379342D01*
X185153095Y-58379342D02*
X185200714Y-58474580D01*
X185200714Y-58474580D02*
X185248333Y-58522200D01*
X185248333Y-58522200D02*
X185343571Y-58569819D01*
X185343571Y-58569819D02*
X185534047Y-58569819D01*
X185534047Y-58569819D02*
X185629285Y-58522200D01*
X185629285Y-58522200D02*
X185676904Y-58474580D01*
X185676904Y-58474580D02*
X185724523Y-58379342D01*
X185724523Y-58379342D02*
X185724523Y-57569819D01*
X186629285Y-57903152D02*
X186629285Y-58569819D01*
X186391190Y-57522200D02*
X186153095Y-58236485D01*
X186153095Y-58236485D02*
X186772142Y-58236485D01*
D11*
X193657707Y-77639838D02*
X193562469Y-77592219D01*
X193562469Y-77592219D02*
X193419612Y-77592219D01*
X193419612Y-77592219D02*
X193276755Y-77639838D01*
X193276755Y-77639838D02*
X193181517Y-77735076D01*
X193181517Y-77735076D02*
X193133898Y-77830314D01*
X193133898Y-77830314D02*
X193086279Y-78020790D01*
X193086279Y-78020790D02*
X193086279Y-78163647D01*
X193086279Y-78163647D02*
X193133898Y-78354123D01*
X193133898Y-78354123D02*
X193181517Y-78449361D01*
X193181517Y-78449361D02*
X193276755Y-78544600D01*
X193276755Y-78544600D02*
X193419612Y-78592219D01*
X193419612Y-78592219D02*
X193514850Y-78592219D01*
X193514850Y-78592219D02*
X193657707Y-78544600D01*
X193657707Y-78544600D02*
X193705326Y-78496980D01*
X193705326Y-78496980D02*
X193705326Y-78163647D01*
X193705326Y-78163647D02*
X193514850Y-78163647D01*
X194133898Y-78592219D02*
X194133898Y-77592219D01*
X194133898Y-77592219D02*
X194705326Y-78592219D01*
X194705326Y-78592219D02*
X194705326Y-77592219D01*
X195181517Y-78592219D02*
X195181517Y-77592219D01*
X195181517Y-77592219D02*
X195419612Y-77592219D01*
X195419612Y-77592219D02*
X195562469Y-77639838D01*
X195562469Y-77639838D02*
X195657707Y-77735076D01*
X195657707Y-77735076D02*
X195705326Y-77830314D01*
X195705326Y-77830314D02*
X195752945Y-78020790D01*
X195752945Y-78020790D02*
X195752945Y-78163647D01*
X195752945Y-78163647D02*
X195705326Y-78354123D01*
X195705326Y-78354123D02*
X195657707Y-78449361D01*
X195657707Y-78449361D02*
X195562469Y-78544600D01*
X195562469Y-78544600D02*
X195419612Y-78592219D01*
X195419612Y-78592219D02*
X195181517Y-78592219D01*
X185227054Y-76004600D02*
X185369911Y-76052219D01*
X185369911Y-76052219D02*
X185608006Y-76052219D01*
X185608006Y-76052219D02*
X185703244Y-76004600D01*
X185703244Y-76004600D02*
X185750863Y-75956980D01*
X185750863Y-75956980D02*
X185798482Y-75861742D01*
X185798482Y-75861742D02*
X185798482Y-75766504D01*
X185798482Y-75766504D02*
X185750863Y-75671266D01*
X185750863Y-75671266D02*
X185703244Y-75623647D01*
X185703244Y-75623647D02*
X185608006Y-75576028D01*
X185608006Y-75576028D02*
X185417530Y-75528409D01*
X185417530Y-75528409D02*
X185322292Y-75480790D01*
X185322292Y-75480790D02*
X185274673Y-75433171D01*
X185274673Y-75433171D02*
X185227054Y-75337933D01*
X185227054Y-75337933D02*
X185227054Y-75242695D01*
X185227054Y-75242695D02*
X185274673Y-75147457D01*
X185274673Y-75147457D02*
X185322292Y-75099838D01*
X185322292Y-75099838D02*
X185417530Y-75052219D01*
X185417530Y-75052219D02*
X185655625Y-75052219D01*
X185655625Y-75052219D02*
X185798482Y-75099838D01*
X186084197Y-75052219D02*
X186655625Y-75052219D01*
X186369911Y-76052219D02*
X186369911Y-75052219D01*
X186988959Y-75528409D02*
X187322292Y-75528409D01*
X187465149Y-76052219D02*
X186988959Y-76052219D01*
X186988959Y-76052219D02*
X186988959Y-75052219D01*
X186988959Y-75052219D02*
X187465149Y-75052219D01*
X187893721Y-76052219D02*
X187893721Y-75052219D01*
X187893721Y-75052219D02*
X188274673Y-75052219D01*
X188274673Y-75052219D02*
X188369911Y-75099838D01*
X188369911Y-75099838D02*
X188417530Y-75147457D01*
X188417530Y-75147457D02*
X188465149Y-75242695D01*
X188465149Y-75242695D02*
X188465149Y-75385552D01*
X188465149Y-75385552D02*
X188417530Y-75480790D01*
X188417530Y-75480790D02*
X188369911Y-75528409D01*
X188369911Y-75528409D02*
X188274673Y-75576028D01*
X188274673Y-75576028D02*
X187893721Y-75576028D01*
X185274673Y-78592219D02*
X185274673Y-77592219D01*
X185274673Y-77592219D02*
X185512768Y-77592219D01*
X185512768Y-77592219D02*
X185655625Y-77639838D01*
X185655625Y-77639838D02*
X185750863Y-77735076D01*
X185750863Y-77735076D02*
X185798482Y-77830314D01*
X185798482Y-77830314D02*
X185846101Y-78020790D01*
X185846101Y-78020790D02*
X185846101Y-78163647D01*
X185846101Y-78163647D02*
X185798482Y-78354123D01*
X185798482Y-78354123D02*
X185750863Y-78449361D01*
X185750863Y-78449361D02*
X185655625Y-78544600D01*
X185655625Y-78544600D02*
X185512768Y-78592219D01*
X185512768Y-78592219D02*
X185274673Y-78592219D01*
X186274673Y-78592219D02*
X186274673Y-77592219D01*
X187322291Y-78592219D02*
X186988958Y-78116028D01*
X186750863Y-78592219D02*
X186750863Y-77592219D01*
X186750863Y-77592219D02*
X187131815Y-77592219D01*
X187131815Y-77592219D02*
X187227053Y-77639838D01*
X187227053Y-77639838D02*
X187274672Y-77687457D01*
X187274672Y-77687457D02*
X187322291Y-77782695D01*
X187322291Y-77782695D02*
X187322291Y-77925552D01*
X187322291Y-77925552D02*
X187274672Y-78020790D01*
X187274672Y-78020790D02*
X187227053Y-78068409D01*
X187227053Y-78068409D02*
X187131815Y-78116028D01*
X187131815Y-78116028D02*
X186750863Y-78116028D01*
X193943421Y-60812219D02*
X193371993Y-60812219D01*
X193657707Y-60812219D02*
X193657707Y-59812219D01*
X193657707Y-59812219D02*
X193562469Y-59955076D01*
X193562469Y-59955076D02*
X193467231Y-60050314D01*
X193467231Y-60050314D02*
X193371993Y-60097933D01*
X194324374Y-59907457D02*
X194371993Y-59859838D01*
X194371993Y-59859838D02*
X194467231Y-59812219D01*
X194467231Y-59812219D02*
X194705326Y-59812219D01*
X194705326Y-59812219D02*
X194800564Y-59859838D01*
X194800564Y-59859838D02*
X194848183Y-59907457D01*
X194848183Y-59907457D02*
X194895802Y-60002695D01*
X194895802Y-60002695D02*
X194895802Y-60097933D01*
X194895802Y-60097933D02*
X194848183Y-60240790D01*
X194848183Y-60240790D02*
X194276755Y-60812219D01*
X194276755Y-60812219D02*
X194895802Y-60812219D01*
X195181517Y-59812219D02*
X195514850Y-60812219D01*
X195514850Y-60812219D02*
X195848183Y-59812219D01*
X193324374Y-75052219D02*
X193943421Y-75052219D01*
X193943421Y-75052219D02*
X193610088Y-75433171D01*
X193610088Y-75433171D02*
X193752945Y-75433171D01*
X193752945Y-75433171D02*
X193848183Y-75480790D01*
X193848183Y-75480790D02*
X193895802Y-75528409D01*
X193895802Y-75528409D02*
X193943421Y-75623647D01*
X193943421Y-75623647D02*
X193943421Y-75861742D01*
X193943421Y-75861742D02*
X193895802Y-75956980D01*
X193895802Y-75956980D02*
X193848183Y-76004600D01*
X193848183Y-76004600D02*
X193752945Y-76052219D01*
X193752945Y-76052219D02*
X193467231Y-76052219D01*
X193467231Y-76052219D02*
X193371993Y-76004600D01*
X193371993Y-76004600D02*
X193324374Y-75956980D01*
X194229136Y-75052219D02*
X194562469Y-76052219D01*
X194562469Y-76052219D02*
X194895802Y-75052219D01*
X195133898Y-75052219D02*
X195752945Y-75052219D01*
X195752945Y-75052219D02*
X195419612Y-75433171D01*
X195419612Y-75433171D02*
X195562469Y-75433171D01*
X195562469Y-75433171D02*
X195657707Y-75480790D01*
X195657707Y-75480790D02*
X195705326Y-75528409D01*
X195705326Y-75528409D02*
X195752945Y-75623647D01*
X195752945Y-75623647D02*
X195752945Y-75861742D01*
X195752945Y-75861742D02*
X195705326Y-75956980D01*
X195705326Y-75956980D02*
X195657707Y-76004600D01*
X195657707Y-76004600D02*
X195562469Y-76052219D01*
X195562469Y-76052219D02*
X195276755Y-76052219D01*
X195276755Y-76052219D02*
X195181517Y-76004600D01*
X195181517Y-76004600D02*
X195133898Y-75956980D01*
D12*
X150163095Y-57569819D02*
X150163095Y-58379342D01*
X150163095Y-58379342D02*
X150210714Y-58474580D01*
X150210714Y-58474580D02*
X150258333Y-58522200D01*
X150258333Y-58522200D02*
X150353571Y-58569819D01*
X150353571Y-58569819D02*
X150544047Y-58569819D01*
X150544047Y-58569819D02*
X150639285Y-58522200D01*
X150639285Y-58522200D02*
X150686904Y-58474580D01*
X150686904Y-58474580D02*
X150734523Y-58379342D01*
X150734523Y-58379342D02*
X150734523Y-57569819D01*
X151163095Y-57665057D02*
X151210714Y-57617438D01*
X151210714Y-57617438D02*
X151305952Y-57569819D01*
X151305952Y-57569819D02*
X151544047Y-57569819D01*
X151544047Y-57569819D02*
X151639285Y-57617438D01*
X151639285Y-57617438D02*
X151686904Y-57665057D01*
X151686904Y-57665057D02*
X151734523Y-57760295D01*
X151734523Y-57760295D02*
X151734523Y-57855533D01*
X151734523Y-57855533D02*
X151686904Y-57998390D01*
X151686904Y-57998390D02*
X151115476Y-58569819D01*
X151115476Y-58569819D02*
X151734523Y-58569819D01*
D11*
X158667707Y-77639838D02*
X158572469Y-77592219D01*
X158572469Y-77592219D02*
X158429612Y-77592219D01*
X158429612Y-77592219D02*
X158286755Y-77639838D01*
X158286755Y-77639838D02*
X158191517Y-77735076D01*
X158191517Y-77735076D02*
X158143898Y-77830314D01*
X158143898Y-77830314D02*
X158096279Y-78020790D01*
X158096279Y-78020790D02*
X158096279Y-78163647D01*
X158096279Y-78163647D02*
X158143898Y-78354123D01*
X158143898Y-78354123D02*
X158191517Y-78449361D01*
X158191517Y-78449361D02*
X158286755Y-78544600D01*
X158286755Y-78544600D02*
X158429612Y-78592219D01*
X158429612Y-78592219D02*
X158524850Y-78592219D01*
X158524850Y-78592219D02*
X158667707Y-78544600D01*
X158667707Y-78544600D02*
X158715326Y-78496980D01*
X158715326Y-78496980D02*
X158715326Y-78163647D01*
X158715326Y-78163647D02*
X158524850Y-78163647D01*
X159143898Y-78592219D02*
X159143898Y-77592219D01*
X159143898Y-77592219D02*
X159715326Y-78592219D01*
X159715326Y-78592219D02*
X159715326Y-77592219D01*
X160191517Y-78592219D02*
X160191517Y-77592219D01*
X160191517Y-77592219D02*
X160429612Y-77592219D01*
X160429612Y-77592219D02*
X160572469Y-77639838D01*
X160572469Y-77639838D02*
X160667707Y-77735076D01*
X160667707Y-77735076D02*
X160715326Y-77830314D01*
X160715326Y-77830314D02*
X160762945Y-78020790D01*
X160762945Y-78020790D02*
X160762945Y-78163647D01*
X160762945Y-78163647D02*
X160715326Y-78354123D01*
X160715326Y-78354123D02*
X160667707Y-78449361D01*
X160667707Y-78449361D02*
X160572469Y-78544600D01*
X160572469Y-78544600D02*
X160429612Y-78592219D01*
X160429612Y-78592219D02*
X160191517Y-78592219D01*
X150237054Y-76004600D02*
X150379911Y-76052219D01*
X150379911Y-76052219D02*
X150618006Y-76052219D01*
X150618006Y-76052219D02*
X150713244Y-76004600D01*
X150713244Y-76004600D02*
X150760863Y-75956980D01*
X150760863Y-75956980D02*
X150808482Y-75861742D01*
X150808482Y-75861742D02*
X150808482Y-75766504D01*
X150808482Y-75766504D02*
X150760863Y-75671266D01*
X150760863Y-75671266D02*
X150713244Y-75623647D01*
X150713244Y-75623647D02*
X150618006Y-75576028D01*
X150618006Y-75576028D02*
X150427530Y-75528409D01*
X150427530Y-75528409D02*
X150332292Y-75480790D01*
X150332292Y-75480790D02*
X150284673Y-75433171D01*
X150284673Y-75433171D02*
X150237054Y-75337933D01*
X150237054Y-75337933D02*
X150237054Y-75242695D01*
X150237054Y-75242695D02*
X150284673Y-75147457D01*
X150284673Y-75147457D02*
X150332292Y-75099838D01*
X150332292Y-75099838D02*
X150427530Y-75052219D01*
X150427530Y-75052219D02*
X150665625Y-75052219D01*
X150665625Y-75052219D02*
X150808482Y-75099838D01*
X151094197Y-75052219D02*
X151665625Y-75052219D01*
X151379911Y-76052219D02*
X151379911Y-75052219D01*
X151998959Y-75528409D02*
X152332292Y-75528409D01*
X152475149Y-76052219D02*
X151998959Y-76052219D01*
X151998959Y-76052219D02*
X151998959Y-75052219D01*
X151998959Y-75052219D02*
X152475149Y-75052219D01*
X152903721Y-76052219D02*
X152903721Y-75052219D01*
X152903721Y-75052219D02*
X153284673Y-75052219D01*
X153284673Y-75052219D02*
X153379911Y-75099838D01*
X153379911Y-75099838D02*
X153427530Y-75147457D01*
X153427530Y-75147457D02*
X153475149Y-75242695D01*
X153475149Y-75242695D02*
X153475149Y-75385552D01*
X153475149Y-75385552D02*
X153427530Y-75480790D01*
X153427530Y-75480790D02*
X153379911Y-75528409D01*
X153379911Y-75528409D02*
X153284673Y-75576028D01*
X153284673Y-75576028D02*
X152903721Y-75576028D01*
X150284673Y-78592219D02*
X150284673Y-77592219D01*
X150284673Y-77592219D02*
X150522768Y-77592219D01*
X150522768Y-77592219D02*
X150665625Y-77639838D01*
X150665625Y-77639838D02*
X150760863Y-77735076D01*
X150760863Y-77735076D02*
X150808482Y-77830314D01*
X150808482Y-77830314D02*
X150856101Y-78020790D01*
X150856101Y-78020790D02*
X150856101Y-78163647D01*
X150856101Y-78163647D02*
X150808482Y-78354123D01*
X150808482Y-78354123D02*
X150760863Y-78449361D01*
X150760863Y-78449361D02*
X150665625Y-78544600D01*
X150665625Y-78544600D02*
X150522768Y-78592219D01*
X150522768Y-78592219D02*
X150284673Y-78592219D01*
X151284673Y-78592219D02*
X151284673Y-77592219D01*
X152332291Y-78592219D02*
X151998958Y-78116028D01*
X151760863Y-78592219D02*
X151760863Y-77592219D01*
X151760863Y-77592219D02*
X152141815Y-77592219D01*
X152141815Y-77592219D02*
X152237053Y-77639838D01*
X152237053Y-77639838D02*
X152284672Y-77687457D01*
X152284672Y-77687457D02*
X152332291Y-77782695D01*
X152332291Y-77782695D02*
X152332291Y-77925552D01*
X152332291Y-77925552D02*
X152284672Y-78020790D01*
X152284672Y-78020790D02*
X152237053Y-78068409D01*
X152237053Y-78068409D02*
X152141815Y-78116028D01*
X152141815Y-78116028D02*
X151760863Y-78116028D01*
X158953421Y-60812219D02*
X158381993Y-60812219D01*
X158667707Y-60812219D02*
X158667707Y-59812219D01*
X158667707Y-59812219D02*
X158572469Y-59955076D01*
X158572469Y-59955076D02*
X158477231Y-60050314D01*
X158477231Y-60050314D02*
X158381993Y-60097933D01*
X159334374Y-59907457D02*
X159381993Y-59859838D01*
X159381993Y-59859838D02*
X159477231Y-59812219D01*
X159477231Y-59812219D02*
X159715326Y-59812219D01*
X159715326Y-59812219D02*
X159810564Y-59859838D01*
X159810564Y-59859838D02*
X159858183Y-59907457D01*
X159858183Y-59907457D02*
X159905802Y-60002695D01*
X159905802Y-60002695D02*
X159905802Y-60097933D01*
X159905802Y-60097933D02*
X159858183Y-60240790D01*
X159858183Y-60240790D02*
X159286755Y-60812219D01*
X159286755Y-60812219D02*
X159905802Y-60812219D01*
X160191517Y-59812219D02*
X160524850Y-60812219D01*
X160524850Y-60812219D02*
X160858183Y-59812219D01*
X158334374Y-75052219D02*
X158953421Y-75052219D01*
X158953421Y-75052219D02*
X158620088Y-75433171D01*
X158620088Y-75433171D02*
X158762945Y-75433171D01*
X158762945Y-75433171D02*
X158858183Y-75480790D01*
X158858183Y-75480790D02*
X158905802Y-75528409D01*
X158905802Y-75528409D02*
X158953421Y-75623647D01*
X158953421Y-75623647D02*
X158953421Y-75861742D01*
X158953421Y-75861742D02*
X158905802Y-75956980D01*
X158905802Y-75956980D02*
X158858183Y-76004600D01*
X158858183Y-76004600D02*
X158762945Y-76052219D01*
X158762945Y-76052219D02*
X158477231Y-76052219D01*
X158477231Y-76052219D02*
X158381993Y-76004600D01*
X158381993Y-76004600D02*
X158334374Y-75956980D01*
X159239136Y-75052219D02*
X159572469Y-76052219D01*
X159572469Y-76052219D02*
X159905802Y-75052219D01*
X160143898Y-75052219D02*
X160762945Y-75052219D01*
X160762945Y-75052219D02*
X160429612Y-75433171D01*
X160429612Y-75433171D02*
X160572469Y-75433171D01*
X160572469Y-75433171D02*
X160667707Y-75480790D01*
X160667707Y-75480790D02*
X160715326Y-75528409D01*
X160715326Y-75528409D02*
X160762945Y-75623647D01*
X160762945Y-75623647D02*
X160762945Y-75861742D01*
X160762945Y-75861742D02*
X160715326Y-75956980D01*
X160715326Y-75956980D02*
X160667707Y-76004600D01*
X160667707Y-76004600D02*
X160572469Y-76052219D01*
X160572469Y-76052219D02*
X160286755Y-76052219D01*
X160286755Y-76052219D02*
X160191517Y-76004600D01*
X160191517Y-76004600D02*
X160143898Y-75956980D01*
D12*
X148911441Y-81844819D02*
X148911441Y-82559104D01*
X148911441Y-82559104D02*
X148863822Y-82701961D01*
X148863822Y-82701961D02*
X148768584Y-82797200D01*
X148768584Y-82797200D02*
X148625727Y-82844819D01*
X148625727Y-82844819D02*
X148530489Y-82844819D01*
X149863822Y-81844819D02*
X149387632Y-81844819D01*
X149387632Y-81844819D02*
X149340013Y-82321009D01*
X149340013Y-82321009D02*
X149387632Y-82273390D01*
X149387632Y-82273390D02*
X149482870Y-82225771D01*
X149482870Y-82225771D02*
X149720965Y-82225771D01*
X149720965Y-82225771D02*
X149816203Y-82273390D01*
X149816203Y-82273390D02*
X149863822Y-82321009D01*
X149863822Y-82321009D02*
X149911441Y-82416247D01*
X149911441Y-82416247D02*
X149911441Y-82654342D01*
X149911441Y-82654342D02*
X149863822Y-82749580D01*
X149863822Y-82749580D02*
X149816203Y-82797200D01*
X149816203Y-82797200D02*
X149720965Y-82844819D01*
X149720965Y-82844819D02*
X149482870Y-82844819D01*
X149482870Y-82844819D02*
X149387632Y-82797200D01*
X149387632Y-82797200D02*
X149340013Y-82749580D01*
D11*
G36*
X155835162Y-91235631D02*
G01*
X155892519Y-91232771D01*
X155947596Y-91224268D01*
X155999659Y-91210234D01*
X156047974Y-91190783D01*
X156091806Y-91166029D01*
X156130423Y-91136085D01*
X156172528Y-91088283D01*
X156202314Y-91031725D01*
X156215523Y-90983723D01*
X156220089Y-90931060D01*
X156214052Y-90871171D01*
X156196770Y-90818780D01*
X156169484Y-90773837D01*
X156133435Y-90736293D01*
X156089863Y-90706097D01*
X156040010Y-90683198D01*
X156018588Y-90676071D01*
X156018588Y-90668988D01*
X156066944Y-90645479D01*
X156107130Y-90617077D01*
X156144556Y-90577000D01*
X156170184Y-90530920D01*
X156183995Y-90479408D01*
X156186627Y-90442330D01*
X156182954Y-90392684D01*
X156167029Y-90333488D01*
X156139224Y-90282480D01*
X156100326Y-90239861D01*
X156051122Y-90205836D01*
X155992399Y-90180606D01*
X155942583Y-90167579D01*
X155888187Y-90159700D01*
X155829544Y-90157055D01*
X155773128Y-90160490D01*
X155719319Y-90170583D01*
X155667827Y-90187016D01*
X155618360Y-90209469D01*
X155570629Y-90237624D01*
X155524342Y-90271163D01*
X155506167Y-90286015D01*
X155632196Y-90436957D01*
X155672396Y-90405080D01*
X155717002Y-90377098D01*
X155762618Y-90359028D01*
X155811787Y-90351809D01*
X155818309Y-90351716D01*
X155869352Y-90358837D01*
X155913726Y-90387043D01*
X155935300Y-90435445D01*
X155937255Y-90460160D01*
X155928536Y-90509141D01*
X155899616Y-90548573D01*
X155855610Y-90573537D01*
X155803396Y-90587330D01*
X155750364Y-90593349D01*
X155703515Y-90594738D01*
X155703515Y-90769860D01*
X155760527Y-90771263D01*
X155823589Y-90777395D01*
X155873171Y-90788214D01*
X155918388Y-90808023D01*
X155955455Y-90846788D01*
X155968907Y-90897452D01*
X155969495Y-90913963D01*
X155958142Y-90966124D01*
X155925929Y-91003722D01*
X155875626Y-91026483D01*
X155818950Y-91034011D01*
X155810005Y-91034131D01*
X155757870Y-91028463D01*
X155708266Y-91012348D01*
X155661270Y-90987122D01*
X155616959Y-90954119D01*
X155592873Y-90932281D01*
X155478079Y-91090062D01*
X155516556Y-91129037D01*
X155561144Y-91162895D01*
X155612049Y-91191026D01*
X155669478Y-91212821D01*
X155720257Y-91225285D01*
X155775450Y-91232993D01*
X155835162Y-91235631D01*
G37*
G36*
X157231742Y-91220000D02*
G01*
X156968449Y-91220000D01*
X156908365Y-90975757D01*
X156600130Y-90975757D01*
X156540047Y-91220000D01*
X156285301Y-91220000D01*
X156420444Y-90782316D01*
X156647758Y-90782316D01*
X156860738Y-90782316D01*
X156838267Y-90694145D01*
X156833017Y-90674445D01*
X156820017Y-90623420D01*
X156807145Y-90570578D01*
X156794340Y-90516820D01*
X156781541Y-90463044D01*
X156768686Y-90410152D01*
X156755713Y-90359043D01*
X156750096Y-90359043D01*
X156745345Y-90379698D01*
X156733212Y-90432319D01*
X156720789Y-90485787D01*
X156708179Y-90539402D01*
X156695482Y-90592466D01*
X156682798Y-90644280D01*
X156670228Y-90694145D01*
X156647758Y-90782316D01*
X156420444Y-90782316D01*
X156608679Y-90172686D01*
X156908365Y-90172686D01*
X157231742Y-91220000D01*
G37*
G36*
X148253951Y-91220000D02*
G01*
X148911941Y-91220000D01*
X148911941Y-91018499D01*
X148724363Y-91018499D01*
X148724363Y-90172686D01*
X148540936Y-90172686D01*
X148492760Y-90199861D01*
X148442114Y-90222812D01*
X148394865Y-90239586D01*
X148342432Y-90254093D01*
X148293656Y-90264729D01*
X148283260Y-90266720D01*
X148283260Y-90420593D01*
X148474991Y-90420593D01*
X148474991Y-91018499D01*
X148253951Y-91018499D01*
X148253951Y-91220000D01*
G37*
G36*
X149055312Y-91220000D02*
G01*
X149777782Y-91220000D01*
X149777782Y-91010195D01*
X149586052Y-91010195D01*
X149536712Y-91011997D01*
X149486419Y-91016047D01*
X149436803Y-91021485D01*
X149416547Y-91024117D01*
X149461196Y-90977796D01*
X149504804Y-90929825D01*
X149546639Y-90880474D01*
X149585970Y-90830011D01*
X149622065Y-90778706D01*
X149654193Y-90726829D01*
X149681620Y-90674648D01*
X149703616Y-90622433D01*
X149719449Y-90570453D01*
X149728388Y-90518977D01*
X149730155Y-90485073D01*
X149726529Y-90430985D01*
X149715911Y-90380884D01*
X149698688Y-90335062D01*
X149666119Y-90281124D01*
X149623416Y-90236000D01*
X149571497Y-90200379D01*
X149511282Y-90174951D01*
X149461228Y-90162985D01*
X149407411Y-90157431D01*
X149388703Y-90157055D01*
X149335394Y-90159553D01*
X149286373Y-90167061D01*
X149230053Y-90183515D01*
X149177958Y-90207857D01*
X149128711Y-90240118D01*
X149090440Y-90271652D01*
X149052409Y-90308294D01*
X149042855Y-90318255D01*
X149178654Y-90452833D01*
X149216787Y-90414571D01*
X149258400Y-90382308D01*
X149304226Y-90360028D01*
X149354998Y-90351716D01*
X149404716Y-90359095D01*
X149449304Y-90385129D01*
X149478694Y-90429169D01*
X149490179Y-90481844D01*
X149490797Y-90499239D01*
X149482764Y-90557830D01*
X149466598Y-90604185D01*
X149442234Y-90652658D01*
X149410117Y-90703298D01*
X149370690Y-90756152D01*
X149324399Y-90811266D01*
X149289943Y-90849287D01*
X149252765Y-90888348D01*
X149212997Y-90928463D01*
X149170771Y-90969645D01*
X149126217Y-91011908D01*
X149079468Y-91055267D01*
X149055312Y-91077362D01*
X149055312Y-91220000D01*
G37*
G36*
X150148054Y-91220000D02*
G01*
X150447740Y-91220000D01*
X150761348Y-90172686D01*
X150506603Y-90172686D01*
X150388878Y-90649937D01*
X150375588Y-90702855D01*
X150362987Y-90755293D01*
X150350761Y-90807485D01*
X150338598Y-90859666D01*
X150326185Y-90912070D01*
X150313208Y-90964933D01*
X150307789Y-90986259D01*
X150300706Y-90986259D01*
X150287018Y-90933150D01*
X150274461Y-90880610D01*
X150262521Y-90828421D01*
X150250684Y-90776365D01*
X150238436Y-90724224D01*
X150225262Y-90671781D01*
X150219617Y-90650669D01*
X150100427Y-90172686D01*
X149835912Y-90172686D01*
X150148054Y-91220000D01*
G37*
D12*
X172031441Y-81144819D02*
X172031441Y-81859104D01*
X172031441Y-81859104D02*
X171983822Y-82001961D01*
X171983822Y-82001961D02*
X171888584Y-82097200D01*
X171888584Y-82097200D02*
X171745727Y-82144819D01*
X171745727Y-82144819D02*
X171650489Y-82144819D01*
X172412394Y-81144819D02*
X173031441Y-81144819D01*
X173031441Y-81144819D02*
X172698108Y-81525771D01*
X172698108Y-81525771D02*
X172840965Y-81525771D01*
X172840965Y-81525771D02*
X172936203Y-81573390D01*
X172936203Y-81573390D02*
X172983822Y-81621009D01*
X172983822Y-81621009D02*
X173031441Y-81716247D01*
X173031441Y-81716247D02*
X173031441Y-81954342D01*
X173031441Y-81954342D02*
X172983822Y-82049580D01*
X172983822Y-82049580D02*
X172936203Y-82097200D01*
X172936203Y-82097200D02*
X172840965Y-82144819D01*
X172840965Y-82144819D02*
X172555251Y-82144819D01*
X172555251Y-82144819D02*
X172460013Y-82097200D01*
X172460013Y-82097200D02*
X172412394Y-82049580D01*
X175104355Y-55916666D02*
X175151975Y-55964285D01*
X175151975Y-55964285D02*
X175199594Y-56107142D01*
X175199594Y-56107142D02*
X175199594Y-56202380D01*
X175199594Y-56202380D02*
X175151975Y-56345237D01*
X175151975Y-56345237D02*
X175056736Y-56440475D01*
X175056736Y-56440475D02*
X174961498Y-56488094D01*
X174961498Y-56488094D02*
X174771022Y-56535713D01*
X174771022Y-56535713D02*
X174628165Y-56535713D01*
X174628165Y-56535713D02*
X174437689Y-56488094D01*
X174437689Y-56488094D02*
X174342451Y-56440475D01*
X174342451Y-56440475D02*
X174247213Y-56345237D01*
X174247213Y-56345237D02*
X174199594Y-56202380D01*
X174199594Y-56202380D02*
X174199594Y-56107142D01*
X174199594Y-56107142D02*
X174247213Y-55964285D01*
X174247213Y-55964285D02*
X174294832Y-55916666D01*
X175199594Y-54964285D02*
X175199594Y-55535713D01*
X175199594Y-55249999D02*
X174199594Y-55249999D01*
X174199594Y-55249999D02*
X174342451Y-55345237D01*
X174342451Y-55345237D02*
X174437689Y-55440475D01*
X174437689Y-55440475D02*
X174485308Y-55535713D01*
X167006666Y-90204819D02*
X167006666Y-90919104D01*
X167006666Y-90919104D02*
X166959047Y-91061961D01*
X166959047Y-91061961D02*
X166863809Y-91157200D01*
X166863809Y-91157200D02*
X166720952Y-91204819D01*
X166720952Y-91204819D02*
X166625714Y-91204819D01*
X167482857Y-91204819D02*
X167482857Y-90204819D01*
X167482857Y-90204819D02*
X167863809Y-90204819D01*
X167863809Y-90204819D02*
X167959047Y-90252438D01*
X167959047Y-90252438D02*
X168006666Y-90300057D01*
X168006666Y-90300057D02*
X168054285Y-90395295D01*
X168054285Y-90395295D02*
X168054285Y-90538152D01*
X168054285Y-90538152D02*
X168006666Y-90633390D01*
X168006666Y-90633390D02*
X167959047Y-90681009D01*
X167959047Y-90681009D02*
X167863809Y-90728628D01*
X167863809Y-90728628D02*
X167482857Y-90728628D01*
X169006666Y-91204819D02*
X168435238Y-91204819D01*
X168720952Y-91204819D02*
X168720952Y-90204819D01*
X168720952Y-90204819D02*
X168625714Y-90347676D01*
X168625714Y-90347676D02*
X168530476Y-90442914D01*
X168530476Y-90442914D02*
X168435238Y-90490533D01*
X192354355Y-55856666D02*
X192401975Y-55904285D01*
X192401975Y-55904285D02*
X192449594Y-56047142D01*
X192449594Y-56047142D02*
X192449594Y-56142380D01*
X192449594Y-56142380D02*
X192401975Y-56285237D01*
X192401975Y-56285237D02*
X192306736Y-56380475D01*
X192306736Y-56380475D02*
X192211498Y-56428094D01*
X192211498Y-56428094D02*
X192021022Y-56475713D01*
X192021022Y-56475713D02*
X191878165Y-56475713D01*
X191878165Y-56475713D02*
X191687689Y-56428094D01*
X191687689Y-56428094D02*
X191592451Y-56380475D01*
X191592451Y-56380475D02*
X191497213Y-56285237D01*
X191497213Y-56285237D02*
X191449594Y-56142380D01*
X191449594Y-56142380D02*
X191449594Y-56047142D01*
X191449594Y-56047142D02*
X191497213Y-55904285D01*
X191497213Y-55904285D02*
X191544832Y-55856666D01*
X191544832Y-55475713D02*
X191497213Y-55428094D01*
X191497213Y-55428094D02*
X191449594Y-55332856D01*
X191449594Y-55332856D02*
X191449594Y-55094761D01*
X191449594Y-55094761D02*
X191497213Y-54999523D01*
X191497213Y-54999523D02*
X191544832Y-54951904D01*
X191544832Y-54951904D02*
X191640070Y-54904285D01*
X191640070Y-54904285D02*
X191735308Y-54904285D01*
X191735308Y-54904285D02*
X191878165Y-54951904D01*
X191878165Y-54951904D02*
X192449594Y-55523332D01*
X192449594Y-55523332D02*
X192449594Y-54904285D01*
X157354355Y-56166666D02*
X157401975Y-56214285D01*
X157401975Y-56214285D02*
X157449594Y-56357142D01*
X157449594Y-56357142D02*
X157449594Y-56452380D01*
X157449594Y-56452380D02*
X157401975Y-56595237D01*
X157401975Y-56595237D02*
X157306736Y-56690475D01*
X157306736Y-56690475D02*
X157211498Y-56738094D01*
X157211498Y-56738094D02*
X157021022Y-56785713D01*
X157021022Y-56785713D02*
X156878165Y-56785713D01*
X156878165Y-56785713D02*
X156687689Y-56738094D01*
X156687689Y-56738094D02*
X156592451Y-56690475D01*
X156592451Y-56690475D02*
X156497213Y-56595237D01*
X156497213Y-56595237D02*
X156449594Y-56452380D01*
X156449594Y-56452380D02*
X156449594Y-56357142D01*
X156449594Y-56357142D02*
X156497213Y-56214285D01*
X156497213Y-56214285D02*
X156544832Y-56166666D01*
X156449594Y-55833332D02*
X156449594Y-55214285D01*
X156449594Y-55214285D02*
X156830546Y-55547618D01*
X156830546Y-55547618D02*
X156830546Y-55404761D01*
X156830546Y-55404761D02*
X156878165Y-55309523D01*
X156878165Y-55309523D02*
X156925784Y-55261904D01*
X156925784Y-55261904D02*
X157021022Y-55214285D01*
X157021022Y-55214285D02*
X157259117Y-55214285D01*
X157259117Y-55214285D02*
X157354355Y-55261904D01*
X157354355Y-55261904D02*
X157401975Y-55309523D01*
X157401975Y-55309523D02*
X157449594Y-55404761D01*
X157449594Y-55404761D02*
X157449594Y-55690475D01*
X157449594Y-55690475D02*
X157401975Y-55785713D01*
X157401975Y-55785713D02*
X157354355Y-55833332D01*
X183626666Y-81204819D02*
X183626666Y-81919104D01*
X183626666Y-81919104D02*
X183579047Y-82061961D01*
X183579047Y-82061961D02*
X183483809Y-82157200D01*
X183483809Y-82157200D02*
X183340952Y-82204819D01*
X183340952Y-82204819D02*
X183245714Y-82204819D01*
X184531428Y-81538152D02*
X184531428Y-82204819D01*
X184293333Y-81157200D02*
X184055238Y-81871485D01*
X184055238Y-81871485D02*
X184674285Y-81871485D01*
X160171891Y-80954819D02*
X160171891Y-81669104D01*
X160171891Y-81669104D02*
X160124272Y-81811961D01*
X160124272Y-81811961D02*
X160029034Y-81907200D01*
X160029034Y-81907200D02*
X159886177Y-81954819D01*
X159886177Y-81954819D02*
X159790939Y-81954819D01*
X160600463Y-81050057D02*
X160648082Y-81002438D01*
X160648082Y-81002438D02*
X160743320Y-80954819D01*
X160743320Y-80954819D02*
X160981415Y-80954819D01*
X160981415Y-80954819D02*
X161076653Y-81002438D01*
X161076653Y-81002438D02*
X161124272Y-81050057D01*
X161124272Y-81050057D02*
X161171891Y-81145295D01*
X161171891Y-81145295D02*
X161171891Y-81240533D01*
X161171891Y-81240533D02*
X161124272Y-81383390D01*
X161124272Y-81383390D02*
X160552844Y-81954819D01*
X160552844Y-81954819D02*
X161171891Y-81954819D01*
X168540832Y-88029293D02*
X169255117Y-88029293D01*
X169255117Y-88029293D02*
X169397974Y-88076912D01*
X169397974Y-88076912D02*
X169493213Y-88172150D01*
X169493213Y-88172150D02*
X169540832Y-88315007D01*
X169540832Y-88315007D02*
X169540832Y-88410245D01*
X169540832Y-87029293D02*
X169540832Y-87600721D01*
X169540832Y-87315007D02*
X168540832Y-87315007D01*
X168540832Y-87315007D02*
X168683689Y-87410245D01*
X168683689Y-87410245D02*
X168778927Y-87505483D01*
X168778927Y-87505483D02*
X168826546Y-87600721D01*
D10*
%TO.C,U1*%
X118350000Y-54740000D02*
G75*
G02*
X119350000Y-53740000I1000000J0D01*
G01*
X119350000Y-91200000D02*
G75*
G02*
X118350000Y-90200000I-1J999999D01*
G01*
X146250000Y-90200000D02*
G75*
G02*
X145250000Y-91200000I-999999J-1D01*
G01*
X145250000Y-53740000D02*
G75*
G02*
X146250000Y-54740000I0J-1000000D01*
G01*
X119350000Y-53740000D02*
X120450000Y-53740000D01*
X120850000Y-53740000D02*
X121950000Y-53740000D01*
X122350000Y-53740000D02*
X123450000Y-53740000D01*
X123850000Y-53740000D02*
X124950000Y-53740000D01*
X125350000Y-53740000D02*
X126450000Y-53740000D01*
X126850000Y-53740000D02*
X127950000Y-53740000D01*
X128350000Y-53740000D02*
X129450000Y-53740000D01*
X129850000Y-53740000D02*
X130950000Y-53740000D01*
X131350000Y-53740000D02*
X132450000Y-53740000D01*
X132850000Y-53740000D02*
X133950000Y-53740000D01*
X134350000Y-53740000D02*
X135450000Y-53740000D01*
X135850000Y-53740000D02*
X136950000Y-53740000D01*
X137350000Y-53740000D02*
X138450000Y-53740000D01*
X138850000Y-53740000D02*
X139950000Y-53740000D01*
X140350000Y-53740000D02*
X141450000Y-53740000D01*
X141850000Y-53740000D02*
X142950000Y-53740000D01*
X143350000Y-53740000D02*
X144450000Y-53740000D01*
X144850000Y-53740000D02*
X145250000Y-53740000D01*
X118350000Y-90200000D02*
X118350000Y-54740000D01*
X146250000Y-54740000D02*
X146250000Y-90200000D01*
X145250000Y-91200000D02*
X144150000Y-91200000D01*
X143750000Y-91200000D02*
X142650000Y-91200000D01*
X142250000Y-91200000D02*
X141150000Y-91200000D01*
X140750000Y-91200000D02*
X139650000Y-91200000D01*
X139250000Y-91200000D02*
X138150000Y-91200000D01*
X137750000Y-91200000D02*
X136650000Y-91200000D01*
X136250000Y-91200000D02*
X135150000Y-91200000D01*
X134750000Y-91200000D02*
X133650000Y-91200000D01*
X133250000Y-91200000D02*
X132150000Y-91200000D01*
X131750000Y-91200000D02*
X130650000Y-91200000D01*
X130250000Y-91200000D02*
X129150000Y-91200000D01*
X128750000Y-91200000D02*
X127650000Y-91200000D01*
X127250000Y-91200000D02*
X126150000Y-91200000D01*
X125750000Y-91200000D02*
X124650000Y-91200000D01*
X124250000Y-91200000D02*
X123150000Y-91200000D01*
X122750000Y-91200000D02*
X121650000Y-91200000D01*
X121250000Y-91200000D02*
X120150000Y-91200000D01*
X119750000Y-91200000D02*
X119350000Y-91200000D01*
D13*
G36*
X139943455Y-71380556D02*
G01*
X139943455Y-73043076D01*
X139695112Y-73043076D01*
X139446768Y-73043076D01*
X139446768Y-71380556D01*
X139446768Y-69718035D01*
X139695112Y-69718035D01*
X139943455Y-69718035D01*
X139943455Y-71380556D01*
G37*
G36*
X129157535Y-63531003D02*
G01*
X129300156Y-63574636D01*
X129435388Y-63644050D01*
X129561560Y-63738675D01*
X129604068Y-63778432D01*
X129708380Y-63899064D01*
X129786775Y-64029166D01*
X129839284Y-64168813D01*
X129865935Y-64318082D01*
X129867866Y-64460225D01*
X129846768Y-64616272D01*
X129801859Y-64758872D01*
X129732356Y-64889779D01*
X129637475Y-65010748D01*
X129609027Y-65040315D01*
X129492802Y-65140940D01*
X129370142Y-65215580D01*
X129237843Y-65265610D01*
X129092701Y-65292406D01*
X129009452Y-65297659D01*
X128941025Y-65298234D01*
X128876962Y-65296620D01*
X128825864Y-65293143D01*
X128802499Y-65289794D01*
X128653643Y-65244192D01*
X128516902Y-65175143D01*
X128394578Y-65084991D01*
X128288975Y-64976079D01*
X128202395Y-64850752D01*
X128137140Y-64711351D01*
X128097920Y-64572693D01*
X128081254Y-64422900D01*
X128090411Y-64276533D01*
X128123638Y-64136014D01*
X128179181Y-64003769D01*
X128255287Y-63882221D01*
X128350204Y-63773794D01*
X128462180Y-63680912D01*
X128589459Y-63605998D01*
X128730291Y-63551478D01*
X128856801Y-63523360D01*
X129009193Y-63513721D01*
X129157535Y-63531003D01*
G37*
G36*
X142302716Y-69952582D02*
G01*
X142302716Y-70187128D01*
X141653579Y-70187128D01*
X141495770Y-70187163D01*
X141363198Y-70187439D01*
X141253508Y-70188216D01*
X141164346Y-70189751D01*
X141093354Y-70192302D01*
X141038178Y-70196127D01*
X140996461Y-70201486D01*
X140965848Y-70208636D01*
X140943984Y-70217835D01*
X140928512Y-70229342D01*
X140917077Y-70243414D01*
X140907324Y-70260311D01*
X140902570Y-70269458D01*
X140896090Y-70286416D01*
X140891044Y-70311384D01*
X140887270Y-70347566D01*
X140884604Y-70398162D01*
X140882886Y-70466375D01*
X140881953Y-70555406D01*
X140881644Y-70668458D01*
X140881641Y-70683130D01*
X140881641Y-71056330D01*
X141502499Y-71056330D01*
X142123357Y-71056330D01*
X142123357Y-71290876D01*
X142123357Y-71525423D01*
X141502499Y-71525423D01*
X140881641Y-71525423D01*
X140881641Y-72277351D01*
X140881641Y-73029279D01*
X140626399Y-73029279D01*
X140371157Y-73029279D01*
X140371262Y-71666840D01*
X140371432Y-71416752D01*
X140371900Y-71188205D01*
X140372658Y-70981868D01*
X140373700Y-70798410D01*
X140375019Y-70638499D01*
X140376608Y-70502805D01*
X140378461Y-70391996D01*
X140380571Y-70306742D01*
X140382932Y-70247711D01*
X140385537Y-70215571D01*
X140385667Y-70214722D01*
X140415587Y-70098701D01*
X140465285Y-69992119D01*
X140531678Y-69899708D01*
X140611680Y-69826202D01*
X140657945Y-69796853D01*
X140689458Y-69780125D01*
X140719255Y-69765947D01*
X140749838Y-69754107D01*
X140783712Y-69744397D01*
X140823382Y-69736604D01*
X140871351Y-69730519D01*
X140930123Y-69725931D01*
X141002202Y-69722628D01*
X141090094Y-69720402D01*
X141196300Y-69719040D01*
X141323326Y-69718332D01*
X141473676Y-69718069D01*
X141595077Y-69718035D01*
X142302716Y-69718035D01*
X142302716Y-69952582D01*
G37*
G36*
X128426867Y-69717952D02*
G01*
X128529023Y-69719804D01*
X128615483Y-69723102D01*
X128688228Y-69727936D01*
X128749236Y-69734398D01*
X128800490Y-69742578D01*
X128843969Y-69752568D01*
X128881654Y-69764460D01*
X128915526Y-69778345D01*
X128935963Y-69788241D01*
X129025445Y-69848324D01*
X129104381Y-69929585D01*
X129168306Y-70026287D01*
X129212758Y-70132694D01*
X129217854Y-70150569D01*
X129222536Y-70182418D01*
X129226609Y-70237922D01*
X129230056Y-70313150D01*
X129232862Y-70404169D01*
X129235011Y-70507048D01*
X129236489Y-70617855D01*
X129237279Y-70732657D01*
X129237365Y-70847523D01*
X129236733Y-70958521D01*
X129235366Y-71061718D01*
X129233249Y-71153184D01*
X129230366Y-71228985D01*
X129226703Y-71285191D01*
X129222477Y-71316888D01*
X129182421Y-71432329D01*
X129119829Y-71533201D01*
X129036576Y-71617799D01*
X128934538Y-71684417D01*
X128815591Y-71731350D01*
X128749342Y-71747095D01*
X128720135Y-71750039D01*
X128666910Y-71752746D01*
X128593243Y-71755137D01*
X128502709Y-71757134D01*
X128398883Y-71758658D01*
X128285343Y-71759629D01*
X128165961Y-71759969D01*
X127650462Y-71759969D01*
X127650462Y-72401523D01*
X127650462Y-73043076D01*
X127402119Y-73043076D01*
X127153776Y-73043076D01*
X127153776Y-71389686D01*
X127153776Y-71290876D01*
X127650462Y-71290876D01*
X128139192Y-71290876D01*
X128627921Y-71290876D01*
X128669967Y-71255497D01*
X128702120Y-71218132D01*
X128724705Y-71173956D01*
X128726136Y-71169267D01*
X128730297Y-71139999D01*
X128733728Y-71087826D01*
X128736427Y-71017321D01*
X128738388Y-70933062D01*
X128739607Y-70839622D01*
X128740081Y-70741577D01*
X128739806Y-70643502D01*
X128738777Y-70549973D01*
X128736990Y-70465565D01*
X128734442Y-70394852D01*
X128731129Y-70342411D01*
X128727046Y-70312817D01*
X128726888Y-70312247D01*
X128707543Y-70269503D01*
X128678673Y-70228960D01*
X128676018Y-70226108D01*
X128638673Y-70187128D01*
X128144567Y-70187128D01*
X127650462Y-70187128D01*
X127650462Y-70739002D01*
X127650462Y-71290876D01*
X127153776Y-71290876D01*
X127153776Y-70739002D01*
X127153776Y-69736295D01*
X127611324Y-69727165D01*
X127821669Y-69723163D01*
X128006415Y-69720149D01*
X128167543Y-69718215D01*
X128307034Y-69717452D01*
X128426867Y-69717952D01*
G37*
G36*
X132573390Y-54949442D02*
G01*
X132713430Y-54951479D01*
X132849276Y-54955222D01*
X132974899Y-54960589D01*
X133084264Y-54967497D01*
X133161782Y-54974730D01*
X133548704Y-55030523D01*
X133920458Y-55107729D01*
X134280484Y-55207387D01*
X134632224Y-55330534D01*
X134979117Y-55478211D01*
X135219007Y-55595758D01*
X135563435Y-55788914D01*
X135892828Y-56004700D01*
X136206143Y-56241961D01*
X136502337Y-56499545D01*
X136780364Y-56776296D01*
X137039181Y-57071061D01*
X137277745Y-57382685D01*
X137495012Y-57710015D01*
X137689937Y-58051896D01*
X137861477Y-58407174D01*
X137947110Y-58611991D01*
X138061301Y-58924334D01*
X138155592Y-59235170D01*
X138231736Y-59551485D01*
X138291490Y-59880264D01*
X138322927Y-60108530D01*
X138331949Y-60200682D01*
X138339594Y-60314392D01*
X138345722Y-60443648D01*
X138350193Y-60582441D01*
X138352865Y-60724762D01*
X138353597Y-60864601D01*
X138352248Y-60995948D01*
X138348678Y-61112794D01*
X138347197Y-61143293D01*
X138336122Y-61350246D01*
X138149865Y-61414827D01*
X138082796Y-61437971D01*
X138025370Y-61457579D01*
X137982454Y-61472007D01*
X137958910Y-61479607D01*
X137956072Y-61480362D01*
X137948889Y-61468484D01*
X137933834Y-61435022D01*
X137912696Y-61384238D01*
X137887264Y-61320393D01*
X137868134Y-61270914D01*
X137780383Y-61047772D01*
X137692633Y-60838689D01*
X137600322Y-60633358D01*
X137498888Y-60421469D01*
X137439214Y-60301686D01*
X137189490Y-59836555D01*
X136917585Y-59387808D01*
X136623665Y-58955645D01*
X136307895Y-58540261D01*
X135970442Y-58141856D01*
X135611472Y-57760627D01*
X135231151Y-57396773D01*
X134829644Y-57050491D01*
X134486801Y-56781360D01*
X134153703Y-56542837D01*
X133801287Y-56313277D01*
X133434700Y-56095484D01*
X133059090Y-55892262D01*
X132679604Y-55706416D01*
X132301388Y-55540750D01*
X131982673Y-55417139D01*
X131923456Y-55395182D01*
X131873903Y-55376001D01*
X131839752Y-55361868D01*
X131827134Y-55355533D01*
X131827597Y-55340011D01*
X131836108Y-55303404D01*
X131851329Y-55250578D01*
X131871922Y-55186395D01*
X131881213Y-55159064D01*
X131945964Y-54971539D01*
X132091939Y-54960024D01*
X132188432Y-54954403D01*
X132304859Y-54950822D01*
X132435189Y-54949196D01*
X132573390Y-54949442D01*
G37*
G36*
X124228843Y-69938207D02*
G01*
X124228843Y-70173331D01*
X123576942Y-70173535D01*
X123421048Y-70173607D01*
X123290327Y-70173874D01*
X123182360Y-70174576D01*
X123094724Y-70175947D01*
X123025001Y-70178226D01*
X122970770Y-70181650D01*
X122929610Y-70186456D01*
X122899101Y-70192881D01*
X122876822Y-70201162D01*
X122860354Y-70211536D01*
X122847276Y-70224241D01*
X122835167Y-70239514D01*
X122829793Y-70246745D01*
X122821262Y-70259479D01*
X122814537Y-70274280D01*
X122809357Y-70294479D01*
X122805462Y-70323411D01*
X122802591Y-70364408D01*
X122800483Y-70420802D01*
X122798878Y-70495927D01*
X122797515Y-70593116D01*
X122796622Y-70670857D01*
X122792374Y-71056047D01*
X123417480Y-71059638D01*
X124042586Y-71063228D01*
X124042586Y-71297775D01*
X124042586Y-71532321D01*
X123418279Y-71535911D01*
X122793971Y-71539501D01*
X122793971Y-71981302D01*
X122794147Y-72112203D01*
X122794921Y-72218509D01*
X122796661Y-72303217D01*
X122799735Y-72369328D01*
X122804511Y-72419837D01*
X122811356Y-72457743D01*
X122820639Y-72486045D01*
X122832728Y-72507739D01*
X122847991Y-72525825D01*
X122862489Y-72539491D01*
X122870535Y-72545842D01*
X122880807Y-72551175D01*
X122895709Y-72555610D01*
X122917644Y-72559266D01*
X122949017Y-72562262D01*
X122992231Y-72564718D01*
X123049689Y-72566753D01*
X123123797Y-72568485D01*
X123216957Y-72570035D01*
X123331574Y-72571521D01*
X123470051Y-72573064D01*
X123557685Y-72573983D01*
X124221945Y-72580882D01*
X124221945Y-72815428D01*
X124221945Y-73049975D01*
X123552798Y-73051739D01*
X123416059Y-73051856D01*
X123284982Y-73051502D01*
X123162713Y-73050719D01*
X123052398Y-73049548D01*
X122957184Y-73048029D01*
X122880216Y-73046204D01*
X122824642Y-73044113D01*
X122794140Y-73041869D01*
X122708111Y-73022312D01*
X122619950Y-72987897D01*
X122538531Y-72943025D01*
X122472730Y-72892097D01*
X122455052Y-72873679D01*
X122402529Y-72800541D01*
X122355956Y-72712344D01*
X122321501Y-72621623D01*
X122311150Y-72581214D01*
X122308122Y-72552295D01*
X122305553Y-72496843D01*
X122303441Y-72414724D01*
X122301787Y-72305808D01*
X122300588Y-72169964D01*
X122299843Y-72007060D01*
X122299552Y-71816964D01*
X122299713Y-71599546D01*
X122300325Y-71354674D01*
X122300354Y-71345499D01*
X122304183Y-70180230D01*
X122336087Y-70101246D01*
X122397143Y-69983095D01*
X122477053Y-69884946D01*
X122576488Y-69806147D01*
X122696118Y-69746047D01*
X122705405Y-69742471D01*
X122724106Y-69735637D01*
X122742661Y-69729876D01*
X122763531Y-69725081D01*
X122789176Y-69721144D01*
X122822057Y-69717957D01*
X122864633Y-69715413D01*
X122919364Y-69713405D01*
X122988712Y-69711823D01*
X123075137Y-69710561D01*
X123181098Y-69709511D01*
X123309055Y-69708566D01*
X123461470Y-69707616D01*
X123507958Y-69707341D01*
X124228843Y-69703083D01*
X124228843Y-69938207D01*
G37*
G36*
X129869587Y-55622971D02*
G01*
X129885552Y-55624773D01*
X129978426Y-55637742D01*
X130092579Y-55656997D01*
X130222708Y-55681421D01*
X130363511Y-55709897D01*
X130509683Y-55741307D01*
X130655923Y-55774535D01*
X130796927Y-55808463D01*
X130927393Y-55841974D01*
X130965933Y-55852394D01*
X131445108Y-55997839D01*
X131912508Y-56167790D01*
X132367421Y-56361473D01*
X132809134Y-56578116D01*
X133236936Y-56816945D01*
X133650113Y-57077188D01*
X134047954Y-57358070D01*
X134429747Y-57658819D01*
X134794779Y-57978662D01*
X135142338Y-58316826D01*
X135471712Y-58672536D01*
X135782189Y-59045022D01*
X136073056Y-59433508D01*
X136343601Y-59837222D01*
X136593112Y-60255391D01*
X136820876Y-60687242D01*
X137026182Y-61132001D01*
X137208318Y-61588895D01*
X137366570Y-62057152D01*
X137500227Y-62535998D01*
X137608577Y-63024659D01*
X137617859Y-63073328D01*
X137639013Y-63186552D01*
X137655193Y-63276265D01*
X137666624Y-63346053D01*
X137673532Y-63399502D01*
X137676142Y-63440202D01*
X137674679Y-63471738D01*
X137669368Y-63497698D01*
X137660435Y-63521669D01*
X137648106Y-63547239D01*
X137647682Y-63548075D01*
X137573943Y-63683187D01*
X137483143Y-63832363D01*
X137378536Y-63990994D01*
X137263377Y-64154469D01*
X137140919Y-64318179D01*
X137014416Y-64477513D01*
X136887123Y-64627863D01*
X136878783Y-64637346D01*
X136754109Y-64778763D01*
X136320645Y-64778763D01*
X136214436Y-64778447D01*
X136117651Y-64777551D01*
X136033585Y-64776153D01*
X135965534Y-64774333D01*
X135916795Y-64772168D01*
X135890664Y-64769738D01*
X135887105Y-64768416D01*
X135885778Y-64715125D01*
X135882637Y-64640129D01*
X135878041Y-64549232D01*
X135872348Y-64448235D01*
X135865918Y-64342941D01*
X135859109Y-64239155D01*
X135852279Y-64142678D01*
X135845788Y-64059313D01*
X135839994Y-63994865D01*
X135838275Y-63978546D01*
X135774893Y-63532292D01*
X135685283Y-63093685D01*
X135569986Y-62663664D01*
X135429539Y-62243168D01*
X135264483Y-61833133D01*
X135075355Y-61434499D01*
X134862694Y-61048204D01*
X134627040Y-60675186D01*
X134368931Y-60316382D01*
X134088905Y-59972732D01*
X133787503Y-59645174D01*
X133465262Y-59334645D01*
X133122722Y-59042083D01*
X132907317Y-58875292D01*
X132540690Y-58618664D01*
X132161115Y-58385764D01*
X131769780Y-58177010D01*
X131367876Y-57992822D01*
X130956591Y-57833621D01*
X130537115Y-57699824D01*
X130110637Y-57591853D01*
X129678346Y-57510127D01*
X129241432Y-57455064D01*
X128802499Y-57427131D01*
X128526562Y-57418144D01*
X128522918Y-56988563D01*
X128519275Y-56558982D01*
X128605700Y-56476030D01*
X128777340Y-56320921D01*
X128969651Y-56164317D01*
X129176396Y-56010822D01*
X129391334Y-55865040D01*
X129608227Y-55731575D01*
X129637208Y-55714814D01*
X129704960Y-55676165D01*
X129754080Y-55649398D01*
X129789836Y-55632606D01*
X129817494Y-55623876D01*
X129842322Y-55621301D01*
X129869587Y-55622971D01*
G37*
G36*
X134065997Y-69938785D02*
G01*
X134065997Y-70173331D01*
X133416860Y-70173331D01*
X133259050Y-70173366D01*
X133126479Y-70173643D01*
X133016789Y-70174419D01*
X132927627Y-70175954D01*
X132856635Y-70178505D01*
X132801458Y-70182330D01*
X132759742Y-70187689D01*
X132729129Y-70194839D01*
X132707265Y-70204038D01*
X132691793Y-70215545D01*
X132680358Y-70229617D01*
X132670605Y-70246514D01*
X132665850Y-70255661D01*
X132659429Y-70272454D01*
X132654415Y-70297188D01*
X132650651Y-70333034D01*
X132647977Y-70383160D01*
X132646238Y-70450738D01*
X132645275Y-70538938D01*
X132644930Y-70650930D01*
X132644922Y-70676231D01*
X132644922Y-71056330D01*
X133265780Y-71056330D01*
X133886638Y-71056330D01*
X133886638Y-71297775D01*
X133886638Y-71539219D01*
X133265780Y-71539219D01*
X132644922Y-71539219D01*
X132644922Y-71995201D01*
X132645109Y-72123954D01*
X132645749Y-72227959D01*
X132646960Y-72310055D01*
X132648860Y-72373086D01*
X132651568Y-72419893D01*
X132655201Y-72453318D01*
X132659878Y-72476204D01*
X132665538Y-72491050D01*
X132675074Y-72509640D01*
X132684388Y-72525224D01*
X132695844Y-72538068D01*
X132711809Y-72548435D01*
X132734649Y-72556591D01*
X132766729Y-72562801D01*
X132810414Y-72567328D01*
X132868071Y-72570437D01*
X132942065Y-72572394D01*
X133034762Y-72573463D01*
X133148527Y-72573908D01*
X133285727Y-72573995D01*
X133406818Y-72573983D01*
X134065997Y-72573983D01*
X134065997Y-72815428D01*
X134065997Y-73056873D01*
X133393401Y-73055064D01*
X133256911Y-73054491D01*
X133126577Y-73053550D01*
X133005455Y-73052292D01*
X132896605Y-73050765D01*
X132803084Y-73049019D01*
X132727951Y-73047103D01*
X132674264Y-73045068D01*
X132645082Y-73042962D01*
X132644922Y-73042941D01*
X132533743Y-73019059D01*
X132438729Y-72977922D01*
X132351864Y-72915571D01*
X132312536Y-72878776D01*
X132245022Y-72801247D01*
X132196925Y-72720296D01*
X132164069Y-72627529D01*
X132147119Y-72546390D01*
X132145145Y-72520753D01*
X132143270Y-72469799D01*
X132141520Y-72395801D01*
X132139917Y-72301037D01*
X132138487Y-72187781D01*
X132137252Y-72058308D01*
X132136239Y-71914895D01*
X132135469Y-71759816D01*
X132134969Y-71595348D01*
X132134761Y-71423765D01*
X132134758Y-71380556D01*
X132134826Y-71171037D01*
X132135034Y-70987187D01*
X132135481Y-70827083D01*
X132136269Y-70688799D01*
X132137497Y-70570413D01*
X132139267Y-70470000D01*
X132141678Y-70385634D01*
X132144832Y-70315394D01*
X132148829Y-70257353D01*
X132153770Y-70209589D01*
X132159755Y-70170176D01*
X132166885Y-70137191D01*
X132175261Y-70108709D01*
X132184982Y-70082807D01*
X132196150Y-70057559D01*
X132204872Y-70039267D01*
X132245211Y-69974035D01*
X132301482Y-69906586D01*
X132365771Y-69845021D01*
X132430162Y-69797440D01*
X132454142Y-69784153D01*
X132490116Y-69766906D01*
X132523556Y-69752337D01*
X132557080Y-69740219D01*
X132593306Y-69730326D01*
X132634851Y-69722435D01*
X132684335Y-69716318D01*
X132744375Y-69711750D01*
X132817589Y-69708506D01*
X132906596Y-69706360D01*
X133014014Y-69705086D01*
X133142461Y-69704459D01*
X133294555Y-69704254D01*
X133381595Y-69704239D01*
X134065997Y-69704239D01*
X134065997Y-69938785D01*
G37*
G36*
X127716547Y-55875349D02*
G01*
X127744630Y-55900856D01*
X127784176Y-55938697D01*
X127831394Y-55985054D01*
X127882499Y-56036105D01*
X127933701Y-56088033D01*
X127981214Y-56137015D01*
X128021248Y-56179232D01*
X128050018Y-56210865D01*
X128063734Y-56228093D01*
X128064368Y-56229722D01*
X128055311Y-56243194D01*
X128030334Y-56272766D01*
X127992728Y-56314730D01*
X127945782Y-56365377D01*
X127917647Y-56395092D01*
X127658715Y-56686108D01*
X127417164Y-56997259D01*
X127194191Y-57326333D01*
X126990989Y-57671117D01*
X126808756Y-58029399D01*
X126648686Y-58398967D01*
X126511975Y-58777607D01*
X126399819Y-59163108D01*
X126380805Y-59239328D01*
X126299632Y-59629738D01*
X126242772Y-60029769D01*
X126210438Y-60435601D01*
X126202841Y-60843418D01*
X126220195Y-61249402D01*
X126251408Y-61564097D01*
X126316286Y-61973507D01*
X126407527Y-62376035D01*
X126524506Y-62770541D01*
X126666596Y-63155883D01*
X126833171Y-63530920D01*
X127023605Y-63894511D01*
X127237271Y-64245514D01*
X127473543Y-64582787D01*
X127731795Y-64905190D01*
X128011401Y-65211581D01*
X128311734Y-65500819D01*
X128502412Y-65666313D01*
X128834701Y-65925910D01*
X129179972Y-66161423D01*
X129537239Y-66372570D01*
X129905517Y-66559063D01*
X130283822Y-66720619D01*
X130671168Y-66856952D01*
X131066569Y-66967778D01*
X131469040Y-67052811D01*
X131877597Y-67111767D01*
X132291253Y-67144360D01*
X132709023Y-67150305D01*
X133129923Y-67129318D01*
X133445139Y-67095981D01*
X133847155Y-67030209D01*
X134244331Y-66938190D01*
X134634947Y-66820745D01*
X135017289Y-66678691D01*
X135389637Y-66512848D01*
X135750276Y-66324034D01*
X136097487Y-66113068D01*
X136429554Y-65880770D01*
X136744760Y-65627958D01*
X136989849Y-65405529D01*
X137123846Y-65276916D01*
X137309128Y-65462581D01*
X137494411Y-65648245D01*
X137343932Y-65789279D01*
X137008435Y-66085721D01*
X136661186Y-66357202D01*
X136302250Y-66603695D01*
X135931692Y-66825167D01*
X135549577Y-67021589D01*
X135155969Y-67192931D01*
X134750933Y-67339162D01*
X134334534Y-67460251D01*
X133906836Y-67556169D01*
X133467905Y-67626886D01*
X133396850Y-67635834D01*
X133309331Y-67644420D01*
X133199531Y-67652014D01*
X133072523Y-67658521D01*
X132933379Y-67663845D01*
X132787172Y-67667890D01*
X132638974Y-67670560D01*
X132493858Y-67671759D01*
X132356896Y-67671392D01*
X132233161Y-67669363D01*
X132127725Y-67665576D01*
X132058556Y-67661099D01*
X131617858Y-67610295D01*
X131185359Y-67533407D01*
X130761783Y-67430744D01*
X130347854Y-67302617D01*
X129944295Y-67149335D01*
X129551831Y-66971208D01*
X129171186Y-66768547D01*
X128803083Y-66541660D01*
X128448247Y-66290858D01*
X128107401Y-66016452D01*
X128002953Y-65925090D01*
X127688996Y-65626965D01*
X127395196Y-65311141D01*
X127122266Y-64978881D01*
X126870914Y-64631446D01*
X126641851Y-64270097D01*
X126435787Y-63896095D01*
X126253432Y-63510702D01*
X126095496Y-63115179D01*
X125962689Y-62710787D01*
X125855722Y-62298789D01*
X125796431Y-62005596D01*
X125760502Y-61790301D01*
X125732655Y-61588814D01*
X125712186Y-61392982D01*
X125698391Y-61194654D01*
X125690565Y-60985677D01*
X125688005Y-60757899D01*
X125688003Y-60750083D01*
X125693341Y-60437822D01*
X125709990Y-60143542D01*
X125738847Y-59859674D01*
X125780806Y-59578647D01*
X125836766Y-59292889D01*
X125885248Y-59083949D01*
X126000994Y-58670449D01*
X126142861Y-58264964D01*
X126310211Y-57868778D01*
X126502404Y-57483175D01*
X126718801Y-57109439D01*
X126958763Y-56748854D01*
X127216119Y-56409544D01*
X127262095Y-56353729D01*
X127316107Y-56289939D01*
X127375356Y-56221294D01*
X127437045Y-56150913D01*
X127498376Y-56081914D01*
X127556551Y-56017416D01*
X127608772Y-55960539D01*
X127652243Y-55914400D01*
X127684164Y-55882120D01*
X127701737Y-55866816D01*
X127703712Y-55865998D01*
X127716547Y-55875349D01*
G37*
G36*
X130427078Y-69718199D02*
G01*
X130599877Y-69718363D01*
X130747213Y-69718809D01*
X130871219Y-69719587D01*
X130974025Y-69720747D01*
X131057761Y-69722339D01*
X131124559Y-69724412D01*
X131176549Y-69727017D01*
X131215862Y-69730204D01*
X131244629Y-69734022D01*
X131262348Y-69737793D01*
X131380775Y-69781919D01*
X131480909Y-69846542D01*
X131563106Y-69932003D01*
X131627724Y-70038644D01*
X131660010Y-70118144D01*
X131666741Y-70139699D01*
X131672207Y-70163174D01*
X131676537Y-70191548D01*
X131679859Y-70227801D01*
X131682300Y-70274913D01*
X131683991Y-70335863D01*
X131685057Y-70413632D01*
X131685628Y-70511199D01*
X131685832Y-70631544D01*
X131685831Y-70718307D01*
X131685720Y-70852883D01*
X131685406Y-70962861D01*
X131684739Y-71051233D01*
X131683568Y-71120996D01*
X131681745Y-71175144D01*
X131679118Y-71216670D01*
X131675538Y-71248570D01*
X131670855Y-71273839D01*
X131664919Y-71295470D01*
X131657580Y-71316459D01*
X131655611Y-71321686D01*
X131604129Y-71426669D01*
X131535637Y-71519615D01*
X131454856Y-71594915D01*
X131392052Y-71634890D01*
X131374042Y-71645478D01*
X131371541Y-71655323D01*
X131386977Y-71670419D01*
X131414775Y-71690958D01*
X131455142Y-71722974D01*
X131490703Y-71758326D01*
X131522587Y-71799735D01*
X131551925Y-71849920D01*
X131579846Y-71911601D01*
X131607479Y-71987499D01*
X131635954Y-72080333D01*
X131666401Y-72192824D01*
X131699949Y-72327692D01*
X131727629Y-72444326D01*
X131753440Y-72554532D01*
X131778094Y-72659621D01*
X131800664Y-72755647D01*
X131820221Y-72838667D01*
X131835836Y-72904736D01*
X131846581Y-72949912D01*
X131849913Y-72963744D01*
X131869217Y-73043076D01*
X131594820Y-73043076D01*
X131511201Y-73042744D01*
X131437854Y-73041816D01*
X131378923Y-73040399D01*
X131338550Y-73038597D01*
X131320875Y-73036516D01*
X131320424Y-73036116D01*
X131317715Y-73021482D01*
X131310001Y-72982874D01*
X131297907Y-72923331D01*
X131282053Y-72845893D01*
X131263062Y-72753600D01*
X131241557Y-72649491D01*
X131218159Y-72536605D01*
X131217406Y-72532977D01*
X131187571Y-72390603D01*
X131162004Y-72272434D01*
X131139798Y-72175570D01*
X131120043Y-72097113D01*
X131101830Y-72034165D01*
X131084248Y-71983825D01*
X131066390Y-71943196D01*
X131047345Y-71909379D01*
X131026205Y-71879474D01*
X131004072Y-71852868D01*
X130938758Y-71796614D01*
X130854446Y-71751838D01*
X130758650Y-71722362D01*
X130740925Y-71719003D01*
X130695242Y-71713901D01*
X130628702Y-71710072D01*
X130548021Y-71707744D01*
X130459917Y-71707148D01*
X130409832Y-71707656D01*
X130168387Y-71711680D01*
X130164805Y-72377378D01*
X130161224Y-73043076D01*
X129913013Y-73043076D01*
X129664802Y-73043076D01*
X129664802Y-71380556D01*
X129664802Y-71249486D01*
X130161489Y-71249486D01*
X130606437Y-71249282D01*
X130741351Y-71248900D01*
X130850770Y-71247839D01*
X130936788Y-71246022D01*
X131001497Y-71243373D01*
X131046991Y-71239816D01*
X131075363Y-71235274D01*
X131085464Y-71231835D01*
X131115665Y-71208925D01*
X131146214Y-71174678D01*
X131150999Y-71167912D01*
X131160023Y-71153810D01*
X131167133Y-71139166D01*
X131172556Y-71120697D01*
X131176520Y-71095118D01*
X131179253Y-71059146D01*
X131180985Y-71009496D01*
X131181944Y-70942885D01*
X131182357Y-70856029D01*
X131182454Y-70745644D01*
X131182456Y-70715581D01*
X131182231Y-70594231D01*
X131181463Y-70497445D01*
X131180011Y-70422197D01*
X131177737Y-70365462D01*
X131174499Y-70324214D01*
X131170157Y-70295426D01*
X131164573Y-70276073D01*
X131161839Y-70270062D01*
X131150308Y-70248389D01*
X131138509Y-70230865D01*
X131123566Y-70217049D01*
X131102604Y-70206499D01*
X131072748Y-70198776D01*
X131031121Y-70193438D01*
X130974850Y-70190046D01*
X130901058Y-70188158D01*
X130806869Y-70187334D01*
X130689409Y-70187133D01*
X130620613Y-70187128D01*
X130161489Y-70187128D01*
X130161489Y-70718307D01*
X130161489Y-71249486D01*
X129664802Y-71249486D01*
X129664802Y-70718307D01*
X129664802Y-69718035D01*
X130427078Y-69718199D01*
G37*
G36*
X126574308Y-69952014D02*
G01*
X126574308Y-70187128D01*
X125922027Y-70187128D01*
X125766325Y-70187120D01*
X125635837Y-70187275D01*
X125528185Y-70187862D01*
X125440988Y-70189148D01*
X125371870Y-70191404D01*
X125318450Y-70194897D01*
X125278349Y-70199897D01*
X125249188Y-70206671D01*
X125228589Y-70215489D01*
X125214172Y-70226620D01*
X125203558Y-70240331D01*
X125194369Y-70256892D01*
X125187646Y-70270062D01*
X125180764Y-70288520D01*
X125175523Y-70316133D01*
X125171728Y-70356316D01*
X125169184Y-70412481D01*
X125167699Y-70488040D01*
X125167079Y-70586406D01*
X125167029Y-70632980D01*
X125166657Y-70738895D01*
X125167153Y-70826217D01*
X125170934Y-70896734D01*
X125180420Y-70952235D01*
X125198028Y-70994505D01*
X125226177Y-71025334D01*
X125267285Y-71046508D01*
X125323770Y-71059815D01*
X125398051Y-71067043D01*
X125492545Y-71069979D01*
X125609671Y-71070412D01*
X125751848Y-71070128D01*
X125758397Y-71070127D01*
X125882457Y-71070255D01*
X125982358Y-71070758D01*
X126061538Y-71071814D01*
X126123431Y-71073598D01*
X126171473Y-71076290D01*
X126209099Y-71080065D01*
X126239745Y-71085101D01*
X126266846Y-71091576D01*
X126286570Y-71097376D01*
X126400344Y-71146805D01*
X126500737Y-71218949D01*
X126584882Y-71311010D01*
X126649912Y-71420193D01*
X126671867Y-71473310D01*
X126680762Y-71499257D01*
X126687873Y-71524914D01*
X126693455Y-71553783D01*
X126697760Y-71589367D01*
X126701044Y-71635169D01*
X126703559Y-71694692D01*
X126705559Y-71771439D01*
X126707299Y-71868912D01*
X126708959Y-71985249D01*
X126710462Y-72135570D01*
X126710377Y-72261498D01*
X126708424Y-72366204D01*
X126704323Y-72452858D01*
X126697794Y-72524631D01*
X126688559Y-72584691D01*
X126676335Y-72636211D01*
X126660846Y-72682360D01*
X126643966Y-72721738D01*
X126582483Y-72821492D01*
X126499977Y-72906581D01*
X126400536Y-72973777D01*
X126288248Y-73019853D01*
X126255438Y-73028444D01*
X126227916Y-73031532D01*
X126174570Y-73034309D01*
X126097168Y-73036746D01*
X125997480Y-73038812D01*
X125877274Y-73040475D01*
X125738318Y-73041705D01*
X125582381Y-73042472D01*
X125432619Y-73042739D01*
X124670343Y-73043076D01*
X124670343Y-72808530D01*
X124670343Y-72573983D01*
X125374667Y-72573983D01*
X125538984Y-72573962D01*
X125677966Y-72573744D01*
X125793870Y-72573100D01*
X125888956Y-72571798D01*
X125965480Y-72569609D01*
X126025701Y-72566300D01*
X126071877Y-72561643D01*
X126106267Y-72555405D01*
X126131129Y-72547357D01*
X126148720Y-72537268D01*
X126161299Y-72524907D01*
X126171124Y-72510044D01*
X126180453Y-72492448D01*
X126180864Y-72491654D01*
X126188065Y-72463436D01*
X126193928Y-72412342D01*
X126198453Y-72343058D01*
X126201640Y-72260267D01*
X126203490Y-72168655D01*
X126204002Y-72072908D01*
X126203176Y-71977709D01*
X126201013Y-71887745D01*
X126197512Y-71807701D01*
X126192673Y-71742261D01*
X126186496Y-71696111D01*
X126180864Y-71676736D01*
X126168575Y-71654894D01*
X126154697Y-71637296D01*
X126136296Y-71623484D01*
X126110437Y-71612997D01*
X126074188Y-71605375D01*
X126024614Y-71600160D01*
X125958781Y-71596890D01*
X125873755Y-71595106D01*
X125766603Y-71594349D01*
X125654053Y-71594167D01*
X125500176Y-71593404D01*
X125370755Y-71590800D01*
X125262676Y-71585599D01*
X125172822Y-71577046D01*
X125098077Y-71564386D01*
X125035328Y-71546863D01*
X124981456Y-71523723D01*
X124933348Y-71494209D01*
X124887888Y-71457566D01*
X124841959Y-71413039D01*
X124822489Y-71392564D01*
X124786587Y-71353505D01*
X124757160Y-71318344D01*
X124733536Y-71283870D01*
X124715045Y-71246868D01*
X124701013Y-71204125D01*
X124690769Y-71152428D01*
X124683640Y-71088562D01*
X124678956Y-71009314D01*
X124676044Y-70911472D01*
X124674232Y-70791820D01*
X124673122Y-70678218D01*
X124672084Y-70550881D01*
X124671565Y-70447817D01*
X124671705Y-70365708D01*
X124672644Y-70301238D01*
X124674523Y-70251087D01*
X124677482Y-70211938D01*
X124681661Y-70180473D01*
X124687199Y-70153375D01*
X124694238Y-70127325D01*
X124696750Y-70118934D01*
X124745222Y-70003894D01*
X124815515Y-69905677D01*
X124907340Y-69824597D01*
X125020406Y-69760968D01*
X125030939Y-69756394D01*
X125047619Y-69749497D01*
X125064118Y-69743676D01*
X125082842Y-69738825D01*
X125106196Y-69734839D01*
X125136585Y-69731612D01*
X125176416Y-69729039D01*
X125228093Y-69727014D01*
X125294022Y-69725432D01*
X125376608Y-69724187D01*
X125478257Y-69723173D01*
X125601374Y-69722286D01*
X125748365Y-69721419D01*
X125839626Y-69720916D01*
X126574308Y-69716899D01*
X126574308Y-69952014D01*
G37*
G36*
X136411462Y-69952014D02*
G01*
X136411462Y-70187128D01*
X135769223Y-70187128D01*
X135612357Y-70187152D01*
X135480720Y-70187408D01*
X135371948Y-70188177D01*
X135283677Y-70189737D01*
X135213541Y-70192369D01*
X135159176Y-70196350D01*
X135118217Y-70201962D01*
X135088301Y-70209482D01*
X135067063Y-70219190D01*
X135052138Y-70231366D01*
X135041162Y-70246289D01*
X135031770Y-70264238D01*
X135026739Y-70274836D01*
X135019147Y-70294977D01*
X135013416Y-70321672D01*
X135009307Y-70358707D01*
X135006579Y-70409871D01*
X135004994Y-70478952D01*
X135004312Y-70569737D01*
X135004234Y-70630713D01*
X135004432Y-70731954D01*
X135005183Y-70809479D01*
X135006783Y-70867165D01*
X135009528Y-70908887D01*
X135013713Y-70938521D01*
X135019634Y-70959945D01*
X135027585Y-70977034D01*
X135031090Y-70983016D01*
X135043834Y-71003235D01*
X135056841Y-71019743D01*
X135072912Y-71032959D01*
X135094846Y-71043304D01*
X135125444Y-71051198D01*
X135167506Y-71057061D01*
X135223833Y-71061315D01*
X135297224Y-71064380D01*
X135390480Y-71066676D01*
X135506401Y-71068623D01*
X135611244Y-71070127D01*
X136101032Y-71077025D01*
X136192414Y-71120322D01*
X136301453Y-71184874D01*
X136391876Y-71267649D01*
X136454236Y-71350173D01*
X136478261Y-71389429D01*
X136497913Y-71428091D01*
X136513624Y-71469382D01*
X136525823Y-71516523D01*
X136534942Y-71572737D01*
X136541411Y-71641245D01*
X136545662Y-71725269D01*
X136548126Y-71828031D01*
X136549232Y-71952754D01*
X136549430Y-72062095D01*
X136548918Y-72194003D01*
X136547436Y-72311252D01*
X136545062Y-72411167D01*
X136541876Y-72491075D01*
X136537957Y-72548300D01*
X136534183Y-72576753D01*
X136498337Y-72690916D01*
X136442160Y-72794911D01*
X136369081Y-72883987D01*
X136282529Y-72953391D01*
X136248280Y-72972877D01*
X136219061Y-72987377D01*
X136191083Y-72999730D01*
X136161954Y-73010109D01*
X136129283Y-73018685D01*
X136090679Y-73025631D01*
X136043751Y-73031117D01*
X135986109Y-73035315D01*
X135915361Y-73038398D01*
X135829115Y-73040536D01*
X135724982Y-73041901D01*
X135600569Y-73042665D01*
X135453487Y-73042999D01*
X135281343Y-73043076D01*
X135270323Y-73043076D01*
X134507496Y-73043076D01*
X134507496Y-72808530D01*
X134507496Y-72573983D01*
X135214585Y-72573494D01*
X135376987Y-72573376D01*
X135514099Y-72573117D01*
X135628221Y-72572498D01*
X135721657Y-72571297D01*
X135796708Y-72569295D01*
X135855677Y-72566271D01*
X135900866Y-72562005D01*
X135934578Y-72556277D01*
X135959115Y-72548866D01*
X135976778Y-72539552D01*
X135989872Y-72528114D01*
X136000697Y-72514332D01*
X136011556Y-72497987D01*
X136012093Y-72497170D01*
X136020122Y-72483260D01*
X136026365Y-72466539D01*
X136031045Y-72443579D01*
X136034388Y-72410957D01*
X136036615Y-72365244D01*
X136037952Y-72303016D01*
X136038620Y-72220845D01*
X136038844Y-72115307D01*
X136038856Y-72086959D01*
X136038633Y-71971500D01*
X136037790Y-71880412D01*
X136036166Y-71810474D01*
X136033596Y-71758467D01*
X136029916Y-71721172D01*
X136024964Y-71695368D01*
X136018575Y-71677837D01*
X136018018Y-71676736D01*
X136006779Y-71656527D01*
X135994179Y-71640031D01*
X135977448Y-71626836D01*
X135953816Y-71616531D01*
X135920514Y-71608705D01*
X135874771Y-71602945D01*
X135813818Y-71598842D01*
X135734885Y-71595982D01*
X135635202Y-71593954D01*
X135511999Y-71592348D01*
X135445094Y-71591621D01*
X135317282Y-71590190D01*
X135213890Y-71588753D01*
X135131745Y-71587104D01*
X135067675Y-71585039D01*
X135018505Y-71582354D01*
X134981063Y-71578845D01*
X134952177Y-71574307D01*
X134928673Y-71568535D01*
X134907378Y-71561326D01*
X134894123Y-71556138D01*
X134775101Y-71494775D01*
X134676044Y-71415010D01*
X134597881Y-71317778D01*
X134541542Y-71204014D01*
X134540069Y-71199998D01*
X134531159Y-71174617D01*
X134524042Y-71150638D01*
X134518517Y-71124707D01*
X134514381Y-71093472D01*
X134511435Y-71053580D01*
X134509476Y-71001677D01*
X134508304Y-70934411D01*
X134507718Y-70848429D01*
X134507517Y-70740378D01*
X134507496Y-70657047D01*
X134507617Y-70531168D01*
X134508094Y-70429514D01*
X134509095Y-70348717D01*
X134510791Y-70285409D01*
X134513351Y-70236223D01*
X134516945Y-70197789D01*
X134521742Y-70166741D01*
X134527913Y-70139710D01*
X134534745Y-70116148D01*
X134584057Y-70000365D01*
X134654463Y-69902361D01*
X134745864Y-69822242D01*
X134858166Y-69760112D01*
X134866214Y-69756687D01*
X134883273Y-69749727D01*
X134900023Y-69743853D01*
X134918876Y-69738958D01*
X134942241Y-69734937D01*
X134972530Y-69731683D01*
X135012151Y-69729090D01*
X135063517Y-69727050D01*
X135129036Y-69725459D01*
X135211120Y-69724209D01*
X135312179Y-69723194D01*
X135434622Y-69722308D01*
X135580861Y-69721445D01*
X135676779Y-69720916D01*
X136411462Y-69716899D01*
X136411462Y-69952014D01*
G37*
G36*
X138853504Y-69952582D02*
G01*
X138853504Y-70187128D01*
X138206111Y-70187128D01*
X137558717Y-70187128D01*
X137516672Y-70222507D01*
X137484518Y-70259873D01*
X137461934Y-70304049D01*
X137460503Y-70308737D01*
X137456122Y-70338154D01*
X137452288Y-70389954D01*
X137449228Y-70458931D01*
X137447167Y-70539877D01*
X137446331Y-70627584D01*
X137446324Y-70635526D01*
X137446869Y-70742101D01*
X137449120Y-70824999D01*
X137453930Y-70888124D01*
X137462151Y-70935381D01*
X137474634Y-70970672D01*
X137492231Y-70997903D01*
X137515794Y-71020976D01*
X137533431Y-71034654D01*
X137544898Y-71042252D01*
X137558438Y-71048437D01*
X137576960Y-71053406D01*
X137603372Y-71057357D01*
X137640580Y-71060488D01*
X137691494Y-71062997D01*
X137759022Y-71065080D01*
X137846070Y-71066936D01*
X137955549Y-71068762D01*
X138057711Y-71070283D01*
X138186780Y-71072225D01*
X138291406Y-71074057D01*
X138374739Y-71075997D01*
X138439928Y-71078261D01*
X138490123Y-71081067D01*
X138528472Y-71084631D01*
X138558124Y-71089172D01*
X138582230Y-71094907D01*
X138603937Y-71102051D01*
X138622435Y-71109227D01*
X138732059Y-71167745D01*
X138826250Y-71247619D01*
X138901999Y-71345568D01*
X138956298Y-71458308D01*
X138964223Y-71482036D01*
X138971465Y-71507183D01*
X138977306Y-71533304D01*
X138981895Y-71563576D01*
X138985380Y-71601174D01*
X138987910Y-71649275D01*
X138989634Y-71711053D01*
X138990701Y-71789686D01*
X138991260Y-71888348D01*
X138991460Y-72010216D01*
X138991472Y-72063500D01*
X138991371Y-72195068D01*
X138990966Y-72302223D01*
X138990109Y-72388145D01*
X138988652Y-72456014D01*
X138986444Y-72509009D01*
X138983337Y-72550311D01*
X138979182Y-72583100D01*
X138973830Y-72610556D01*
X138967132Y-72635858D01*
X138964190Y-72645611D01*
X138915106Y-72760072D01*
X138844355Y-72857959D01*
X138753437Y-72937688D01*
X138643850Y-72997674D01*
X138623080Y-73005942D01*
X138605477Y-73012359D01*
X138587792Y-73017812D01*
X138567700Y-73022391D01*
X138542876Y-73026188D01*
X138510997Y-73029294D01*
X138469737Y-73031801D01*
X138416772Y-73033798D01*
X138349778Y-73035378D01*
X138266431Y-73036632D01*
X138164404Y-73037651D01*
X138041376Y-73038525D01*
X137895019Y-73039347D01*
X137753205Y-73040059D01*
X136963336Y-73043940D01*
X136963336Y-72808962D01*
X136963336Y-72573983D01*
X137672013Y-72573983D01*
X137829892Y-72573965D01*
X137962520Y-72573849D01*
X138072240Y-72573542D01*
X138161395Y-72572948D01*
X138232327Y-72571974D01*
X138287380Y-72570527D01*
X138328896Y-72568513D01*
X138359217Y-72565838D01*
X138380687Y-72562407D01*
X138395649Y-72558128D01*
X138406445Y-72552905D01*
X138415417Y-72546647D01*
X138418714Y-72544073D01*
X138440876Y-72524852D01*
X138458284Y-72503802D01*
X138471508Y-72477493D01*
X138481114Y-72442495D01*
X138487670Y-72395378D01*
X138491743Y-72332712D01*
X138493900Y-72251066D01*
X138494709Y-72147010D01*
X138494786Y-72084195D01*
X138494448Y-71968094D01*
X138493085Y-71876109D01*
X138490174Y-71804766D01*
X138485194Y-71750591D01*
X138477621Y-71710111D01*
X138466933Y-71679852D01*
X138452608Y-71656341D01*
X138434122Y-71636103D01*
X138426291Y-71628899D01*
X138416836Y-71621554D01*
X138404690Y-71615568D01*
X138386990Y-71610747D01*
X138360877Y-71606896D01*
X138323490Y-71603824D01*
X138271970Y-71601336D01*
X138203456Y-71599239D01*
X138115088Y-71597340D01*
X138004006Y-71595444D01*
X137910454Y-71594005D01*
X137780811Y-71591964D01*
X137675597Y-71590007D01*
X137591648Y-71587924D01*
X137525800Y-71585508D01*
X137474889Y-71582552D01*
X137435752Y-71578846D01*
X137405224Y-71574184D01*
X137380143Y-71568358D01*
X137357345Y-71561158D01*
X137345524Y-71556871D01*
X137234805Y-71501759D01*
X137136427Y-71425393D01*
X137054938Y-71332166D01*
X136994886Y-71226468D01*
X136989209Y-71212837D01*
X136980201Y-71189300D01*
X136972999Y-71166365D01*
X136967360Y-71140640D01*
X136963043Y-71108735D01*
X136959806Y-71067261D01*
X136957407Y-71012827D01*
X136955604Y-70942042D01*
X136954155Y-70851517D01*
X136952819Y-70737861D01*
X136952381Y-70696576D01*
X136951310Y-70556035D01*
X136951539Y-70439732D01*
X136953400Y-70344326D01*
X136957225Y-70266480D01*
X136963346Y-70202852D01*
X136972095Y-70150105D01*
X136983803Y-70104898D01*
X136998802Y-70063892D01*
X137017425Y-70023748D01*
X137019673Y-70019312D01*
X137059668Y-69957097D01*
X137114188Y-69893604D01*
X137174919Y-69837372D01*
X137233545Y-69796939D01*
X137238999Y-69794080D01*
X137271840Y-69777695D01*
X137302064Y-69763851D01*
X137332240Y-69752334D01*
X137364940Y-69742929D01*
X137402732Y-69735422D01*
X137448188Y-69729600D01*
X137503877Y-69725248D01*
X137572369Y-69722153D01*
X137656235Y-69720100D01*
X137758045Y-69718876D01*
X137880368Y-69718267D01*
X138025775Y-69718058D01*
X138152369Y-69718035D01*
X138853504Y-69718035D01*
X138853504Y-69952582D01*
G37*
G36*
X129178384Y-58179335D02*
G01*
X129431671Y-58204038D01*
X129630310Y-58233347D01*
X130043985Y-58315871D01*
X130448356Y-58423831D01*
X130842508Y-58556374D01*
X131225522Y-58712647D01*
X131596480Y-58891797D01*
X131954466Y-59092973D01*
X132298561Y-59315320D01*
X132627849Y-59557987D01*
X132941411Y-59820119D01*
X133238331Y-60100866D01*
X133517691Y-60399373D01*
X133778572Y-60714788D01*
X134020059Y-61046258D01*
X134241232Y-61392930D01*
X134441176Y-61753952D01*
X134618971Y-62128471D01*
X134773702Y-62515633D01*
X134904449Y-62914587D01*
X134983275Y-63208869D01*
X135036072Y-63439440D01*
X135078496Y-63656775D01*
X135111473Y-63868238D01*
X135135927Y-64081197D01*
X135152783Y-64303016D01*
X135162967Y-64541062D01*
X135165727Y-64661490D01*
X135166835Y-64926763D01*
X135160180Y-65171889D01*
X135145290Y-65403331D01*
X135121697Y-65627553D01*
X135088932Y-65851020D01*
X135072558Y-65944916D01*
X135057427Y-66028016D01*
X134869141Y-66108067D01*
X134792568Y-66139271D01*
X134698358Y-66175582D01*
X134595183Y-66213776D01*
X134491713Y-66250631D01*
X134415506Y-66276666D01*
X134150158Y-66365215D01*
X133635535Y-66219030D01*
X133521049Y-66186341D01*
X133414888Y-66155706D01*
X133319987Y-66127996D01*
X133239278Y-66104082D01*
X133175697Y-66084836D01*
X133132177Y-66071127D01*
X133111653Y-66063828D01*
X133110524Y-66063177D01*
X133109912Y-66047122D01*
X133114897Y-66008949D01*
X133124672Y-65953383D01*
X133138434Y-65885148D01*
X133149328Y-65835387D01*
X133180725Y-65691310D01*
X133205570Y-65564321D01*
X133224702Y-65447362D01*
X133238957Y-65333374D01*
X133249172Y-65215299D01*
X133256184Y-65086080D01*
X133260830Y-64938658D01*
X133261975Y-64885409D01*
X133264089Y-64719480D01*
X133263146Y-64574604D01*
X133258732Y-64444369D01*
X133250436Y-64322361D01*
X133237844Y-64202166D01*
X133220544Y-64077371D01*
X133203052Y-63970006D01*
X133129151Y-63620114D01*
X133028901Y-63277950D01*
X132902665Y-62944310D01*
X132750801Y-62619990D01*
X132573671Y-62305786D01*
X132371635Y-62002493D01*
X132222322Y-61805542D01*
X132155817Y-61726292D01*
X132073430Y-61634701D01*
X131979988Y-61535614D01*
X131880315Y-61433875D01*
X131779240Y-61334329D01*
X131681586Y-61241821D01*
X131592182Y-61161196D01*
X131520279Y-61100813D01*
X131220943Y-60878332D01*
X130913810Y-60682264D01*
X130598619Y-60512477D01*
X130275109Y-60368839D01*
X129943018Y-60251218D01*
X129706193Y-60184516D01*
X129573685Y-60153129D01*
X129437306Y-60124643D01*
X129303718Y-60100229D01*
X129179584Y-60081055D01*
X129071565Y-60068293D01*
X129022672Y-60064501D01*
X128956069Y-60061355D01*
X128908852Y-60061721D01*
X128872938Y-60066462D01*
X128840248Y-60076442D01*
X128815891Y-60086592D01*
X128746818Y-60123708D01*
X128694969Y-60169409D01*
X128650051Y-60232870D01*
X128648113Y-60236145D01*
X128620148Y-60304836D01*
X128605877Y-60386119D01*
X128606787Y-60467841D01*
X128614667Y-60509961D01*
X128650379Y-60591572D01*
X128707947Y-60662843D01*
X128782341Y-60719645D01*
X128868529Y-60757849D01*
X128932985Y-60771291D01*
X129246996Y-60819300D01*
X129557654Y-60891079D01*
X129861637Y-60985381D01*
X130155623Y-61100961D01*
X130436292Y-61236573D01*
X130700321Y-61390971D01*
X130843352Y-61487801D01*
X131084738Y-61675125D01*
X131315746Y-61883929D01*
X131531970Y-62109665D01*
X131729004Y-62347786D01*
X131876567Y-62554214D01*
X132043998Y-62829255D01*
X132187391Y-63114615D01*
X132307889Y-63412880D01*
X132406634Y-63726636D01*
X132424416Y-63793575D01*
X132476411Y-64021844D01*
X132512985Y-64246394D01*
X132535640Y-64477949D01*
X132543949Y-64647693D01*
X132541251Y-64978411D01*
X132512036Y-65304781D01*
X132456065Y-65628046D01*
X132373101Y-65949449D01*
X132262907Y-66270235D01*
X132207726Y-66406791D01*
X132140761Y-66565455D01*
X132078963Y-66567733D01*
X132039767Y-66566965D01*
X131981782Y-66563115D01*
X131913556Y-66556845D01*
X131858501Y-66550672D01*
X131737120Y-66534059D01*
X131603424Y-66512676D01*
X131466487Y-66488178D01*
X131335382Y-66462220D01*
X131219181Y-66436457D01*
X131180223Y-66426912D01*
X131141562Y-66416753D01*
X131107282Y-66406340D01*
X131074002Y-66393859D01*
X131038341Y-66377494D01*
X130996921Y-66355429D01*
X130946359Y-66325847D01*
X130883277Y-66286934D01*
X130804294Y-66236874D01*
X130706029Y-66173851D01*
X130690435Y-66163822D01*
X130601889Y-66106832D01*
X130521089Y-66054762D01*
X130450881Y-66009454D01*
X130394116Y-65972748D01*
X130353640Y-65946485D01*
X130332304Y-65932506D01*
X130329723Y-65930729D01*
X130334339Y-65917996D01*
X130350163Y-65886685D01*
X130374462Y-65842032D01*
X130394267Y-65807008D01*
X130494922Y-65607391D01*
X130570727Y-65401983D01*
X130622265Y-65188293D01*
X130650120Y-64963829D01*
X130654875Y-64726098D01*
X130653968Y-64697825D01*
X130634928Y-64468595D01*
X130594554Y-64253462D01*
X130531455Y-64048137D01*
X130444240Y-63848329D01*
X130331518Y-63649748D01*
X130296812Y-63596210D01*
X130220760Y-63492625D01*
X130127632Y-63382925D01*
X130023785Y-63273557D01*
X129915579Y-63170968D01*
X129809370Y-63081604D01*
X129737109Y-63028666D01*
X129555156Y-62918266D01*
X129362104Y-62825026D01*
X129164279Y-62751528D01*
X128968005Y-62700359D01*
X128905975Y-62689029D01*
X128845457Y-62679246D01*
X128767766Y-62666761D01*
X128682985Y-62653191D01*
X128602445Y-62640351D01*
X128461364Y-62614119D01*
X128333393Y-62581334D01*
X128209118Y-62538932D01*
X128079125Y-62483847D01*
X127988485Y-62440475D01*
X127779078Y-62321499D01*
X127584833Y-62180393D01*
X127407101Y-62018913D01*
X127247232Y-61838819D01*
X127106576Y-61641866D01*
X126986482Y-61429812D01*
X126888300Y-61204414D01*
X126813381Y-60967430D01*
X126793526Y-60884884D01*
X126776238Y-60783505D01*
X126763970Y-60662609D01*
X126756853Y-60529837D01*
X126755020Y-60392830D01*
X126758601Y-60259227D01*
X126767728Y-60136669D01*
X126779186Y-60051270D01*
X126834719Y-59805680D01*
X126915207Y-59570465D01*
X127019632Y-59347196D01*
X127146973Y-59137447D01*
X127296211Y-58942790D01*
X127466326Y-58764799D01*
X127656299Y-58605046D01*
X127767735Y-58526284D01*
X127946603Y-58418476D01*
X128129171Y-58330689D01*
X128317751Y-58262558D01*
X128514652Y-58213720D01*
X128722184Y-58183813D01*
X128942658Y-58172472D01*
X129178384Y-58179335D01*
G37*
D14*
%TO.C,U3*%
X165375000Y-59090000D02*
X180615000Y-59090000D01*
X165375000Y-79410000D02*
X165375000Y-59090000D01*
X180615000Y-59090000D02*
X180615000Y-79410000D01*
X180615000Y-79410000D02*
X165375000Y-79410000D01*
D11*
X164695000Y-59800000D02*
G75*
G02*
X164495000Y-59800000I-100000J0D01*
G01*
X164495000Y-59800000D02*
G75*
G02*
X164695000Y-59800000I100000J0D01*
G01*
D14*
%TO.C,U4*%
X182870000Y-59090000D02*
X198110000Y-59090000D01*
X182870000Y-79410000D02*
X182870000Y-59090000D01*
X198110000Y-59090000D02*
X198110000Y-79410000D01*
X198110000Y-79410000D02*
X182870000Y-79410000D01*
D11*
X182190000Y-59800000D02*
G75*
G02*
X181990000Y-59800000I-100000J0D01*
G01*
X181990000Y-59800000D02*
G75*
G02*
X182190000Y-59800000I100000J0D01*
G01*
D14*
%TO.C,U2*%
X147880000Y-59090000D02*
X163120000Y-59090000D01*
X147880000Y-79410000D02*
X147880000Y-59090000D01*
X163120000Y-59090000D02*
X163120000Y-79410000D01*
X163120000Y-79410000D02*
X147880000Y-79410000D01*
D11*
X147200000Y-59800000D02*
G75*
G02*
X147000000Y-59800000I-100000J0D01*
G01*
X147000000Y-59800000D02*
G75*
G02*
X147200000Y-59800000I100000J0D01*
G01*
D15*
%TO.C,J5*%
X147844775Y-80890000D02*
X147844775Y-82190000D01*
X148144775Y-81190000D02*
X150144775Y-81190000D01*
X148144775Y-91390000D02*
X148144775Y-81190000D01*
X149544775Y-80890000D02*
X147844775Y-80890000D01*
X155344775Y-81190000D02*
X157344775Y-81190000D01*
X157344775Y-81190000D02*
X157344775Y-82490000D01*
X157344775Y-87090000D02*
X157344775Y-91390000D01*
X157344775Y-91390000D02*
X156024775Y-91390000D01*
X155544775Y-91390000D02*
X154224775Y-91390000D01*
X153744775Y-91390000D02*
X152424775Y-91390000D01*
X151944775Y-91390000D02*
X150624775Y-91390000D01*
X150144775Y-91390000D02*
X148824775Y-91390000D01*
X148344775Y-91390000D02*
X148144775Y-91390000D01*
%TO.C,J3*%
X171664775Y-82610000D02*
X172994775Y-82610000D01*
X171664775Y-83940000D02*
X171664775Y-82610000D01*
X174264775Y-82610000D02*
X181944775Y-82610000D01*
X174264775Y-85270000D02*
X174264775Y-82610000D01*
X174264775Y-85270000D02*
X181944775Y-85270000D01*
X181944775Y-85270000D02*
X181944775Y-82610000D01*
D13*
%TO.C,G\u002A\u002A\u002A*%
G36*
X187600646Y-87287726D02*
G01*
X187708280Y-87362686D01*
X187788443Y-87477456D01*
X187782787Y-87588269D01*
X187690234Y-87713021D01*
X187686979Y-87716293D01*
X187545314Y-87809872D01*
X187401562Y-87822464D01*
X187276858Y-87752581D01*
X187270340Y-87745620D01*
X187199958Y-87612115D01*
X187220702Y-87477586D01*
X187316261Y-87366088D01*
X187467265Y-87282266D01*
X187600646Y-87287726D01*
G37*
G36*
X187562492Y-88850602D02*
G01*
X187516926Y-89122591D01*
X187474786Y-89372697D01*
X187439316Y-89581760D01*
X187413765Y-89730622D01*
X187403677Y-89787871D01*
X187384702Y-89871768D01*
X187350622Y-89917288D01*
X187277354Y-89936167D01*
X187140813Y-89940139D01*
X187091074Y-89940177D01*
X186806158Y-89940177D01*
X186831130Y-89811303D01*
X186846735Y-89723483D01*
X186874257Y-89561269D01*
X186910669Y-89342797D01*
X186952944Y-89086201D01*
X186987589Y-88874033D01*
X187119077Y-88065638D01*
X187406348Y-88065638D01*
X187693618Y-88065638D01*
X187562492Y-88850602D01*
G37*
G36*
X184661482Y-87459641D02*
G01*
X184747218Y-87473125D01*
X184777462Y-87502573D01*
X184775229Y-87538424D01*
X184762614Y-87607184D01*
X184737748Y-87753958D01*
X184703025Y-87964190D01*
X184660843Y-88223317D01*
X184613596Y-88516783D01*
X184592075Y-88651432D01*
X184542763Y-88958866D01*
X184496869Y-89241632D01*
X184456937Y-89484319D01*
X184425512Y-89671518D01*
X184405137Y-89787818D01*
X184400595Y-89811303D01*
X184379424Y-89883215D01*
X184338255Y-89921756D01*
X184252597Y-89937288D01*
X184097962Y-89940177D01*
X184096069Y-89940177D01*
X183920482Y-89931715D01*
X183831646Y-89905556D01*
X183817697Y-89881598D01*
X183824839Y-89821021D01*
X183845417Y-89681055D01*
X183877381Y-89474749D01*
X183918685Y-89215153D01*
X183967280Y-88915316D01*
X184012598Y-88639716D01*
X184208414Y-87456413D01*
X184501192Y-87456413D01*
X184661482Y-87459641D01*
G37*
G36*
X190519205Y-88982820D02*
G01*
X190541159Y-89077098D01*
X190573317Y-89176937D01*
X190641114Y-89340837D01*
X190736193Y-89550100D01*
X190850193Y-89786030D01*
X190919792Y-89924019D01*
X191040543Y-90165929D01*
X191146970Y-90390888D01*
X191230780Y-90580456D01*
X191283681Y-90716193D01*
X191296832Y-90762447D01*
X191304548Y-91023540D01*
X191222904Y-91262122D01*
X191110960Y-91420609D01*
X190953699Y-91602533D01*
X190919550Y-91354242D01*
X190895270Y-91225335D01*
X190853842Y-91090509D01*
X190788340Y-90934681D01*
X190691843Y-90742771D01*
X190557425Y-90499697D01*
X190410718Y-90245924D01*
X190301776Y-90051417D01*
X190235683Y-89905997D01*
X190202483Y-89781312D01*
X190192223Y-89649013D01*
X190192044Y-89623117D01*
X190218471Y-89397515D01*
X190289254Y-89182931D01*
X190391651Y-89013149D01*
X190440924Y-88963405D01*
X190488586Y-88940482D01*
X190519205Y-88982820D01*
G37*
G36*
X191952392Y-85764068D02*
G01*
X191982614Y-85868855D01*
X191992388Y-85923681D01*
X192024896Y-86051247D01*
X192088498Y-86234772D01*
X192172892Y-86446128D01*
X192236942Y-86591486D01*
X192379392Y-86905846D01*
X192484853Y-87150507D01*
X192558322Y-87339567D01*
X192604795Y-87487124D01*
X192629268Y-87607277D01*
X192636738Y-87714125D01*
X192636755Y-87719718D01*
X192592441Y-87979745D01*
X192460319Y-88207743D01*
X192381955Y-88290484D01*
X192266651Y-88398170D01*
X192234603Y-88114905D01*
X192208427Y-87965807D01*
X192158551Y-87802633D01*
X192077558Y-87606104D01*
X191958026Y-87356943D01*
X191895578Y-87233971D01*
X191774362Y-86995567D01*
X191690742Y-86821153D01*
X191638436Y-86691902D01*
X191611160Y-86588982D01*
X191602633Y-86493564D01*
X191606571Y-86386817D01*
X191607674Y-86371076D01*
X191636632Y-86207481D01*
X191693825Y-86036496D01*
X191767479Y-85882467D01*
X191845820Y-85769744D01*
X191917075Y-85722672D01*
X191921336Y-85722465D01*
X191952392Y-85764068D01*
G37*
G36*
X191106948Y-86421392D02*
G01*
X191122935Y-86533899D01*
X191129306Y-86692059D01*
X191129313Y-86697991D01*
X191153159Y-87120521D01*
X191230398Y-87499904D01*
X191369579Y-87862632D01*
X191579256Y-88235193D01*
X191669114Y-88370251D01*
X191799737Y-88572946D01*
X191930039Y-88796083D01*
X192032969Y-88993214D01*
X192037546Y-89002908D01*
X192155809Y-89356686D01*
X192205347Y-89748236D01*
X192187718Y-90153321D01*
X192104484Y-90547705D01*
X191957202Y-90907155D01*
X191909683Y-90990149D01*
X191797697Y-91173146D01*
X191763048Y-90755831D01*
X191732874Y-90481308D01*
X191686586Y-90240678D01*
X191616061Y-90011416D01*
X191513180Y-89770991D01*
X191369821Y-89496878D01*
X191208886Y-89218565D01*
X191071453Y-88981020D01*
X190943020Y-88747662D01*
X190835767Y-88541408D01*
X190761876Y-88385173D01*
X190748076Y-88351591D01*
X190680030Y-88113521D01*
X190636157Y-87831689D01*
X190618196Y-87537950D01*
X190627883Y-87264162D01*
X190666957Y-87042182D01*
X190675229Y-87015999D01*
X190736389Y-86870746D01*
X190820846Y-86712268D01*
X190914090Y-86563158D01*
X191001608Y-86446005D01*
X191068889Y-86383400D01*
X191084701Y-86378554D01*
X191106948Y-86421392D01*
G37*
G36*
X197139553Y-87411208D02*
G01*
X197401930Y-87497307D01*
X197612024Y-87640719D01*
X197757695Y-87829006D01*
X197826801Y-88049728D01*
X197830789Y-88119432D01*
X197830789Y-88299956D01*
X197553332Y-88299956D01*
X197398249Y-88297479D01*
X197312048Y-88282363D01*
X197269889Y-88243077D01*
X197246933Y-88168091D01*
X197244374Y-88156535D01*
X197169599Y-88010580D01*
X197032506Y-87920903D01*
X196850914Y-87895176D01*
X196698822Y-87921682D01*
X196538093Y-87994460D01*
X196392550Y-88098904D01*
X196368961Y-88122201D01*
X196251050Y-88295110D01*
X196166601Y-88511109D01*
X196118964Y-88744933D01*
X196111485Y-88971314D01*
X196147511Y-89164986D01*
X196214891Y-89285074D01*
X196358183Y-89379231D01*
X196541416Y-89411690D01*
X196736996Y-89385740D01*
X196917328Y-89304670D01*
X197044622Y-89186167D01*
X197108419Y-89110999D01*
X197178215Y-89070024D01*
X197283814Y-89053022D01*
X197442466Y-89049771D01*
X197739469Y-89049771D01*
X197662438Y-89202078D01*
X197470090Y-89488700D01*
X197223736Y-89708764D01*
X196937054Y-89856281D01*
X196623724Y-89925261D01*
X196297424Y-89909716D01*
X196137653Y-89869655D01*
X195889403Y-89744328D01*
X195699285Y-89552022D01*
X195572208Y-89302910D01*
X195513081Y-89007161D01*
X195526812Y-88674948D01*
X195535554Y-88622073D01*
X195641995Y-88253094D01*
X195812299Y-87940902D01*
X196037937Y-87691932D01*
X196310382Y-87512622D01*
X196621109Y-87409409D01*
X196961590Y-87388730D01*
X197139553Y-87411208D01*
G37*
G36*
X183941629Y-87602862D02*
G01*
X183920432Y-87736227D01*
X183912339Y-87837179D01*
X183905433Y-87874407D01*
X183874408Y-87899362D01*
X183803805Y-87914466D01*
X183678166Y-87922146D01*
X183482031Y-87924826D01*
X183352101Y-87925048D01*
X182791863Y-87925048D01*
X182762216Y-88100786D01*
X182736567Y-88239553D01*
X182712692Y-88348581D01*
X182710071Y-88358535D01*
X182708098Y-88394892D01*
X182736330Y-88418634D01*
X182810161Y-88432397D01*
X182944982Y-88438817D01*
X183156185Y-88440532D01*
X183188929Y-88440546D01*
X183690285Y-88440546D01*
X183661238Y-88616284D01*
X183641968Y-88746297D01*
X183632018Y-88839565D01*
X183631674Y-88849016D01*
X183597191Y-88877864D01*
X183489277Y-88898884D01*
X183300334Y-88913140D01*
X183129387Y-88919311D01*
X182627615Y-88932613D01*
X182595156Y-89096635D01*
X182570913Y-89227189D01*
X182538887Y-89410099D01*
X182506900Y-89600417D01*
X182451103Y-89940177D01*
X182174157Y-89940177D01*
X182018872Y-89936828D01*
X181935489Y-89921697D01*
X181902274Y-89887156D01*
X181897210Y-89842988D01*
X181904747Y-89770808D01*
X181925912Y-89620313D01*
X181958533Y-89405574D01*
X182000440Y-89140661D01*
X182049461Y-88839645D01*
X182084664Y-88628000D01*
X182136849Y-88315750D01*
X182183445Y-88034899D01*
X182222325Y-87798433D01*
X182251362Y-87619338D01*
X182268430Y-87510601D01*
X182272118Y-87483308D01*
X182316524Y-87474744D01*
X182439918Y-87467307D01*
X182627564Y-87461462D01*
X182864724Y-87457677D01*
X183121518Y-87456413D01*
X183970918Y-87456413D01*
X183941629Y-87602862D01*
G37*
G36*
X185467633Y-88068608D02*
G01*
X185555231Y-88081187D01*
X185586519Y-88108883D01*
X185582996Y-88147649D01*
X185547697Y-88300441D01*
X185511752Y-88498161D01*
X185478378Y-88716567D01*
X185450791Y-88931418D01*
X185432210Y-89118474D01*
X185425851Y-89253492D01*
X185429812Y-89301934D01*
X185497060Y-89410726D01*
X185612079Y-89462205D01*
X185748176Y-89455980D01*
X185878657Y-89391658D01*
X185953814Y-89309650D01*
X185982707Y-89233773D01*
X186022155Y-89088779D01*
X186067247Y-88897989D01*
X186113074Y-88684727D01*
X186154724Y-88472318D01*
X186187286Y-88284084D01*
X186205850Y-88143349D01*
X186208338Y-88100786D01*
X186251091Y-88082246D01*
X186361898Y-88069510D01*
X186489830Y-88065638D01*
X186648622Y-88069782D01*
X186734318Y-88086189D01*
X186767337Y-88120828D01*
X186770470Y-88147649D01*
X186762692Y-88218985D01*
X186741452Y-88365977D01*
X186709343Y-88571937D01*
X186668953Y-88820180D01*
X186630420Y-89049771D01*
X186585334Y-89316533D01*
X186546255Y-89551042D01*
X186515724Y-89737771D01*
X186496284Y-89861196D01*
X186490371Y-89905030D01*
X186447474Y-89923511D01*
X186336454Y-89936242D01*
X186206526Y-89940177D01*
X185923221Y-89940177D01*
X185954753Y-89764439D01*
X185986285Y-89588701D01*
X185851434Y-89711850D01*
X185734250Y-89808215D01*
X185625403Y-89881560D01*
X185614221Y-89887588D01*
X185458171Y-89930148D01*
X185267683Y-89933028D01*
X185092703Y-89897347D01*
X185042221Y-89874779D01*
X184899856Y-89745463D01*
X184817577Y-89561308D01*
X184803545Y-89448111D01*
X184810064Y-89349792D01*
X184829686Y-89181463D01*
X184859501Y-88965463D01*
X184896601Y-88724131D01*
X184902704Y-88686579D01*
X185004384Y-88065638D01*
X185305062Y-88065638D01*
X185467633Y-88068608D01*
G37*
G36*
X194201542Y-88131786D02*
G01*
X194323560Y-88362601D01*
X194432058Y-88556657D01*
X194519714Y-88701750D01*
X194579202Y-88785674D01*
X194602264Y-88799590D01*
X194619563Y-88735751D01*
X194647683Y-88597426D01*
X194683219Y-88402770D01*
X194722763Y-88169937D01*
X194737792Y-88077354D01*
X194844833Y-87409550D01*
X195143686Y-87409550D01*
X195304866Y-87411586D01*
X195391854Y-87422689D01*
X195424174Y-87450349D01*
X195421345Y-87502056D01*
X195418497Y-87514993D01*
X195404018Y-87591184D01*
X195377103Y-87744707D01*
X195340334Y-87960375D01*
X195296290Y-88223005D01*
X195247551Y-88517410D01*
X195229393Y-88628000D01*
X195179365Y-88931932D01*
X195132940Y-89211257D01*
X195092753Y-89450345D01*
X195061437Y-89633571D01*
X195041623Y-89745306D01*
X195037933Y-89764439D01*
X195015466Y-89839332D01*
X194970557Y-89877671D01*
X194877203Y-89891593D01*
X194761817Y-89893314D01*
X194512100Y-89893314D01*
X194152007Y-89190362D01*
X194031206Y-88958264D01*
X193923580Y-88758475D01*
X193836802Y-88604684D01*
X193778544Y-88510583D01*
X193758067Y-88487410D01*
X193739436Y-88531115D01*
X193710426Y-88651605D01*
X193674322Y-88832939D01*
X193634414Y-89059176D01*
X193613077Y-89190362D01*
X193501935Y-89893314D01*
X193202306Y-89893314D01*
X192902678Y-89893314D01*
X192929076Y-89764439D01*
X192944309Y-89681005D01*
X192971953Y-89520687D01*
X193009376Y-89299113D01*
X193053945Y-89031909D01*
X193103027Y-88734704D01*
X193120537Y-88628000D01*
X193170333Y-88325888D01*
X193216360Y-88050097D01*
X193256040Y-87815813D01*
X193286791Y-87638220D01*
X193306034Y-87532504D01*
X193309641Y-87514993D01*
X193334983Y-87452890D01*
X193391205Y-87421307D01*
X193503769Y-87410369D01*
X193581494Y-87409550D01*
X193829305Y-87409550D01*
X194201542Y-88131786D01*
G37*
G36*
X189632840Y-87456413D02*
G01*
X189805665Y-87464297D01*
X189893167Y-87488965D01*
X189907665Y-87514993D01*
X189899324Y-87575632D01*
X189877530Y-87715575D01*
X189844408Y-87921701D01*
X189802081Y-88180892D01*
X189752675Y-88480027D01*
X189708496Y-88745159D01*
X189512524Y-89916745D01*
X189222221Y-89930630D01*
X188931919Y-89944515D01*
X188957882Y-89766608D01*
X188972406Y-89654543D01*
X188965000Y-89624221D01*
X188927745Y-89664711D01*
X188905579Y-89694412D01*
X188746794Y-89835833D01*
X188540218Y-89918325D01*
X188315504Y-89935756D01*
X188102304Y-89881991D01*
X188072061Y-89866818D01*
X187918154Y-89732153D01*
X187818044Y-89532665D01*
X187776188Y-89283220D01*
X187781580Y-89209650D01*
X188370520Y-89209650D01*
X188395835Y-89303377D01*
X188469295Y-89393258D01*
X188473538Y-89397519D01*
X188575558Y-89487361D01*
X188659466Y-89512820D01*
X188766389Y-89482144D01*
X188806675Y-89464335D01*
X188908634Y-89379122D01*
X189006239Y-89235609D01*
X189080865Y-89068132D01*
X189113887Y-88911027D01*
X189114184Y-88897436D01*
X189085525Y-88703817D01*
X189005480Y-88566685D01*
X188901500Y-88506202D01*
X188729806Y-88505082D01*
X188584005Y-88588742D01*
X188470472Y-88750292D01*
X188395583Y-88982841D01*
X188381156Y-89068667D01*
X188370520Y-89209650D01*
X187781580Y-89209650D01*
X187797043Y-88998683D01*
X187802784Y-88968699D01*
X187903568Y-88640747D01*
X188057341Y-88377291D01*
X188258272Y-88185538D01*
X188500530Y-88072700D01*
X188534283Y-88064309D01*
X188725665Y-88050507D01*
X188901404Y-88088763D01*
X189032940Y-88170225D01*
X189077140Y-88232498D01*
X189126512Y-88317086D01*
X189162140Y-88346819D01*
X189184208Y-88304082D01*
X189213343Y-88190694D01*
X189244083Y-88028889D01*
X189251356Y-87983627D01*
X189286649Y-87756711D01*
X189316248Y-87606296D01*
X189351489Y-87516717D01*
X189403707Y-87472309D01*
X189484238Y-87457407D01*
X189604417Y-87456344D01*
X189632840Y-87456413D01*
G37*
D15*
%TO.C,C1*%
X175914775Y-55710000D02*
X177454775Y-55710000D01*
X175914775Y-55750000D02*
X177454775Y-55750000D01*
X175915775Y-55670000D02*
X177454775Y-55670000D01*
X175916775Y-55630000D02*
X177454775Y-55630000D01*
X175918775Y-55590000D02*
X177454775Y-55590000D01*
X175921775Y-55550000D02*
X177454775Y-55550000D01*
X175925775Y-55510000D02*
X177454775Y-55510000D01*
X175929775Y-55470000D02*
X177454775Y-55470000D01*
X175933775Y-55430000D02*
X177454775Y-55430000D01*
X175938775Y-55390000D02*
X177454775Y-55390000D01*
X175944775Y-55350000D02*
X177454775Y-55350000D01*
X175951775Y-55310000D02*
X177454775Y-55310000D01*
X175958775Y-55270000D02*
X177454775Y-55270000D01*
X175966775Y-55230000D02*
X177454775Y-55230000D01*
X175974775Y-55190000D02*
X177454775Y-55190000D01*
X175983775Y-55150000D02*
X177454775Y-55150000D01*
X175993775Y-55110000D02*
X177454775Y-55110000D01*
X176003775Y-55070000D02*
X177454775Y-55070000D01*
X176014775Y-55029000D02*
X177454775Y-55029000D01*
X176026775Y-54989000D02*
X177454775Y-54989000D01*
X176039775Y-54949000D02*
X177454775Y-54949000D01*
X176052775Y-54909000D02*
X177454775Y-54909000D01*
X176066775Y-54869000D02*
X177454775Y-54869000D01*
X176080775Y-54829000D02*
X177454775Y-54829000D01*
X176096775Y-54789000D02*
X177454775Y-54789000D01*
X176112775Y-54749000D02*
X177454775Y-54749000D01*
X176129775Y-54709000D02*
X177454775Y-54709000D01*
X176146775Y-54669000D02*
X177454775Y-54669000D01*
X176165775Y-54629000D02*
X177454775Y-54629000D01*
X176184775Y-54589000D02*
X177454775Y-54589000D01*
X176204775Y-54549000D02*
X177454775Y-54549000D01*
X176226775Y-54509000D02*
X177454775Y-54509000D01*
X176247775Y-54469000D02*
X177454775Y-54469000D01*
X176270775Y-54429000D02*
X177454775Y-54429000D01*
X176294775Y-54389000D02*
X177454775Y-54389000D01*
X176319775Y-54349000D02*
X177454775Y-54349000D01*
X176345775Y-54309000D02*
X177454775Y-54309000D01*
X176372775Y-54269000D02*
X177454775Y-54269000D01*
X176399775Y-54229000D02*
X177454775Y-54229000D01*
X176429775Y-54189000D02*
X177454775Y-54189000D01*
X176459775Y-54149000D02*
X177454775Y-54149000D01*
X176490775Y-54109000D02*
X177454775Y-54109000D01*
X176523775Y-54069000D02*
X177454775Y-54069000D01*
X176557775Y-54029000D02*
X177454775Y-54029000D01*
X176593775Y-53989000D02*
X177454775Y-53989000D01*
X176630775Y-53949000D02*
X177454775Y-53949000D01*
X176668775Y-53909000D02*
X177454775Y-53909000D01*
X176709775Y-53869000D02*
X177454775Y-53869000D01*
X176751775Y-53829000D02*
X177454775Y-53829000D01*
X176769775Y-58304775D02*
X177269775Y-58304775D01*
X176795775Y-53789000D02*
X177454775Y-53789000D01*
X176841775Y-53749000D02*
X177454775Y-53749000D01*
X176889775Y-53709000D02*
X180099775Y-53709000D01*
X176940775Y-53669000D02*
X180048775Y-53669000D01*
X176994775Y-53629000D02*
X179994775Y-53629000D01*
X177019775Y-58554775D02*
X177019775Y-58054775D01*
X177051775Y-53589000D02*
X179937775Y-53589000D01*
X177111775Y-53549000D02*
X179877775Y-53549000D01*
X177175775Y-53509000D02*
X179813775Y-53509000D01*
X177243775Y-53469000D02*
X179745775Y-53469000D01*
X177316775Y-53429000D02*
X179672775Y-53429000D01*
X177396775Y-53389000D02*
X179592775Y-53389000D01*
X177483775Y-53349000D02*
X179505775Y-53349000D01*
X177579775Y-53309000D02*
X179409775Y-53309000D01*
X177689775Y-53269000D02*
X179299775Y-53269000D01*
X177817775Y-53229000D02*
X179171775Y-53229000D01*
X177976775Y-53189000D02*
X179012775Y-53189000D01*
X178210775Y-53149000D02*
X178778775Y-53149000D01*
X179534775Y-53749000D02*
X180147775Y-53749000D01*
X179534775Y-53789000D02*
X180193775Y-53789000D01*
X179534775Y-53829000D02*
X180237775Y-53829000D01*
X179534775Y-53869000D02*
X180279775Y-53869000D01*
X179534775Y-53909000D02*
X180320775Y-53909000D01*
X179534775Y-53949000D02*
X180358775Y-53949000D01*
X179534775Y-53989000D02*
X180395775Y-53989000D01*
X179534775Y-54029000D02*
X180431775Y-54029000D01*
X179534775Y-54069000D02*
X180465775Y-54069000D01*
X179534775Y-54109000D02*
X180498775Y-54109000D01*
X179534775Y-54149000D02*
X180529775Y-54149000D01*
X179534775Y-54189000D02*
X180559775Y-54189000D01*
X179534775Y-54229000D02*
X180589775Y-54229000D01*
X179534775Y-54269000D02*
X180616775Y-54269000D01*
X179534775Y-54309000D02*
X180643775Y-54309000D01*
X179534775Y-54349000D02*
X180669775Y-54349000D01*
X179534775Y-54389000D02*
X180694775Y-54389000D01*
X179534775Y-54429000D02*
X180718775Y-54429000D01*
X179534775Y-54469000D02*
X180741775Y-54469000D01*
X179534775Y-54509000D02*
X180762775Y-54509000D01*
X179534775Y-54549000D02*
X180784775Y-54549000D01*
X179534775Y-54589000D02*
X180804775Y-54589000D01*
X179534775Y-54629000D02*
X180823775Y-54629000D01*
X179534775Y-54669000D02*
X180842775Y-54669000D01*
X179534775Y-54709000D02*
X180859775Y-54709000D01*
X179534775Y-54749000D02*
X180876775Y-54749000D01*
X179534775Y-54789000D02*
X180892775Y-54789000D01*
X179534775Y-54829000D02*
X180908775Y-54829000D01*
X179534775Y-54869000D02*
X180922775Y-54869000D01*
X179534775Y-54909000D02*
X180936775Y-54909000D01*
X179534775Y-54949000D02*
X180949775Y-54949000D01*
X179534775Y-54989000D02*
X180962775Y-54989000D01*
X179534775Y-55029000D02*
X180974775Y-55029000D01*
X179534775Y-55070000D02*
X180985775Y-55070000D01*
X179534775Y-55110000D02*
X180995775Y-55110000D01*
X179534775Y-55150000D02*
X181005775Y-55150000D01*
X179534775Y-55190000D02*
X181014775Y-55190000D01*
X179534775Y-55230000D02*
X181022775Y-55230000D01*
X179534775Y-55270000D02*
X181030775Y-55270000D01*
X179534775Y-55310000D02*
X181037775Y-55310000D01*
X179534775Y-55350000D02*
X181044775Y-55350000D01*
X179534775Y-55390000D02*
X181050775Y-55390000D01*
X179534775Y-55430000D02*
X181055775Y-55430000D01*
X179534775Y-55470000D02*
X181059775Y-55470000D01*
X179534775Y-55510000D02*
X181063775Y-55510000D01*
X179534775Y-55550000D02*
X181067775Y-55550000D01*
X179534775Y-55590000D02*
X181070775Y-55590000D01*
X179534775Y-55630000D02*
X181072775Y-55630000D01*
X179534775Y-55670000D02*
X181073775Y-55670000D01*
X179534775Y-55710000D02*
X181074775Y-55710000D01*
X179534775Y-55750000D02*
X181074775Y-55750000D01*
X181114775Y-55750000D02*
G75*
G02*
X175874775Y-55750000I-2620000J0D01*
G01*
X175874775Y-55750000D02*
G75*
G02*
X181114775Y-55750000I2620000J0D01*
G01*
%TO.C,JP1*%
X163355000Y-89750000D02*
X166155000Y-89750000D01*
X163355000Y-91750000D02*
X163355000Y-89750000D01*
X166155000Y-89750000D02*
X166155000Y-91750000D01*
X166155000Y-91750000D02*
X163355000Y-91750000D01*
%TO.C,C2*%
X193164775Y-55650000D02*
X194704775Y-55650000D01*
X193164775Y-55690000D02*
X194704775Y-55690000D01*
X193165775Y-55610000D02*
X194704775Y-55610000D01*
X193166775Y-55570000D02*
X194704775Y-55570000D01*
X193168775Y-55530000D02*
X194704775Y-55530000D01*
X193171775Y-55490000D02*
X194704775Y-55490000D01*
X193175775Y-55450000D02*
X194704775Y-55450000D01*
X193179775Y-55410000D02*
X194704775Y-55410000D01*
X193183775Y-55370000D02*
X194704775Y-55370000D01*
X193188775Y-55330000D02*
X194704775Y-55330000D01*
X193194775Y-55290000D02*
X194704775Y-55290000D01*
X193201775Y-55250000D02*
X194704775Y-55250000D01*
X193208775Y-55210000D02*
X194704775Y-55210000D01*
X193216775Y-55170000D02*
X194704775Y-55170000D01*
X193224775Y-55130000D02*
X194704775Y-55130000D01*
X193233775Y-55090000D02*
X194704775Y-55090000D01*
X193243775Y-55050000D02*
X194704775Y-55050000D01*
X193253775Y-55010000D02*
X194704775Y-55010000D01*
X193264775Y-54969000D02*
X194704775Y-54969000D01*
X193276775Y-54929000D02*
X194704775Y-54929000D01*
X193289775Y-54889000D02*
X194704775Y-54889000D01*
X193302775Y-54849000D02*
X194704775Y-54849000D01*
X193316775Y-54809000D02*
X194704775Y-54809000D01*
X193330775Y-54769000D02*
X194704775Y-54769000D01*
X193346775Y-54729000D02*
X194704775Y-54729000D01*
X193362775Y-54689000D02*
X194704775Y-54689000D01*
X193379775Y-54649000D02*
X194704775Y-54649000D01*
X193396775Y-54609000D02*
X194704775Y-54609000D01*
X193415775Y-54569000D02*
X194704775Y-54569000D01*
X193434775Y-54529000D02*
X194704775Y-54529000D01*
X193454775Y-54489000D02*
X194704775Y-54489000D01*
X193476775Y-54449000D02*
X194704775Y-54449000D01*
X193497775Y-54409000D02*
X194704775Y-54409000D01*
X193520775Y-54369000D02*
X194704775Y-54369000D01*
X193544775Y-54329000D02*
X194704775Y-54329000D01*
X193569775Y-54289000D02*
X194704775Y-54289000D01*
X193595775Y-54249000D02*
X194704775Y-54249000D01*
X193622775Y-54209000D02*
X194704775Y-54209000D01*
X193649775Y-54169000D02*
X194704775Y-54169000D01*
X193679775Y-54129000D02*
X194704775Y-54129000D01*
X193709775Y-54089000D02*
X194704775Y-54089000D01*
X193740775Y-54049000D02*
X194704775Y-54049000D01*
X193773775Y-54009000D02*
X194704775Y-54009000D01*
X193807775Y-53969000D02*
X194704775Y-53969000D01*
X193843775Y-53929000D02*
X194704775Y-53929000D01*
X193880775Y-53889000D02*
X194704775Y-53889000D01*
X193918775Y-53849000D02*
X194704775Y-53849000D01*
X193959775Y-53809000D02*
X194704775Y-53809000D01*
X194001775Y-53769000D02*
X194704775Y-53769000D01*
X194019775Y-58244775D02*
X194519775Y-58244775D01*
X194045775Y-53729000D02*
X194704775Y-53729000D01*
X194091775Y-53689000D02*
X194704775Y-53689000D01*
X194139775Y-53649000D02*
X197349775Y-53649000D01*
X194190775Y-53609000D02*
X197298775Y-53609000D01*
X194244775Y-53569000D02*
X197244775Y-53569000D01*
X194269775Y-58494775D02*
X194269775Y-57994775D01*
X194301775Y-53529000D02*
X197187775Y-53529000D01*
X194361775Y-53489000D02*
X197127775Y-53489000D01*
X194425775Y-53449000D02*
X197063775Y-53449000D01*
X194493775Y-53409000D02*
X196995775Y-53409000D01*
X194566775Y-53369000D02*
X196922775Y-53369000D01*
X194646775Y-53329000D02*
X196842775Y-53329000D01*
X194733775Y-53289000D02*
X196755775Y-53289000D01*
X194829775Y-53249000D02*
X196659775Y-53249000D01*
X194939775Y-53209000D02*
X196549775Y-53209000D01*
X195067775Y-53169000D02*
X196421775Y-53169000D01*
X195226775Y-53129000D02*
X196262775Y-53129000D01*
X195460775Y-53089000D02*
X196028775Y-53089000D01*
X196784775Y-53689000D02*
X197397775Y-53689000D01*
X196784775Y-53729000D02*
X197443775Y-53729000D01*
X196784775Y-53769000D02*
X197487775Y-53769000D01*
X196784775Y-53809000D02*
X197529775Y-53809000D01*
X196784775Y-53849000D02*
X197570775Y-53849000D01*
X196784775Y-53889000D02*
X197608775Y-53889000D01*
X196784775Y-53929000D02*
X197645775Y-53929000D01*
X196784775Y-53969000D02*
X197681775Y-53969000D01*
X196784775Y-54009000D02*
X197715775Y-54009000D01*
X196784775Y-54049000D02*
X197748775Y-54049000D01*
X196784775Y-54089000D02*
X197779775Y-54089000D01*
X196784775Y-54129000D02*
X197809775Y-54129000D01*
X196784775Y-54169000D02*
X197839775Y-54169000D01*
X196784775Y-54209000D02*
X197866775Y-54209000D01*
X196784775Y-54249000D02*
X197893775Y-54249000D01*
X196784775Y-54289000D02*
X197919775Y-54289000D01*
X196784775Y-54329000D02*
X197944775Y-54329000D01*
X196784775Y-54369000D02*
X197968775Y-54369000D01*
X196784775Y-54409000D02*
X197991775Y-54409000D01*
X196784775Y-54449000D02*
X198012775Y-54449000D01*
X196784775Y-54489000D02*
X198034775Y-54489000D01*
X196784775Y-54529000D02*
X198054775Y-54529000D01*
X196784775Y-54569000D02*
X198073775Y-54569000D01*
X196784775Y-54609000D02*
X198092775Y-54609000D01*
X196784775Y-54649000D02*
X198109775Y-54649000D01*
X196784775Y-54689000D02*
X198126775Y-54689000D01*
X196784775Y-54729000D02*
X198142775Y-54729000D01*
X196784775Y-54769000D02*
X198158775Y-54769000D01*
X196784775Y-54809000D02*
X198172775Y-54809000D01*
X196784775Y-54849000D02*
X198186775Y-54849000D01*
X196784775Y-54889000D02*
X198199775Y-54889000D01*
X196784775Y-54929000D02*
X198212775Y-54929000D01*
X196784775Y-54969000D02*
X198224775Y-54969000D01*
X196784775Y-55010000D02*
X198235775Y-55010000D01*
X196784775Y-55050000D02*
X198245775Y-55050000D01*
X196784775Y-55090000D02*
X198255775Y-55090000D01*
X196784775Y-55130000D02*
X198264775Y-55130000D01*
X196784775Y-55170000D02*
X198272775Y-55170000D01*
X196784775Y-55210000D02*
X198280775Y-55210000D01*
X196784775Y-55250000D02*
X198287775Y-55250000D01*
X196784775Y-55290000D02*
X198294775Y-55290000D01*
X196784775Y-55330000D02*
X198300775Y-55330000D01*
X196784775Y-55370000D02*
X198305775Y-55370000D01*
X196784775Y-55410000D02*
X198309775Y-55410000D01*
X196784775Y-55450000D02*
X198313775Y-55450000D01*
X196784775Y-55490000D02*
X198317775Y-55490000D01*
X196784775Y-55530000D02*
X198320775Y-55530000D01*
X196784775Y-55570000D02*
X198322775Y-55570000D01*
X196784775Y-55610000D02*
X198323775Y-55610000D01*
X196784775Y-55650000D02*
X198324775Y-55650000D01*
X196784775Y-55690000D02*
X198324775Y-55690000D01*
X198364775Y-55690000D02*
G75*
G02*
X193124775Y-55690000I-2620000J0D01*
G01*
X193124775Y-55690000D02*
G75*
G02*
X198364775Y-55690000I2620000J0D01*
G01*
%TO.C,C3*%
X158164775Y-55960000D02*
X159704775Y-55960000D01*
X158164775Y-56000000D02*
X159704775Y-56000000D01*
X158165775Y-55920000D02*
X159704775Y-55920000D01*
X158166775Y-55880000D02*
X159704775Y-55880000D01*
X158168775Y-55840000D02*
X159704775Y-55840000D01*
X158171775Y-55800000D02*
X159704775Y-55800000D01*
X158175775Y-55760000D02*
X159704775Y-55760000D01*
X158179775Y-55720000D02*
X159704775Y-55720000D01*
X158183775Y-55680000D02*
X159704775Y-55680000D01*
X158188775Y-55640000D02*
X159704775Y-55640000D01*
X158194775Y-55600000D02*
X159704775Y-55600000D01*
X158201775Y-55560000D02*
X159704775Y-55560000D01*
X158208775Y-55520000D02*
X159704775Y-55520000D01*
X158216775Y-55480000D02*
X159704775Y-55480000D01*
X158224775Y-55440000D02*
X159704775Y-55440000D01*
X158233775Y-55400000D02*
X159704775Y-55400000D01*
X158243775Y-55360000D02*
X159704775Y-55360000D01*
X158253775Y-55320000D02*
X159704775Y-55320000D01*
X158264775Y-55279000D02*
X159704775Y-55279000D01*
X158276775Y-55239000D02*
X159704775Y-55239000D01*
X158289775Y-55199000D02*
X159704775Y-55199000D01*
X158302775Y-55159000D02*
X159704775Y-55159000D01*
X158316775Y-55119000D02*
X159704775Y-55119000D01*
X158330775Y-55079000D02*
X159704775Y-55079000D01*
X158346775Y-55039000D02*
X159704775Y-55039000D01*
X158362775Y-54999000D02*
X159704775Y-54999000D01*
X158379775Y-54959000D02*
X159704775Y-54959000D01*
X158396775Y-54919000D02*
X159704775Y-54919000D01*
X158415775Y-54879000D02*
X159704775Y-54879000D01*
X158434775Y-54839000D02*
X159704775Y-54839000D01*
X158454775Y-54799000D02*
X159704775Y-54799000D01*
X158476775Y-54759000D02*
X159704775Y-54759000D01*
X158497775Y-54719000D02*
X159704775Y-54719000D01*
X158520775Y-54679000D02*
X159704775Y-54679000D01*
X158544775Y-54639000D02*
X159704775Y-54639000D01*
X158569775Y-54599000D02*
X159704775Y-54599000D01*
X158595775Y-54559000D02*
X159704775Y-54559000D01*
X158622775Y-54519000D02*
X159704775Y-54519000D01*
X158649775Y-54479000D02*
X159704775Y-54479000D01*
X158679775Y-54439000D02*
X159704775Y-54439000D01*
X158709775Y-54399000D02*
X159704775Y-54399000D01*
X158740775Y-54359000D02*
X159704775Y-54359000D01*
X158773775Y-54319000D02*
X159704775Y-54319000D01*
X158807775Y-54279000D02*
X159704775Y-54279000D01*
X158843775Y-54239000D02*
X159704775Y-54239000D01*
X158880775Y-54199000D02*
X159704775Y-54199000D01*
X158918775Y-54159000D02*
X159704775Y-54159000D01*
X158959775Y-54119000D02*
X159704775Y-54119000D01*
X159001775Y-54079000D02*
X159704775Y-54079000D01*
X159019775Y-58554775D02*
X159519775Y-58554775D01*
X159045775Y-54039000D02*
X159704775Y-54039000D01*
X159091775Y-53999000D02*
X159704775Y-53999000D01*
X159139775Y-53959000D02*
X162349775Y-53959000D01*
X159190775Y-53919000D02*
X162298775Y-53919000D01*
X159244775Y-53879000D02*
X162244775Y-53879000D01*
X159269775Y-58804775D02*
X159269775Y-58304775D01*
X159301775Y-53839000D02*
X162187775Y-53839000D01*
X159361775Y-53799000D02*
X162127775Y-53799000D01*
X159425775Y-53759000D02*
X162063775Y-53759000D01*
X159493775Y-53719000D02*
X161995775Y-53719000D01*
X159566775Y-53679000D02*
X161922775Y-53679000D01*
X159646775Y-53639000D02*
X161842775Y-53639000D01*
X159733775Y-53599000D02*
X161755775Y-53599000D01*
X159829775Y-53559000D02*
X161659775Y-53559000D01*
X159939775Y-53519000D02*
X161549775Y-53519000D01*
X160067775Y-53479000D02*
X161421775Y-53479000D01*
X160226775Y-53439000D02*
X161262775Y-53439000D01*
X160460775Y-53399000D02*
X161028775Y-53399000D01*
X161784775Y-53999000D02*
X162397775Y-53999000D01*
X161784775Y-54039000D02*
X162443775Y-54039000D01*
X161784775Y-54079000D02*
X162487775Y-54079000D01*
X161784775Y-54119000D02*
X162529775Y-54119000D01*
X161784775Y-54159000D02*
X162570775Y-54159000D01*
X161784775Y-54199000D02*
X162608775Y-54199000D01*
X161784775Y-54239000D02*
X162645775Y-54239000D01*
X161784775Y-54279000D02*
X162681775Y-54279000D01*
X161784775Y-54319000D02*
X162715775Y-54319000D01*
X161784775Y-54359000D02*
X162748775Y-54359000D01*
X161784775Y-54399000D02*
X162779775Y-54399000D01*
X161784775Y-54439000D02*
X162809775Y-54439000D01*
X161784775Y-54479000D02*
X162839775Y-54479000D01*
X161784775Y-54519000D02*
X162866775Y-54519000D01*
X161784775Y-54559000D02*
X162893775Y-54559000D01*
X161784775Y-54599000D02*
X162919775Y-54599000D01*
X161784775Y-54639000D02*
X162944775Y-54639000D01*
X161784775Y-54679000D02*
X162968775Y-54679000D01*
X161784775Y-54719000D02*
X162991775Y-54719000D01*
X161784775Y-54759000D02*
X163012775Y-54759000D01*
X161784775Y-54799000D02*
X163034775Y-54799000D01*
X161784775Y-54839000D02*
X163054775Y-54839000D01*
X161784775Y-54879000D02*
X163073775Y-54879000D01*
X161784775Y-54919000D02*
X163092775Y-54919000D01*
X161784775Y-54959000D02*
X163109775Y-54959000D01*
X161784775Y-54999000D02*
X163126775Y-54999000D01*
X161784775Y-55039000D02*
X163142775Y-55039000D01*
X161784775Y-55079000D02*
X163158775Y-55079000D01*
X161784775Y-55119000D02*
X163172775Y-55119000D01*
X161784775Y-55159000D02*
X163186775Y-55159000D01*
X161784775Y-55199000D02*
X163199775Y-55199000D01*
X161784775Y-55239000D02*
X163212775Y-55239000D01*
X161784775Y-55279000D02*
X163224775Y-55279000D01*
X161784775Y-55320000D02*
X163235775Y-55320000D01*
X161784775Y-55360000D02*
X163245775Y-55360000D01*
X161784775Y-55400000D02*
X163255775Y-55400000D01*
X161784775Y-55440000D02*
X163264775Y-55440000D01*
X161784775Y-55480000D02*
X163272775Y-55480000D01*
X161784775Y-55520000D02*
X163280775Y-55520000D01*
X161784775Y-55560000D02*
X163287775Y-55560000D01*
X161784775Y-55600000D02*
X163294775Y-55600000D01*
X161784775Y-55640000D02*
X163300775Y-55640000D01*
X161784775Y-55680000D02*
X163305775Y-55680000D01*
X161784775Y-55720000D02*
X163309775Y-55720000D01*
X161784775Y-55760000D02*
X163313775Y-55760000D01*
X161784775Y-55800000D02*
X163317775Y-55800000D01*
X161784775Y-55840000D02*
X163320775Y-55840000D01*
X161784775Y-55880000D02*
X163322775Y-55880000D01*
X161784775Y-55920000D02*
X163323775Y-55920000D01*
X161784775Y-55960000D02*
X163324775Y-55960000D01*
X161784775Y-56000000D02*
X163324775Y-56000000D01*
X163364775Y-56000000D02*
G75*
G02*
X158124775Y-56000000I-2620000J0D01*
G01*
X158124775Y-56000000D02*
G75*
G02*
X163364775Y-56000000I2620000J0D01*
G01*
%TO.C,J4*%
X183380000Y-82670000D02*
X184710000Y-82670000D01*
X183380000Y-84000000D02*
X183380000Y-82670000D01*
X185980000Y-82670000D02*
X193660000Y-82670000D01*
X185980000Y-85330000D02*
X185980000Y-82670000D01*
X185980000Y-85330000D02*
X193660000Y-85330000D01*
X193660000Y-85330000D02*
X193660000Y-82670000D01*
%TO.C,J2*%
X159920000Y-82610000D02*
X161250000Y-82610000D01*
X159920000Y-83940000D02*
X159920000Y-82610000D01*
X162520000Y-82610000D02*
X170200000Y-82610000D01*
X162520000Y-85270000D02*
X162520000Y-82610000D01*
X162520000Y-85270000D02*
X170200000Y-85270000D01*
X170200000Y-85270000D02*
X170200000Y-82610000D01*
%TO.C,J1*%
X159906013Y-86365960D02*
X159906013Y-89025960D01*
X165046013Y-86365960D02*
X159906013Y-86365960D01*
X165046013Y-86365960D02*
X165046013Y-89025960D01*
X165046013Y-89025960D02*
X159906013Y-89025960D01*
X167646013Y-87695960D02*
X167646013Y-89025960D01*
X167646013Y-89025960D02*
X166316013Y-89025960D01*
%TD*%
M02*
