%TF.GenerationSoftware,KiCad,Pcbnew,8.0.3*%
%TF.CreationDate,2024-08-08T00:21:50-04:00*%
%TF.ProjectId,sheepycam,73686565-7079-4636-916d-2e6b69636164,rev?*%
%TF.SameCoordinates,Original*%
%TF.FileFunction,Copper,L3,Inr*%
%TF.FilePolarity,Positive*%
%FSLAX46Y46*%
G04 Gerber Fmt 4.6, Leading zero omitted, Abs format (unit mm)*
G04 Created by KiCad (PCBNEW 8.0.3) date 2024-08-08 00:21:50*
%MOMM*%
%LPD*%
G01*
G04 APERTURE LIST*
%TA.AperFunction,ComponentPad*%
%ADD10R,1.530000X1.530000*%
%TD*%
%TA.AperFunction,ComponentPad*%
%ADD11C,1.530000*%
%TD*%
%TA.AperFunction,ComponentPad*%
%ADD12R,1.700000X1.700000*%
%TD*%
%TA.AperFunction,ComponentPad*%
%ADD13O,1.700000X1.700000*%
%TD*%
%TA.AperFunction,ComponentPad*%
%ADD14R,1.600000X1.600000*%
%TD*%
%TA.AperFunction,ComponentPad*%
%ADD15C,1.600000*%
%TD*%
%TA.AperFunction,ComponentPad*%
%ADD16O,2.000000X1.400000*%
%TD*%
%TA.AperFunction,ComponentPad*%
%ADD17R,4.600000X2.000000*%
%TD*%
%TA.AperFunction,ComponentPad*%
%ADD18O,4.200000X2.000000*%
%TD*%
%TA.AperFunction,ComponentPad*%
%ADD19O,2.000000X4.200000*%
%TD*%
%TA.AperFunction,ViaPad*%
%ADD20C,0.600000*%
%TD*%
%TA.AperFunction,Conductor*%
%ADD21C,0.200000*%
%TD*%
G04 APERTURE END LIST*
D10*
%TO.N,GND*%
%TO.C,U2*%
X149150000Y-60360000D03*
D11*
%TO.N,+3V3*%
X149150000Y-62900000D03*
X149150000Y-65440000D03*
X149150000Y-67980000D03*
%TO.N,Net-(U2-~{RESET})*%
X149150000Y-70520000D03*
X149150000Y-73060000D03*
%TO.N,XSTEP*%
X149150000Y-75600000D03*
%TO.N,XDIR*%
X149150000Y-78140000D03*
%TO.N,GND*%
X161850000Y-78140000D03*
%TO.N,+3V3*%
X161850000Y-75600000D03*
%TO.N,Net-(J2-B+)*%
X161850000Y-73060000D03*
%TO.N,Net-(J2-A+)*%
X161850000Y-70520000D03*
%TO.N,Net-(J2-A-)*%
X161850000Y-67980000D03*
%TO.N,Net-(J2-B-)*%
X161850000Y-65440000D03*
%TO.N,GND*%
X161850000Y-62900000D03*
%TO.N,+12V*%
X161850000Y-60360000D03*
%TD*%
D10*
%TO.N,GND*%
%TO.C,U4*%
X184140000Y-60360000D03*
D11*
%TO.N,+3V3*%
X184140000Y-62900000D03*
X184140000Y-65440000D03*
X184140000Y-67980000D03*
%TO.N,Net-(U4-~{RESET})*%
X184140000Y-70520000D03*
X184140000Y-73060000D03*
%TO.N,ZSTEP*%
X184140000Y-75600000D03*
%TO.N,ZDIR*%
X184140000Y-78140000D03*
%TO.N,GND*%
X196840000Y-78140000D03*
%TO.N,+3V3*%
X196840000Y-75600000D03*
%TO.N,Net-(J4-B+)*%
X196840000Y-73060000D03*
%TO.N,Net-(J4-A+)*%
X196840000Y-70520000D03*
%TO.N,Net-(J4-A-)*%
X196840000Y-67980000D03*
%TO.N,Net-(J4-B-)*%
X196840000Y-65440000D03*
%TO.N,GND*%
X196840000Y-62900000D03*
%TO.N,+12V*%
X196840000Y-60360000D03*
%TD*%
D12*
%TO.N,Net-(J3-A+)*%
%TO.C,J3*%
X172994775Y-83940000D03*
D13*
%TO.N,Net-(J3-A-)*%
X175534775Y-83940000D03*
%TO.N,Net-(J3-B+)*%
X178074775Y-83940000D03*
%TO.N,Net-(J3-B-)*%
X180614775Y-83940000D03*
%TD*%
D14*
%TO.N,+12V*%
%TO.C,C1*%
X178494775Y-56750000D03*
D15*
%TO.N,GND*%
X178494775Y-54750000D03*
%TD*%
%TO.N,GND*%
%TO.C,C2*%
X195744775Y-54690000D03*
D14*
%TO.N,+12V*%
X195744775Y-56690000D03*
%TD*%
%TO.N,+12V*%
%TO.C,C3*%
X160744775Y-57000000D03*
D15*
%TO.N,GND*%
X160744775Y-55000000D03*
%TD*%
D10*
%TO.N,GND*%
%TO.C,U3*%
X166645000Y-60360000D03*
D11*
%TO.N,+3V3*%
X166645000Y-62900000D03*
X166645000Y-65440000D03*
X166645000Y-67980000D03*
%TO.N,Net-(U3-~{RESET})*%
X166645000Y-70520000D03*
X166645000Y-73060000D03*
%TO.N,YSTEP*%
X166645000Y-75600000D03*
%TO.N,YDIR*%
X166645000Y-78140000D03*
%TO.N,GND*%
X179345000Y-78140000D03*
%TO.N,+3V3*%
X179345000Y-75600000D03*
%TO.N,Net-(J3-B+)*%
X179345000Y-73060000D03*
%TO.N,Net-(J3-A+)*%
X179345000Y-70520000D03*
%TO.N,Net-(J3-A-)*%
X179345000Y-67980000D03*
%TO.N,Net-(J3-B-)*%
X179345000Y-65440000D03*
%TO.N,GND*%
X179345000Y-62900000D03*
%TO.N,+12V*%
X179345000Y-60360000D03*
%TD*%
D12*
%TO.N,Net-(J4-A+)*%
%TO.C,J4*%
X184710000Y-84000000D03*
D13*
%TO.N,Net-(J4-A-)*%
X187250000Y-84000000D03*
%TO.N,Net-(J4-B+)*%
X189790000Y-84000000D03*
%TO.N,Net-(J4-B-)*%
X192330000Y-84000000D03*
%TD*%
D16*
%TO.N,unconnected-(U1-EN-Pad1)*%
%TO.C,U1*%
X145000000Y-90810000D03*
%TO.N,unconnected-(U1-GPIO36-Pad2)*%
X145000000Y-88270000D03*
%TO.N,unconnected-(U1-GPIO39-Pad3)*%
X145000000Y-85730000D03*
%TO.N,unconnected-(U1-GPIO34-Pad4)*%
X145000000Y-83190000D03*
%TO.N,unconnected-(U1-GPIO35-Pad5)*%
X145000000Y-80650000D03*
%TO.N,unconnected-(U1-GPIO32-Pad6)*%
X145000000Y-78110000D03*
%TO.N,unconnected-(U1-GPIO33-Pad7)*%
X145000000Y-75570000D03*
%TO.N,ZSTEP*%
X145000000Y-73030000D03*
%TO.N,ZDIR*%
X145000000Y-70490000D03*
%TO.N,YSTEP*%
X145000000Y-67950000D03*
%TO.N,YDIR*%
X145000000Y-65410000D03*
%TO.N,XSTEP*%
X145000000Y-62870000D03*
%TO.N,XDIR*%
X145000000Y-60330000D03*
%TO.N,GND*%
X145000000Y-57790000D03*
%TO.N,unconnected-(U1-5V-Pad15)*%
X145000000Y-55250000D03*
%TO.N,+3V3*%
X119600000Y-55250000D03*
%TO.N,GND*%
X119600000Y-57790000D03*
%TO.N,unconnected-(U1-GPIO15-Pad18)*%
X119600000Y-60330000D03*
%TO.N,unconnected-(U1-GPIO2-Pad19)*%
X119600000Y-62870000D03*
%TO.N,unconnected-(U1-GPIO4-Pad20)*%
X119600000Y-65410000D03*
%TO.N,unconnected-(U1-GPIO16-Pad21)*%
X119600000Y-67950000D03*
%TO.N,unconnected-(U1-GPIO17-Pad22)*%
X119600000Y-70490000D03*
%TO.N,unconnected-(U1-GPIO5-Pad23)*%
X119600000Y-73030000D03*
%TO.N,unconnected-(U1-GPIO18-Pad24)*%
X119600000Y-75570000D03*
%TO.N,unconnected-(U1-GPIO19-Pad25)*%
X119600000Y-78110000D03*
%TO.N,unconnected-(U1-GPIO21-Pad26)*%
X119600000Y-80650000D03*
%TO.N,unconnected-(U1-GPIO3-Pad27)*%
X119600000Y-83190000D03*
%TO.N,unconnected-(U1-GPIO1-Pad28)*%
X119600000Y-85730000D03*
%TO.N,unconnected-(U1-GPIO22-Pad29)*%
X119600000Y-88270000D03*
%TO.N,unconnected-(U1-GPIO23-Pad30)*%
X119600000Y-90810000D03*
%TD*%
D12*
%TO.N,Net-(J2-A+)*%
%TO.C,J2*%
X161250000Y-83940000D03*
D13*
%TO.N,Net-(J2-A-)*%
X163790000Y-83940000D03*
%TO.N,Net-(J2-B+)*%
X166330000Y-83940000D03*
%TO.N,Net-(J2-B-)*%
X168870000Y-83940000D03*
%TD*%
D17*
%TO.N,GND*%
%TO.C,J5*%
X152744775Y-81890000D03*
D18*
%TO.N,+12V*%
X152744775Y-88190000D03*
D19*
%TO.N,N/C*%
X157544775Y-84790000D03*
%TD*%
D12*
%TO.N,unconnected-(J1-Pin_1-Pad1)*%
%TO.C,J1*%
X166290000Y-88250000D03*
D13*
%TO.N,unconnected-(J1-Pin_2-Pad2)*%
X163750000Y-88250000D03*
%TO.N,unconnected-(J1-Pin_3-Pad3)*%
X161210000Y-88250000D03*
%TD*%
D20*
%TO.N,Net-(J2-A+)*%
X160000000Y-77250000D03*
%TO.N,Net-(J4-A+)*%
X190750000Y-73500000D03*
%TO.N,Net-(J4-A-)*%
X191750000Y-70250000D03*
%TO.N,Net-(J4-B+)*%
X192750000Y-75750000D03*
%TO.N,Net-(J3-B+)*%
X177500000Y-79500000D03*
%TO.N,Net-(J3-A+)*%
X175750000Y-72750000D03*
X175000000Y-81400000D03*
%TD*%
D21*
%TO.N,*%
X125000000Y-66250000D02*
X125000000Y-78250000D01*
X128500000Y-62750000D02*
X125000000Y-66250000D01*
%TD*%
M02*
