%TF.GenerationSoftware,KiCad,Pcbnew,8.0.3*%
%TF.CreationDate,2024-09-27T00:45:05-04:00*%
%TF.ProjectId,BF_FluidNC,42465f46-6c75-4696-944e-432e6b696361,rev?*%
%TF.SameCoordinates,Original*%
%TF.FileFunction,Drillmap*%
%TF.FilePolarity,Positive*%
%FSLAX45Y45*%
G04 Gerber Fmt 4.5, Leading zero omitted, Abs format (unit mm)*
G04 Created by KiCad (PCBNEW 8.0.3) date 2024-09-27 00:45:05*
%MOMM*%
%LPD*%
G01*
G04 APERTURE LIST*
%ADD10C,0.050000*%
%ADD11C,0.200000*%
G04 APERTURE END LIST*
D10*
X12000000Y-4875000D02*
X19650000Y-4875000D01*
X19850000Y-9000000D02*
G75*
G02*
X19650000Y-9200000I-200000J0D01*
G01*
X11800000Y-9000000D02*
X11800000Y-5075000D01*
X11800000Y-5075000D02*
G75*
G02*
X12000000Y-4875000I200000J0D01*
G01*
X12000000Y-9200000D02*
G75*
G02*
X11800000Y-9000000I0J200000D01*
G01*
X19650000Y-4875000D02*
G75*
G02*
X19850000Y-5075000I0J-200000D01*
G01*
X19650000Y-9200000D02*
X12000000Y-9200000D01*
X19850000Y-5075000D02*
X19850000Y-9000000D01*
D11*
X12058277Y-9513984D02*
X12058277Y-9313984D01*
X12058277Y-9313984D02*
X12105896Y-9313984D01*
X12105896Y-9313984D02*
X12134467Y-9323508D01*
X12134467Y-9323508D02*
X12153515Y-9342555D01*
X12153515Y-9342555D02*
X12163039Y-9361603D01*
X12163039Y-9361603D02*
X12172562Y-9399698D01*
X12172562Y-9399698D02*
X12172562Y-9428270D01*
X12172562Y-9428270D02*
X12163039Y-9466365D01*
X12163039Y-9466365D02*
X12153515Y-9485412D01*
X12153515Y-9485412D02*
X12134467Y-9504460D01*
X12134467Y-9504460D02*
X12105896Y-9513984D01*
X12105896Y-9513984D02*
X12058277Y-9513984D01*
X12258277Y-9513984D02*
X12258277Y-9380650D01*
X12258277Y-9418746D02*
X12267801Y-9399698D01*
X12267801Y-9399698D02*
X12277324Y-9390174D01*
X12277324Y-9390174D02*
X12296372Y-9380650D01*
X12296372Y-9380650D02*
X12315420Y-9380650D01*
X12382086Y-9513984D02*
X12382086Y-9380650D01*
X12382086Y-9313984D02*
X12372562Y-9323508D01*
X12372562Y-9323508D02*
X12382086Y-9333031D01*
X12382086Y-9333031D02*
X12391610Y-9323508D01*
X12391610Y-9323508D02*
X12382086Y-9313984D01*
X12382086Y-9313984D02*
X12382086Y-9333031D01*
X12505896Y-9513984D02*
X12486848Y-9504460D01*
X12486848Y-9504460D02*
X12477324Y-9485412D01*
X12477324Y-9485412D02*
X12477324Y-9313984D01*
X12610658Y-9513984D02*
X12591610Y-9504460D01*
X12591610Y-9504460D02*
X12582086Y-9485412D01*
X12582086Y-9485412D02*
X12582086Y-9313984D01*
X12839229Y-9513984D02*
X12839229Y-9313984D01*
X12839229Y-9313984D02*
X12905896Y-9456841D01*
X12905896Y-9456841D02*
X12972562Y-9313984D01*
X12972562Y-9313984D02*
X12972562Y-9513984D01*
X13153515Y-9513984D02*
X13153515Y-9409222D01*
X13153515Y-9409222D02*
X13143991Y-9390174D01*
X13143991Y-9390174D02*
X13124943Y-9380650D01*
X13124943Y-9380650D02*
X13086848Y-9380650D01*
X13086848Y-9380650D02*
X13067801Y-9390174D01*
X13153515Y-9504460D02*
X13134467Y-9513984D01*
X13134467Y-9513984D02*
X13086848Y-9513984D01*
X13086848Y-9513984D02*
X13067801Y-9504460D01*
X13067801Y-9504460D02*
X13058277Y-9485412D01*
X13058277Y-9485412D02*
X13058277Y-9466365D01*
X13058277Y-9466365D02*
X13067801Y-9447317D01*
X13067801Y-9447317D02*
X13086848Y-9437793D01*
X13086848Y-9437793D02*
X13134467Y-9437793D01*
X13134467Y-9437793D02*
X13153515Y-9428270D01*
X13248753Y-9380650D02*
X13248753Y-9580650D01*
X13248753Y-9390174D02*
X13267801Y-9380650D01*
X13267801Y-9380650D02*
X13305896Y-9380650D01*
X13305896Y-9380650D02*
X13324943Y-9390174D01*
X13324943Y-9390174D02*
X13334467Y-9399698D01*
X13334467Y-9399698D02*
X13343991Y-9418746D01*
X13343991Y-9418746D02*
X13343991Y-9475889D01*
X13343991Y-9475889D02*
X13334467Y-9494936D01*
X13334467Y-9494936D02*
X13324943Y-9504460D01*
X13324943Y-9504460D02*
X13305896Y-9513984D01*
X13305896Y-9513984D02*
X13267801Y-9513984D01*
X13267801Y-9513984D02*
X13248753Y-9504460D01*
X13429705Y-9494936D02*
X13439229Y-9504460D01*
X13439229Y-9504460D02*
X13429705Y-9513984D01*
X13429705Y-9513984D02*
X13420182Y-9504460D01*
X13420182Y-9504460D02*
X13429705Y-9494936D01*
X13429705Y-9494936D02*
X13429705Y-9513984D01*
X13429705Y-9390174D02*
X13439229Y-9399698D01*
X13439229Y-9399698D02*
X13429705Y-9409222D01*
X13429705Y-9409222D02*
X13420182Y-9399698D01*
X13420182Y-9399698D02*
X13429705Y-9390174D01*
X13429705Y-9390174D02*
X13429705Y-9409222D01*
M02*
