%TF.GenerationSoftware,KiCad,Pcbnew,8.0.3*%
%TF.CreationDate,2024-09-27T00:45:02-04:00*%
%TF.ProjectId,BF_FluidNC,42465f46-6c75-4696-944e-432e6b696361,rev?*%
%TF.SameCoordinates,Original*%
%TF.FileFunction,Soldermask,Top*%
%TF.FilePolarity,Negative*%
%FSLAX46Y46*%
G04 Gerber Fmt 4.6, Leading zero omitted, Abs format (unit mm)*
G04 Created by KiCad (PCBNEW 8.0.3) date 2024-09-27 00:45:02*
%MOMM*%
%LPD*%
G01*
G04 APERTURE LIST*
G04 Aperture macros list*
%AMRoundRect*
0 Rectangle with rounded corners*
0 $1 Rounding radius*
0 $2 $3 $4 $5 $6 $7 $8 $9 X,Y pos of 4 corners*
0 Add a 4 corners polygon primitive as box body*
4,1,4,$2,$3,$4,$5,$6,$7,$8,$9,$2,$3,0*
0 Add four circle primitives for the rounded corners*
1,1,$1+$1,$2,$3*
1,1,$1+$1,$4,$5*
1,1,$1+$1,$6,$7*
1,1,$1+$1,$8,$9*
0 Add four rect primitives between the rounded corners*
20,1,$1+$1,$2,$3,$4,$5,0*
20,1,$1+$1,$4,$5,$6,$7,0*
20,1,$1+$1,$6,$7,$8,$9,0*
20,1,$1+$1,$8,$9,$2,$3,0*%
%AMFreePoly0*
4,1,6,1.000000,0.000000,0.500000,-0.750000,-0.500000,-0.750000,-0.500000,0.750000,0.500000,0.750000,1.000000,0.000000,1.000000,0.000000,$1*%
%AMFreePoly1*
4,1,6,0.500000,-0.750000,-0.650000,-0.750000,-0.150000,0.000000,-0.650000,0.750000,0.500000,0.750000,0.500000,-0.750000,0.500000,-0.750000,$1*%
G04 Aperture macros list end*
%ADD10O,2.000000X1.400000*%
%ADD11RoundRect,0.102000X-0.765000X-0.765000X0.765000X-0.765000X0.765000X0.765000X-0.765000X0.765000X0*%
%ADD12C,1.734000*%
%ADD13R,4.600000X2.000000*%
%ADD14O,4.200000X2.000000*%
%ADD15O,2.000000X4.200000*%
%ADD16R,1.700000X1.700000*%
%ADD17O,1.700000X1.700000*%
%ADD18R,1.600000X1.600000*%
%ADD19C,1.600000*%
%ADD20FreePoly0,0.000000*%
%ADD21FreePoly1,0.000000*%
G04 APERTURE END LIST*
D10*
%TO.C,U1*%
X145000000Y-90250000D03*
X145000000Y-87710000D03*
X145000000Y-85170000D03*
X145000000Y-82630000D03*
X145000000Y-80090000D03*
X145000000Y-77550000D03*
X145000000Y-75010000D03*
X145000000Y-72470000D03*
X145000000Y-69930000D03*
X145000000Y-67390000D03*
X145000000Y-64850000D03*
X145000000Y-62310000D03*
X145000000Y-59770000D03*
X145000000Y-57230000D03*
X145000000Y-54690000D03*
X119600000Y-54690000D03*
X119600000Y-57230000D03*
X119600000Y-59770000D03*
X119600000Y-62310000D03*
X119600000Y-64850000D03*
X119600000Y-67390000D03*
X119600000Y-69930000D03*
X119600000Y-72470000D03*
X119600000Y-75010000D03*
X119600000Y-77550000D03*
X119600000Y-80090000D03*
X119600000Y-82630000D03*
X119600000Y-85170000D03*
X119600000Y-87710000D03*
X119600000Y-90250000D03*
%TD*%
D11*
%TO.C,U3*%
X166645000Y-60360000D03*
D12*
X166645000Y-62900000D03*
X166645000Y-65440000D03*
X166645000Y-67980000D03*
X166645000Y-70520000D03*
X166645000Y-73060000D03*
X166645000Y-75600000D03*
X166645000Y-78140000D03*
X179345000Y-78140000D03*
X179345000Y-75600000D03*
X179345000Y-73060000D03*
X179345000Y-70520000D03*
X179345000Y-67980000D03*
X179345000Y-65440000D03*
X179345000Y-62900000D03*
X179345000Y-60360000D03*
%TD*%
D11*
%TO.C,U4*%
X184140000Y-60360000D03*
D12*
X184140000Y-62900000D03*
X184140000Y-65440000D03*
X184140000Y-67980000D03*
X184140000Y-70520000D03*
X184140000Y-73060000D03*
X184140000Y-75600000D03*
X184140000Y-78140000D03*
X196840000Y-78140000D03*
X196840000Y-75600000D03*
X196840000Y-73060000D03*
X196840000Y-70520000D03*
X196840000Y-67980000D03*
X196840000Y-65440000D03*
X196840000Y-62900000D03*
X196840000Y-60360000D03*
%TD*%
D11*
%TO.C,U2*%
X149150000Y-60360000D03*
D12*
X149150000Y-62900000D03*
X149150000Y-65440000D03*
X149150000Y-67980000D03*
X149150000Y-70520000D03*
X149150000Y-73060000D03*
X149150000Y-75600000D03*
X149150000Y-78140000D03*
X161850000Y-78140000D03*
X161850000Y-75600000D03*
X161850000Y-73060000D03*
X161850000Y-70520000D03*
X161850000Y-67980000D03*
X161850000Y-65440000D03*
X161850000Y-62900000D03*
X161850000Y-60360000D03*
%TD*%
D13*
%TO.C,J5*%
X152744775Y-81890000D03*
D14*
X152744775Y-88190000D03*
D15*
X157544775Y-84790000D03*
%TD*%
D16*
%TO.C,J3*%
X172994775Y-83940000D03*
D17*
X175534775Y-83940000D03*
X178074775Y-83940000D03*
X180614775Y-83940000D03*
%TD*%
D18*
%TO.C,C1*%
X178494775Y-56750000D03*
D19*
X178494775Y-54750000D03*
%TD*%
D20*
%TO.C,JP1*%
X164030000Y-90750000D03*
D21*
X165480000Y-90750000D03*
%TD*%
D18*
%TO.C,C2*%
X195744775Y-56690000D03*
D19*
X195744775Y-54690000D03*
%TD*%
D18*
%TO.C,C3*%
X160744775Y-57000000D03*
D19*
X160744775Y-55000000D03*
%TD*%
D16*
%TO.C,J4*%
X184710000Y-84000000D03*
D17*
X187250000Y-84000000D03*
X189790000Y-84000000D03*
X192330000Y-84000000D03*
%TD*%
D16*
%TO.C,J2*%
X161250000Y-83940000D03*
D17*
X163790000Y-83940000D03*
X166330000Y-83940000D03*
X168870000Y-83940000D03*
%TD*%
D16*
%TO.C,J1*%
X166316013Y-87695960D03*
D17*
X163776013Y-87695960D03*
X161236013Y-87695960D03*
%TD*%
M02*
