%TF.GenerationSoftware,KiCad,Pcbnew,8.0.3*%
%TF.CreationDate,2024-08-08T00:21:51-04:00*%
%TF.ProjectId,sheepycam,73686565-7079-4636-916d-2e6b69636164,rev?*%
%TF.SameCoordinates,Original*%
%TF.FileFunction,Legend,Top*%
%TF.FilePolarity,Positive*%
%FSLAX46Y46*%
G04 Gerber Fmt 4.6, Leading zero omitted, Abs format (unit mm)*
G04 Created by KiCad (PCBNEW 8.0.3) date 2024-08-08 00:21:51*
%MOMM*%
%LPD*%
G01*
G04 APERTURE LIST*
%ADD10C,0.150000*%
%ADD11C,0.127000*%
%ADD12C,0.200000*%
%ADD13C,0.120000*%
%ADD14C,0.100000*%
G04 APERTURE END LIST*
D10*
X150163095Y-57569819D02*
X150163095Y-58379342D01*
X150163095Y-58379342D02*
X150210714Y-58474580D01*
X150210714Y-58474580D02*
X150258333Y-58522200D01*
X150258333Y-58522200D02*
X150353571Y-58569819D01*
X150353571Y-58569819D02*
X150544047Y-58569819D01*
X150544047Y-58569819D02*
X150639285Y-58522200D01*
X150639285Y-58522200D02*
X150686904Y-58474580D01*
X150686904Y-58474580D02*
X150734523Y-58379342D01*
X150734523Y-58379342D02*
X150734523Y-57569819D01*
X151163095Y-57665057D02*
X151210714Y-57617438D01*
X151210714Y-57617438D02*
X151305952Y-57569819D01*
X151305952Y-57569819D02*
X151544047Y-57569819D01*
X151544047Y-57569819D02*
X151639285Y-57617438D01*
X151639285Y-57617438D02*
X151686904Y-57665057D01*
X151686904Y-57665057D02*
X151734523Y-57760295D01*
X151734523Y-57760295D02*
X151734523Y-57855533D01*
X151734523Y-57855533D02*
X151686904Y-57998390D01*
X151686904Y-57998390D02*
X151115476Y-58569819D01*
X151115476Y-58569819D02*
X151734523Y-58569819D01*
X185153095Y-57569819D02*
X185153095Y-58379342D01*
X185153095Y-58379342D02*
X185200714Y-58474580D01*
X185200714Y-58474580D02*
X185248333Y-58522200D01*
X185248333Y-58522200D02*
X185343571Y-58569819D01*
X185343571Y-58569819D02*
X185534047Y-58569819D01*
X185534047Y-58569819D02*
X185629285Y-58522200D01*
X185629285Y-58522200D02*
X185676904Y-58474580D01*
X185676904Y-58474580D02*
X185724523Y-58379342D01*
X185724523Y-58379342D02*
X185724523Y-57569819D01*
X186629285Y-57903152D02*
X186629285Y-58569819D01*
X186391190Y-57522200D02*
X186153095Y-58236485D01*
X186153095Y-58236485D02*
X186772142Y-58236485D01*
X172031441Y-81144819D02*
X172031441Y-81859104D01*
X172031441Y-81859104D02*
X171983822Y-82001961D01*
X171983822Y-82001961D02*
X171888584Y-82097200D01*
X171888584Y-82097200D02*
X171745727Y-82144819D01*
X171745727Y-82144819D02*
X171650489Y-82144819D01*
X172412394Y-81144819D02*
X173031441Y-81144819D01*
X173031441Y-81144819D02*
X172698108Y-81525771D01*
X172698108Y-81525771D02*
X172840965Y-81525771D01*
X172840965Y-81525771D02*
X172936203Y-81573390D01*
X172936203Y-81573390D02*
X172983822Y-81621009D01*
X172983822Y-81621009D02*
X173031441Y-81716247D01*
X173031441Y-81716247D02*
X173031441Y-81954342D01*
X173031441Y-81954342D02*
X172983822Y-82049580D01*
X172983822Y-82049580D02*
X172936203Y-82097200D01*
X172936203Y-82097200D02*
X172840965Y-82144819D01*
X172840965Y-82144819D02*
X172555251Y-82144819D01*
X172555251Y-82144819D02*
X172460013Y-82097200D01*
X172460013Y-82097200D02*
X172412394Y-82049580D01*
X175104355Y-55916666D02*
X175151975Y-55964285D01*
X175151975Y-55964285D02*
X175199594Y-56107142D01*
X175199594Y-56107142D02*
X175199594Y-56202380D01*
X175199594Y-56202380D02*
X175151975Y-56345237D01*
X175151975Y-56345237D02*
X175056736Y-56440475D01*
X175056736Y-56440475D02*
X174961498Y-56488094D01*
X174961498Y-56488094D02*
X174771022Y-56535713D01*
X174771022Y-56535713D02*
X174628165Y-56535713D01*
X174628165Y-56535713D02*
X174437689Y-56488094D01*
X174437689Y-56488094D02*
X174342451Y-56440475D01*
X174342451Y-56440475D02*
X174247213Y-56345237D01*
X174247213Y-56345237D02*
X174199594Y-56202380D01*
X174199594Y-56202380D02*
X174199594Y-56107142D01*
X174199594Y-56107142D02*
X174247213Y-55964285D01*
X174247213Y-55964285D02*
X174294832Y-55916666D01*
X175199594Y-54964285D02*
X175199594Y-55535713D01*
X175199594Y-55249999D02*
X174199594Y-55249999D01*
X174199594Y-55249999D02*
X174342451Y-55345237D01*
X174342451Y-55345237D02*
X174437689Y-55440475D01*
X174437689Y-55440475D02*
X174485308Y-55535713D01*
X192354355Y-55856666D02*
X192401975Y-55904285D01*
X192401975Y-55904285D02*
X192449594Y-56047142D01*
X192449594Y-56047142D02*
X192449594Y-56142380D01*
X192449594Y-56142380D02*
X192401975Y-56285237D01*
X192401975Y-56285237D02*
X192306736Y-56380475D01*
X192306736Y-56380475D02*
X192211498Y-56428094D01*
X192211498Y-56428094D02*
X192021022Y-56475713D01*
X192021022Y-56475713D02*
X191878165Y-56475713D01*
X191878165Y-56475713D02*
X191687689Y-56428094D01*
X191687689Y-56428094D02*
X191592451Y-56380475D01*
X191592451Y-56380475D02*
X191497213Y-56285237D01*
X191497213Y-56285237D02*
X191449594Y-56142380D01*
X191449594Y-56142380D02*
X191449594Y-56047142D01*
X191449594Y-56047142D02*
X191497213Y-55904285D01*
X191497213Y-55904285D02*
X191544832Y-55856666D01*
X191544832Y-55475713D02*
X191497213Y-55428094D01*
X191497213Y-55428094D02*
X191449594Y-55332856D01*
X191449594Y-55332856D02*
X191449594Y-55094761D01*
X191449594Y-55094761D02*
X191497213Y-54999523D01*
X191497213Y-54999523D02*
X191544832Y-54951904D01*
X191544832Y-54951904D02*
X191640070Y-54904285D01*
X191640070Y-54904285D02*
X191735308Y-54904285D01*
X191735308Y-54904285D02*
X191878165Y-54951904D01*
X191878165Y-54951904D02*
X192449594Y-55523332D01*
X192449594Y-55523332D02*
X192449594Y-54904285D01*
X157354355Y-56166666D02*
X157401975Y-56214285D01*
X157401975Y-56214285D02*
X157449594Y-56357142D01*
X157449594Y-56357142D02*
X157449594Y-56452380D01*
X157449594Y-56452380D02*
X157401975Y-56595237D01*
X157401975Y-56595237D02*
X157306736Y-56690475D01*
X157306736Y-56690475D02*
X157211498Y-56738094D01*
X157211498Y-56738094D02*
X157021022Y-56785713D01*
X157021022Y-56785713D02*
X156878165Y-56785713D01*
X156878165Y-56785713D02*
X156687689Y-56738094D01*
X156687689Y-56738094D02*
X156592451Y-56690475D01*
X156592451Y-56690475D02*
X156497213Y-56595237D01*
X156497213Y-56595237D02*
X156449594Y-56452380D01*
X156449594Y-56452380D02*
X156449594Y-56357142D01*
X156449594Y-56357142D02*
X156497213Y-56214285D01*
X156497213Y-56214285D02*
X156544832Y-56166666D01*
X156449594Y-55833332D02*
X156449594Y-55214285D01*
X156449594Y-55214285D02*
X156830546Y-55547618D01*
X156830546Y-55547618D02*
X156830546Y-55404761D01*
X156830546Y-55404761D02*
X156878165Y-55309523D01*
X156878165Y-55309523D02*
X156925784Y-55261904D01*
X156925784Y-55261904D02*
X157021022Y-55214285D01*
X157021022Y-55214285D02*
X157259117Y-55214285D01*
X157259117Y-55214285D02*
X157354355Y-55261904D01*
X157354355Y-55261904D02*
X157401975Y-55309523D01*
X157401975Y-55309523D02*
X157449594Y-55404761D01*
X157449594Y-55404761D02*
X157449594Y-55690475D01*
X157449594Y-55690475D02*
X157401975Y-55785713D01*
X157401975Y-55785713D02*
X157354355Y-55833332D01*
X167658095Y-57569819D02*
X167658095Y-58379342D01*
X167658095Y-58379342D02*
X167705714Y-58474580D01*
X167705714Y-58474580D02*
X167753333Y-58522200D01*
X167753333Y-58522200D02*
X167848571Y-58569819D01*
X167848571Y-58569819D02*
X168039047Y-58569819D01*
X168039047Y-58569819D02*
X168134285Y-58522200D01*
X168134285Y-58522200D02*
X168181904Y-58474580D01*
X168181904Y-58474580D02*
X168229523Y-58379342D01*
X168229523Y-58379342D02*
X168229523Y-57569819D01*
X168610476Y-57569819D02*
X169229523Y-57569819D01*
X169229523Y-57569819D02*
X168896190Y-57950771D01*
X168896190Y-57950771D02*
X169039047Y-57950771D01*
X169039047Y-57950771D02*
X169134285Y-57998390D01*
X169134285Y-57998390D02*
X169181904Y-58046009D01*
X169181904Y-58046009D02*
X169229523Y-58141247D01*
X169229523Y-58141247D02*
X169229523Y-58379342D01*
X169229523Y-58379342D02*
X169181904Y-58474580D01*
X169181904Y-58474580D02*
X169134285Y-58522200D01*
X169134285Y-58522200D02*
X169039047Y-58569819D01*
X169039047Y-58569819D02*
X168753333Y-58569819D01*
X168753333Y-58569819D02*
X168658095Y-58522200D01*
X168658095Y-58522200D02*
X168610476Y-58474580D01*
X183626666Y-81204819D02*
X183626666Y-81919104D01*
X183626666Y-81919104D02*
X183579047Y-82061961D01*
X183579047Y-82061961D02*
X183483809Y-82157200D01*
X183483809Y-82157200D02*
X183340952Y-82204819D01*
X183340952Y-82204819D02*
X183245714Y-82204819D01*
X184531428Y-81538152D02*
X184531428Y-82204819D01*
X184293333Y-81157200D02*
X184055238Y-81871485D01*
X184055238Y-81871485D02*
X184674285Y-81871485D01*
X131538095Y-101014819D02*
X131538095Y-101824342D01*
X131538095Y-101824342D02*
X131585714Y-101919580D01*
X131585714Y-101919580D02*
X131633333Y-101967200D01*
X131633333Y-101967200D02*
X131728571Y-102014819D01*
X131728571Y-102014819D02*
X131919047Y-102014819D01*
X131919047Y-102014819D02*
X132014285Y-101967200D01*
X132014285Y-101967200D02*
X132061904Y-101919580D01*
X132061904Y-101919580D02*
X132109523Y-101824342D01*
X132109523Y-101824342D02*
X132109523Y-101014819D01*
X133109523Y-102014819D02*
X132538095Y-102014819D01*
X132823809Y-102014819D02*
X132823809Y-101014819D01*
X132823809Y-101014819D02*
X132728571Y-101157676D01*
X132728571Y-101157676D02*
X132633333Y-101252914D01*
X132633333Y-101252914D02*
X132538095Y-101300533D01*
X160171891Y-80954819D02*
X160171891Y-81669104D01*
X160171891Y-81669104D02*
X160124272Y-81811961D01*
X160124272Y-81811961D02*
X160029034Y-81907200D01*
X160029034Y-81907200D02*
X159886177Y-81954819D01*
X159886177Y-81954819D02*
X159790939Y-81954819D01*
X160600463Y-81050057D02*
X160648082Y-81002438D01*
X160648082Y-81002438D02*
X160743320Y-80954819D01*
X160743320Y-80954819D02*
X160981415Y-80954819D01*
X160981415Y-80954819D02*
X161076653Y-81002438D01*
X161076653Y-81002438D02*
X161124272Y-81050057D01*
X161124272Y-81050057D02*
X161171891Y-81145295D01*
X161171891Y-81145295D02*
X161171891Y-81240533D01*
X161171891Y-81240533D02*
X161124272Y-81383390D01*
X161124272Y-81383390D02*
X160552844Y-81954819D01*
X160552844Y-81954819D02*
X161171891Y-81954819D01*
X152411441Y-78844819D02*
X152411441Y-79559104D01*
X152411441Y-79559104D02*
X152363822Y-79701961D01*
X152363822Y-79701961D02*
X152268584Y-79797200D01*
X152268584Y-79797200D02*
X152125727Y-79844819D01*
X152125727Y-79844819D02*
X152030489Y-79844819D01*
X153363822Y-78844819D02*
X152887632Y-78844819D01*
X152887632Y-78844819D02*
X152840013Y-79321009D01*
X152840013Y-79321009D02*
X152887632Y-79273390D01*
X152887632Y-79273390D02*
X152982870Y-79225771D01*
X152982870Y-79225771D02*
X153220965Y-79225771D01*
X153220965Y-79225771D02*
X153316203Y-79273390D01*
X153316203Y-79273390D02*
X153363822Y-79321009D01*
X153363822Y-79321009D02*
X153411441Y-79416247D01*
X153411441Y-79416247D02*
X153411441Y-79654342D01*
X153411441Y-79654342D02*
X153363822Y-79749580D01*
X153363822Y-79749580D02*
X153316203Y-79797200D01*
X153316203Y-79797200D02*
X153220965Y-79844819D01*
X153220965Y-79844819D02*
X152982870Y-79844819D01*
X152982870Y-79844819D02*
X152887632Y-79797200D01*
X152887632Y-79797200D02*
X152840013Y-79749580D01*
X168514819Y-88583333D02*
X169229104Y-88583333D01*
X169229104Y-88583333D02*
X169371961Y-88630952D01*
X169371961Y-88630952D02*
X169467200Y-88726190D01*
X169467200Y-88726190D02*
X169514819Y-88869047D01*
X169514819Y-88869047D02*
X169514819Y-88964285D01*
X169514819Y-87583333D02*
X169514819Y-88154761D01*
X169514819Y-87869047D02*
X168514819Y-87869047D01*
X168514819Y-87869047D02*
X168657676Y-87964285D01*
X168657676Y-87964285D02*
X168752914Y-88059523D01*
X168752914Y-88059523D02*
X168800533Y-88154761D01*
D11*
%TO.C,U2*%
X147880000Y-59090000D02*
X163120000Y-59090000D01*
X147880000Y-79410000D02*
X147880000Y-59090000D01*
X163120000Y-59090000D02*
X163120000Y-79410000D01*
X163120000Y-79410000D02*
X147880000Y-79410000D01*
D12*
X147200000Y-59800000D02*
G75*
G02*
X147000000Y-59800000I-100000J0D01*
G01*
X147000000Y-59800000D02*
G75*
G02*
X147200000Y-59800000I100000J0D01*
G01*
D11*
%TO.C,U4*%
X182870000Y-59090000D02*
X198110000Y-59090000D01*
X182870000Y-79410000D02*
X182870000Y-59090000D01*
X198110000Y-59090000D02*
X198110000Y-79410000D01*
X198110000Y-79410000D02*
X182870000Y-79410000D01*
D12*
X182190000Y-59800000D02*
G75*
G02*
X181990000Y-59800000I-100000J0D01*
G01*
X181990000Y-59800000D02*
G75*
G02*
X182190000Y-59800000I100000J0D01*
G01*
D13*
%TO.C,J3*%
X171664775Y-82610000D02*
X172994775Y-82610000D01*
X171664775Y-83940000D02*
X171664775Y-82610000D01*
X174264775Y-82610000D02*
X181944775Y-82610000D01*
X174264775Y-85270000D02*
X174264775Y-82610000D01*
X174264775Y-85270000D02*
X181944775Y-85270000D01*
X181944775Y-85270000D02*
X181944775Y-82610000D01*
%TO.C,C1*%
X175914775Y-55710000D02*
X177454775Y-55710000D01*
X175914775Y-55750000D02*
X177454775Y-55750000D01*
X175915775Y-55670000D02*
X177454775Y-55670000D01*
X175916775Y-55630000D02*
X177454775Y-55630000D01*
X175918775Y-55590000D02*
X177454775Y-55590000D01*
X175921775Y-55550000D02*
X177454775Y-55550000D01*
X175925775Y-55510000D02*
X177454775Y-55510000D01*
X175929775Y-55470000D02*
X177454775Y-55470000D01*
X175933775Y-55430000D02*
X177454775Y-55430000D01*
X175938775Y-55390000D02*
X177454775Y-55390000D01*
X175944775Y-55350000D02*
X177454775Y-55350000D01*
X175951775Y-55310000D02*
X177454775Y-55310000D01*
X175958775Y-55270000D02*
X177454775Y-55270000D01*
X175966775Y-55230000D02*
X177454775Y-55230000D01*
X175974775Y-55190000D02*
X177454775Y-55190000D01*
X175983775Y-55150000D02*
X177454775Y-55150000D01*
X175993775Y-55110000D02*
X177454775Y-55110000D01*
X176003775Y-55070000D02*
X177454775Y-55070000D01*
X176014775Y-55029000D02*
X177454775Y-55029000D01*
X176026775Y-54989000D02*
X177454775Y-54989000D01*
X176039775Y-54949000D02*
X177454775Y-54949000D01*
X176052775Y-54909000D02*
X177454775Y-54909000D01*
X176066775Y-54869000D02*
X177454775Y-54869000D01*
X176080775Y-54829000D02*
X177454775Y-54829000D01*
X176096775Y-54789000D02*
X177454775Y-54789000D01*
X176112775Y-54749000D02*
X177454775Y-54749000D01*
X176129775Y-54709000D02*
X177454775Y-54709000D01*
X176146775Y-54669000D02*
X177454775Y-54669000D01*
X176165775Y-54629000D02*
X177454775Y-54629000D01*
X176184775Y-54589000D02*
X177454775Y-54589000D01*
X176204775Y-54549000D02*
X177454775Y-54549000D01*
X176226775Y-54509000D02*
X177454775Y-54509000D01*
X176247775Y-54469000D02*
X177454775Y-54469000D01*
X176270775Y-54429000D02*
X177454775Y-54429000D01*
X176294775Y-54389000D02*
X177454775Y-54389000D01*
X176319775Y-54349000D02*
X177454775Y-54349000D01*
X176345775Y-54309000D02*
X177454775Y-54309000D01*
X176372775Y-54269000D02*
X177454775Y-54269000D01*
X176399775Y-54229000D02*
X177454775Y-54229000D01*
X176429775Y-54189000D02*
X177454775Y-54189000D01*
X176459775Y-54149000D02*
X177454775Y-54149000D01*
X176490775Y-54109000D02*
X177454775Y-54109000D01*
X176523775Y-54069000D02*
X177454775Y-54069000D01*
X176557775Y-54029000D02*
X177454775Y-54029000D01*
X176593775Y-53989000D02*
X177454775Y-53989000D01*
X176630775Y-53949000D02*
X177454775Y-53949000D01*
X176668775Y-53909000D02*
X177454775Y-53909000D01*
X176709775Y-53869000D02*
X177454775Y-53869000D01*
X176751775Y-53829000D02*
X177454775Y-53829000D01*
X176769775Y-58304775D02*
X177269775Y-58304775D01*
X176795775Y-53789000D02*
X177454775Y-53789000D01*
X176841775Y-53749000D02*
X177454775Y-53749000D01*
X176889775Y-53709000D02*
X180099775Y-53709000D01*
X176940775Y-53669000D02*
X180048775Y-53669000D01*
X176994775Y-53629000D02*
X179994775Y-53629000D01*
X177019775Y-58554775D02*
X177019775Y-58054775D01*
X177051775Y-53589000D02*
X179937775Y-53589000D01*
X177111775Y-53549000D02*
X179877775Y-53549000D01*
X177175775Y-53509000D02*
X179813775Y-53509000D01*
X177243775Y-53469000D02*
X179745775Y-53469000D01*
X177316775Y-53429000D02*
X179672775Y-53429000D01*
X177396775Y-53389000D02*
X179592775Y-53389000D01*
X177483775Y-53349000D02*
X179505775Y-53349000D01*
X177579775Y-53309000D02*
X179409775Y-53309000D01*
X177689775Y-53269000D02*
X179299775Y-53269000D01*
X177817775Y-53229000D02*
X179171775Y-53229000D01*
X177976775Y-53189000D02*
X179012775Y-53189000D01*
X178210775Y-53149000D02*
X178778775Y-53149000D01*
X179534775Y-53749000D02*
X180147775Y-53749000D01*
X179534775Y-53789000D02*
X180193775Y-53789000D01*
X179534775Y-53829000D02*
X180237775Y-53829000D01*
X179534775Y-53869000D02*
X180279775Y-53869000D01*
X179534775Y-53909000D02*
X180320775Y-53909000D01*
X179534775Y-53949000D02*
X180358775Y-53949000D01*
X179534775Y-53989000D02*
X180395775Y-53989000D01*
X179534775Y-54029000D02*
X180431775Y-54029000D01*
X179534775Y-54069000D02*
X180465775Y-54069000D01*
X179534775Y-54109000D02*
X180498775Y-54109000D01*
X179534775Y-54149000D02*
X180529775Y-54149000D01*
X179534775Y-54189000D02*
X180559775Y-54189000D01*
X179534775Y-54229000D02*
X180589775Y-54229000D01*
X179534775Y-54269000D02*
X180616775Y-54269000D01*
X179534775Y-54309000D02*
X180643775Y-54309000D01*
X179534775Y-54349000D02*
X180669775Y-54349000D01*
X179534775Y-54389000D02*
X180694775Y-54389000D01*
X179534775Y-54429000D02*
X180718775Y-54429000D01*
X179534775Y-54469000D02*
X180741775Y-54469000D01*
X179534775Y-54509000D02*
X180762775Y-54509000D01*
X179534775Y-54549000D02*
X180784775Y-54549000D01*
X179534775Y-54589000D02*
X180804775Y-54589000D01*
X179534775Y-54629000D02*
X180823775Y-54629000D01*
X179534775Y-54669000D02*
X180842775Y-54669000D01*
X179534775Y-54709000D02*
X180859775Y-54709000D01*
X179534775Y-54749000D02*
X180876775Y-54749000D01*
X179534775Y-54789000D02*
X180892775Y-54789000D01*
X179534775Y-54829000D02*
X180908775Y-54829000D01*
X179534775Y-54869000D02*
X180922775Y-54869000D01*
X179534775Y-54909000D02*
X180936775Y-54909000D01*
X179534775Y-54949000D02*
X180949775Y-54949000D01*
X179534775Y-54989000D02*
X180962775Y-54989000D01*
X179534775Y-55029000D02*
X180974775Y-55029000D01*
X179534775Y-55070000D02*
X180985775Y-55070000D01*
X179534775Y-55110000D02*
X180995775Y-55110000D01*
X179534775Y-55150000D02*
X181005775Y-55150000D01*
X179534775Y-55190000D02*
X181014775Y-55190000D01*
X179534775Y-55230000D02*
X181022775Y-55230000D01*
X179534775Y-55270000D02*
X181030775Y-55270000D01*
X179534775Y-55310000D02*
X181037775Y-55310000D01*
X179534775Y-55350000D02*
X181044775Y-55350000D01*
X179534775Y-55390000D02*
X181050775Y-55390000D01*
X179534775Y-55430000D02*
X181055775Y-55430000D01*
X179534775Y-55470000D02*
X181059775Y-55470000D01*
X179534775Y-55510000D02*
X181063775Y-55510000D01*
X179534775Y-55550000D02*
X181067775Y-55550000D01*
X179534775Y-55590000D02*
X181070775Y-55590000D01*
X179534775Y-55630000D02*
X181072775Y-55630000D01*
X179534775Y-55670000D02*
X181073775Y-55670000D01*
X179534775Y-55710000D02*
X181074775Y-55710000D01*
X179534775Y-55750000D02*
X181074775Y-55750000D01*
X181114775Y-55750000D02*
G75*
G02*
X175874775Y-55750000I-2620000J0D01*
G01*
X175874775Y-55750000D02*
G75*
G02*
X181114775Y-55750000I2620000J0D01*
G01*
%TO.C,C2*%
X198364775Y-55690000D02*
G75*
G02*
X193124775Y-55690000I-2620000J0D01*
G01*
X193124775Y-55690000D02*
G75*
G02*
X198364775Y-55690000I2620000J0D01*
G01*
X196784775Y-55690000D02*
X198324775Y-55690000D01*
X196784775Y-55650000D02*
X198324775Y-55650000D01*
X196784775Y-55610000D02*
X198323775Y-55610000D01*
X196784775Y-55570000D02*
X198322775Y-55570000D01*
X196784775Y-55530000D02*
X198320775Y-55530000D01*
X196784775Y-55490000D02*
X198317775Y-55490000D01*
X196784775Y-55450000D02*
X198313775Y-55450000D01*
X196784775Y-55410000D02*
X198309775Y-55410000D01*
X196784775Y-55370000D02*
X198305775Y-55370000D01*
X196784775Y-55330000D02*
X198300775Y-55330000D01*
X196784775Y-55290000D02*
X198294775Y-55290000D01*
X196784775Y-55250000D02*
X198287775Y-55250000D01*
X196784775Y-55210000D02*
X198280775Y-55210000D01*
X196784775Y-55170000D02*
X198272775Y-55170000D01*
X196784775Y-55130000D02*
X198264775Y-55130000D01*
X196784775Y-55090000D02*
X198255775Y-55090000D01*
X196784775Y-55050000D02*
X198245775Y-55050000D01*
X196784775Y-55010000D02*
X198235775Y-55010000D01*
X196784775Y-54969000D02*
X198224775Y-54969000D01*
X196784775Y-54929000D02*
X198212775Y-54929000D01*
X196784775Y-54889000D02*
X198199775Y-54889000D01*
X196784775Y-54849000D02*
X198186775Y-54849000D01*
X196784775Y-54809000D02*
X198172775Y-54809000D01*
X196784775Y-54769000D02*
X198158775Y-54769000D01*
X196784775Y-54729000D02*
X198142775Y-54729000D01*
X196784775Y-54689000D02*
X198126775Y-54689000D01*
X196784775Y-54649000D02*
X198109775Y-54649000D01*
X196784775Y-54609000D02*
X198092775Y-54609000D01*
X196784775Y-54569000D02*
X198073775Y-54569000D01*
X196784775Y-54529000D02*
X198054775Y-54529000D01*
X196784775Y-54489000D02*
X198034775Y-54489000D01*
X196784775Y-54449000D02*
X198012775Y-54449000D01*
X196784775Y-54409000D02*
X197991775Y-54409000D01*
X196784775Y-54369000D02*
X197968775Y-54369000D01*
X196784775Y-54329000D02*
X197944775Y-54329000D01*
X196784775Y-54289000D02*
X197919775Y-54289000D01*
X196784775Y-54249000D02*
X197893775Y-54249000D01*
X196784775Y-54209000D02*
X197866775Y-54209000D01*
X196784775Y-54169000D02*
X197839775Y-54169000D01*
X196784775Y-54129000D02*
X197809775Y-54129000D01*
X196784775Y-54089000D02*
X197779775Y-54089000D01*
X196784775Y-54049000D02*
X197748775Y-54049000D01*
X196784775Y-54009000D02*
X197715775Y-54009000D01*
X196784775Y-53969000D02*
X197681775Y-53969000D01*
X196784775Y-53929000D02*
X197645775Y-53929000D01*
X196784775Y-53889000D02*
X197608775Y-53889000D01*
X196784775Y-53849000D02*
X197570775Y-53849000D01*
X196784775Y-53809000D02*
X197529775Y-53809000D01*
X196784775Y-53769000D02*
X197487775Y-53769000D01*
X196784775Y-53729000D02*
X197443775Y-53729000D01*
X196784775Y-53689000D02*
X197397775Y-53689000D01*
X195460775Y-53089000D02*
X196028775Y-53089000D01*
X195226775Y-53129000D02*
X196262775Y-53129000D01*
X195067775Y-53169000D02*
X196421775Y-53169000D01*
X194939775Y-53209000D02*
X196549775Y-53209000D01*
X194829775Y-53249000D02*
X196659775Y-53249000D01*
X194733775Y-53289000D02*
X196755775Y-53289000D01*
X194646775Y-53329000D02*
X196842775Y-53329000D01*
X194566775Y-53369000D02*
X196922775Y-53369000D01*
X194493775Y-53409000D02*
X196995775Y-53409000D01*
X194425775Y-53449000D02*
X197063775Y-53449000D01*
X194361775Y-53489000D02*
X197127775Y-53489000D01*
X194301775Y-53529000D02*
X197187775Y-53529000D01*
X194269775Y-58494775D02*
X194269775Y-57994775D01*
X194244775Y-53569000D02*
X197244775Y-53569000D01*
X194190775Y-53609000D02*
X197298775Y-53609000D01*
X194139775Y-53649000D02*
X197349775Y-53649000D01*
X194091775Y-53689000D02*
X194704775Y-53689000D01*
X194045775Y-53729000D02*
X194704775Y-53729000D01*
X194019775Y-58244775D02*
X194519775Y-58244775D01*
X194001775Y-53769000D02*
X194704775Y-53769000D01*
X193959775Y-53809000D02*
X194704775Y-53809000D01*
X193918775Y-53849000D02*
X194704775Y-53849000D01*
X193880775Y-53889000D02*
X194704775Y-53889000D01*
X193843775Y-53929000D02*
X194704775Y-53929000D01*
X193807775Y-53969000D02*
X194704775Y-53969000D01*
X193773775Y-54009000D02*
X194704775Y-54009000D01*
X193740775Y-54049000D02*
X194704775Y-54049000D01*
X193709775Y-54089000D02*
X194704775Y-54089000D01*
X193679775Y-54129000D02*
X194704775Y-54129000D01*
X193649775Y-54169000D02*
X194704775Y-54169000D01*
X193622775Y-54209000D02*
X194704775Y-54209000D01*
X193595775Y-54249000D02*
X194704775Y-54249000D01*
X193569775Y-54289000D02*
X194704775Y-54289000D01*
X193544775Y-54329000D02*
X194704775Y-54329000D01*
X193520775Y-54369000D02*
X194704775Y-54369000D01*
X193497775Y-54409000D02*
X194704775Y-54409000D01*
X193476775Y-54449000D02*
X194704775Y-54449000D01*
X193454775Y-54489000D02*
X194704775Y-54489000D01*
X193434775Y-54529000D02*
X194704775Y-54529000D01*
X193415775Y-54569000D02*
X194704775Y-54569000D01*
X193396775Y-54609000D02*
X194704775Y-54609000D01*
X193379775Y-54649000D02*
X194704775Y-54649000D01*
X193362775Y-54689000D02*
X194704775Y-54689000D01*
X193346775Y-54729000D02*
X194704775Y-54729000D01*
X193330775Y-54769000D02*
X194704775Y-54769000D01*
X193316775Y-54809000D02*
X194704775Y-54809000D01*
X193302775Y-54849000D02*
X194704775Y-54849000D01*
X193289775Y-54889000D02*
X194704775Y-54889000D01*
X193276775Y-54929000D02*
X194704775Y-54929000D01*
X193264775Y-54969000D02*
X194704775Y-54969000D01*
X193253775Y-55010000D02*
X194704775Y-55010000D01*
X193243775Y-55050000D02*
X194704775Y-55050000D01*
X193233775Y-55090000D02*
X194704775Y-55090000D01*
X193224775Y-55130000D02*
X194704775Y-55130000D01*
X193216775Y-55170000D02*
X194704775Y-55170000D01*
X193208775Y-55210000D02*
X194704775Y-55210000D01*
X193201775Y-55250000D02*
X194704775Y-55250000D01*
X193194775Y-55290000D02*
X194704775Y-55290000D01*
X193188775Y-55330000D02*
X194704775Y-55330000D01*
X193183775Y-55370000D02*
X194704775Y-55370000D01*
X193179775Y-55410000D02*
X194704775Y-55410000D01*
X193175775Y-55450000D02*
X194704775Y-55450000D01*
X193171775Y-55490000D02*
X194704775Y-55490000D01*
X193168775Y-55530000D02*
X194704775Y-55530000D01*
X193166775Y-55570000D02*
X194704775Y-55570000D01*
X193165775Y-55610000D02*
X194704775Y-55610000D01*
X193164775Y-55690000D02*
X194704775Y-55690000D01*
X193164775Y-55650000D02*
X194704775Y-55650000D01*
%TO.C,C3*%
X158164775Y-55960000D02*
X159704775Y-55960000D01*
X158164775Y-56000000D02*
X159704775Y-56000000D01*
X158165775Y-55920000D02*
X159704775Y-55920000D01*
X158166775Y-55880000D02*
X159704775Y-55880000D01*
X158168775Y-55840000D02*
X159704775Y-55840000D01*
X158171775Y-55800000D02*
X159704775Y-55800000D01*
X158175775Y-55760000D02*
X159704775Y-55760000D01*
X158179775Y-55720000D02*
X159704775Y-55720000D01*
X158183775Y-55680000D02*
X159704775Y-55680000D01*
X158188775Y-55640000D02*
X159704775Y-55640000D01*
X158194775Y-55600000D02*
X159704775Y-55600000D01*
X158201775Y-55560000D02*
X159704775Y-55560000D01*
X158208775Y-55520000D02*
X159704775Y-55520000D01*
X158216775Y-55480000D02*
X159704775Y-55480000D01*
X158224775Y-55440000D02*
X159704775Y-55440000D01*
X158233775Y-55400000D02*
X159704775Y-55400000D01*
X158243775Y-55360000D02*
X159704775Y-55360000D01*
X158253775Y-55320000D02*
X159704775Y-55320000D01*
X158264775Y-55279000D02*
X159704775Y-55279000D01*
X158276775Y-55239000D02*
X159704775Y-55239000D01*
X158289775Y-55199000D02*
X159704775Y-55199000D01*
X158302775Y-55159000D02*
X159704775Y-55159000D01*
X158316775Y-55119000D02*
X159704775Y-55119000D01*
X158330775Y-55079000D02*
X159704775Y-55079000D01*
X158346775Y-55039000D02*
X159704775Y-55039000D01*
X158362775Y-54999000D02*
X159704775Y-54999000D01*
X158379775Y-54959000D02*
X159704775Y-54959000D01*
X158396775Y-54919000D02*
X159704775Y-54919000D01*
X158415775Y-54879000D02*
X159704775Y-54879000D01*
X158434775Y-54839000D02*
X159704775Y-54839000D01*
X158454775Y-54799000D02*
X159704775Y-54799000D01*
X158476775Y-54759000D02*
X159704775Y-54759000D01*
X158497775Y-54719000D02*
X159704775Y-54719000D01*
X158520775Y-54679000D02*
X159704775Y-54679000D01*
X158544775Y-54639000D02*
X159704775Y-54639000D01*
X158569775Y-54599000D02*
X159704775Y-54599000D01*
X158595775Y-54559000D02*
X159704775Y-54559000D01*
X158622775Y-54519000D02*
X159704775Y-54519000D01*
X158649775Y-54479000D02*
X159704775Y-54479000D01*
X158679775Y-54439000D02*
X159704775Y-54439000D01*
X158709775Y-54399000D02*
X159704775Y-54399000D01*
X158740775Y-54359000D02*
X159704775Y-54359000D01*
X158773775Y-54319000D02*
X159704775Y-54319000D01*
X158807775Y-54279000D02*
X159704775Y-54279000D01*
X158843775Y-54239000D02*
X159704775Y-54239000D01*
X158880775Y-54199000D02*
X159704775Y-54199000D01*
X158918775Y-54159000D02*
X159704775Y-54159000D01*
X158959775Y-54119000D02*
X159704775Y-54119000D01*
X159001775Y-54079000D02*
X159704775Y-54079000D01*
X159019775Y-58554775D02*
X159519775Y-58554775D01*
X159045775Y-54039000D02*
X159704775Y-54039000D01*
X159091775Y-53999000D02*
X159704775Y-53999000D01*
X159139775Y-53959000D02*
X162349775Y-53959000D01*
X159190775Y-53919000D02*
X162298775Y-53919000D01*
X159244775Y-53879000D02*
X162244775Y-53879000D01*
X159269775Y-58804775D02*
X159269775Y-58304775D01*
X159301775Y-53839000D02*
X162187775Y-53839000D01*
X159361775Y-53799000D02*
X162127775Y-53799000D01*
X159425775Y-53759000D02*
X162063775Y-53759000D01*
X159493775Y-53719000D02*
X161995775Y-53719000D01*
X159566775Y-53679000D02*
X161922775Y-53679000D01*
X159646775Y-53639000D02*
X161842775Y-53639000D01*
X159733775Y-53599000D02*
X161755775Y-53599000D01*
X159829775Y-53559000D02*
X161659775Y-53559000D01*
X159939775Y-53519000D02*
X161549775Y-53519000D01*
X160067775Y-53479000D02*
X161421775Y-53479000D01*
X160226775Y-53439000D02*
X161262775Y-53439000D01*
X160460775Y-53399000D02*
X161028775Y-53399000D01*
X161784775Y-53999000D02*
X162397775Y-53999000D01*
X161784775Y-54039000D02*
X162443775Y-54039000D01*
X161784775Y-54079000D02*
X162487775Y-54079000D01*
X161784775Y-54119000D02*
X162529775Y-54119000D01*
X161784775Y-54159000D02*
X162570775Y-54159000D01*
X161784775Y-54199000D02*
X162608775Y-54199000D01*
X161784775Y-54239000D02*
X162645775Y-54239000D01*
X161784775Y-54279000D02*
X162681775Y-54279000D01*
X161784775Y-54319000D02*
X162715775Y-54319000D01*
X161784775Y-54359000D02*
X162748775Y-54359000D01*
X161784775Y-54399000D02*
X162779775Y-54399000D01*
X161784775Y-54439000D02*
X162809775Y-54439000D01*
X161784775Y-54479000D02*
X162839775Y-54479000D01*
X161784775Y-54519000D02*
X162866775Y-54519000D01*
X161784775Y-54559000D02*
X162893775Y-54559000D01*
X161784775Y-54599000D02*
X162919775Y-54599000D01*
X161784775Y-54639000D02*
X162944775Y-54639000D01*
X161784775Y-54679000D02*
X162968775Y-54679000D01*
X161784775Y-54719000D02*
X162991775Y-54719000D01*
X161784775Y-54759000D02*
X163012775Y-54759000D01*
X161784775Y-54799000D02*
X163034775Y-54799000D01*
X161784775Y-54839000D02*
X163054775Y-54839000D01*
X161784775Y-54879000D02*
X163073775Y-54879000D01*
X161784775Y-54919000D02*
X163092775Y-54919000D01*
X161784775Y-54959000D02*
X163109775Y-54959000D01*
X161784775Y-54999000D02*
X163126775Y-54999000D01*
X161784775Y-55039000D02*
X163142775Y-55039000D01*
X161784775Y-55079000D02*
X163158775Y-55079000D01*
X161784775Y-55119000D02*
X163172775Y-55119000D01*
X161784775Y-55159000D02*
X163186775Y-55159000D01*
X161784775Y-55199000D02*
X163199775Y-55199000D01*
X161784775Y-55239000D02*
X163212775Y-55239000D01*
X161784775Y-55279000D02*
X163224775Y-55279000D01*
X161784775Y-55320000D02*
X163235775Y-55320000D01*
X161784775Y-55360000D02*
X163245775Y-55360000D01*
X161784775Y-55400000D02*
X163255775Y-55400000D01*
X161784775Y-55440000D02*
X163264775Y-55440000D01*
X161784775Y-55480000D02*
X163272775Y-55480000D01*
X161784775Y-55520000D02*
X163280775Y-55520000D01*
X161784775Y-55560000D02*
X163287775Y-55560000D01*
X161784775Y-55600000D02*
X163294775Y-55600000D01*
X161784775Y-55640000D02*
X163300775Y-55640000D01*
X161784775Y-55680000D02*
X163305775Y-55680000D01*
X161784775Y-55720000D02*
X163309775Y-55720000D01*
X161784775Y-55760000D02*
X163313775Y-55760000D01*
X161784775Y-55800000D02*
X163317775Y-55800000D01*
X161784775Y-55840000D02*
X163320775Y-55840000D01*
X161784775Y-55880000D02*
X163322775Y-55880000D01*
X161784775Y-55920000D02*
X163323775Y-55920000D01*
X161784775Y-55960000D02*
X163324775Y-55960000D01*
X161784775Y-56000000D02*
X163324775Y-56000000D01*
X163364775Y-56000000D02*
G75*
G02*
X158124775Y-56000000I-2620000J0D01*
G01*
X158124775Y-56000000D02*
G75*
G02*
X163364775Y-56000000I2620000J0D01*
G01*
D11*
%TO.C,U3*%
X165375000Y-59090000D02*
X180615000Y-59090000D01*
X165375000Y-79410000D02*
X165375000Y-59090000D01*
X180615000Y-59090000D02*
X180615000Y-79410000D01*
X180615000Y-79410000D02*
X165375000Y-79410000D01*
D12*
X164695000Y-59800000D02*
G75*
G02*
X164495000Y-59800000I-100000J0D01*
G01*
X164495000Y-59800000D02*
G75*
G02*
X164695000Y-59800000I100000J0D01*
G01*
D13*
%TO.C,J4*%
X183380000Y-82670000D02*
X184710000Y-82670000D01*
X183380000Y-84000000D02*
X183380000Y-82670000D01*
X185980000Y-82670000D02*
X193660000Y-82670000D01*
X185980000Y-85330000D02*
X185980000Y-82670000D01*
X185980000Y-85330000D02*
X193660000Y-85330000D01*
X193660000Y-85330000D02*
X193660000Y-82670000D01*
%TO.C,U1*%
X118100000Y-48800000D02*
X118100000Y-100560000D01*
X118100000Y-100560000D02*
X127566667Y-100560000D01*
X127566667Y-100200000D02*
X137033333Y-100200000D01*
X127566667Y-100560000D02*
X127566667Y-100200000D01*
D14*
X132300000Y-54280000D02*
X132300000Y-48800000D01*
X132300000Y-73030000D02*
X132300000Y-54280000D01*
X132300000Y-91780000D02*
X132300000Y-100200000D01*
D13*
X137033333Y-100200000D02*
X137033333Y-100560000D01*
X137033333Y-100560000D02*
X146499999Y-100560000D01*
X146499999Y-48800000D02*
X118100000Y-48800000D01*
X146499999Y-100560000D02*
X146499999Y-48800000D01*
%TO.C,J2*%
X159920000Y-82610000D02*
X161250000Y-82610000D01*
X159920000Y-83940000D02*
X159920000Y-82610000D01*
X162520000Y-82610000D02*
X170200000Y-82610000D01*
X162520000Y-85270000D02*
X162520000Y-82610000D01*
X162520000Y-85270000D02*
X170200000Y-85270000D01*
X170200000Y-85270000D02*
X170200000Y-82610000D01*
%TO.C,J5*%
X147844775Y-80890000D02*
X147844775Y-82190000D01*
X148144775Y-81190000D02*
X150144775Y-81190000D01*
X148144775Y-95690000D02*
X148144775Y-81190000D01*
X149544775Y-80890000D02*
X147844775Y-80890000D01*
X155344775Y-81190000D02*
X157344775Y-81190000D01*
X157344775Y-81190000D02*
X157344775Y-82490000D01*
X157344775Y-87090000D02*
X157344775Y-95690000D01*
X157344775Y-95690000D02*
X148144775Y-95690000D01*
%TO.C,J1*%
X159880000Y-86920000D02*
X159880000Y-89580000D01*
X165020000Y-86920000D02*
X159880000Y-86920000D01*
X165020000Y-86920000D02*
X165020000Y-89580000D01*
X165020000Y-89580000D02*
X159880000Y-89580000D01*
X167620000Y-88250000D02*
X167620000Y-89580000D01*
X167620000Y-89580000D02*
X166290000Y-89580000D01*
%TD*%
M02*
